Asap-Italic.ufo
<glyph name="numbersign" format="2">
  <advance width="534"/>
  <unicode hex="0023"/>
  <outline>
    <contour>
      <point x="77" y="-2" type="curve" smooth="yes"/>
      <point x="81" y="-2" type="line" smooth="yes"/>
      <point x="116" y="-2"/>
      <point x="123" y="6"/>
      <point x="127" y="20" type="curve" smooth="yes"/>
      <point x="177" y="196" type="line"/>
      <point x="295" y="196" type="line"/>
      <point x="245" y="19" type="line" smooth="yes"/>
      <point x="241" y="4"/>
      <point x="250" y="-2"/>
      <point x="270" y="-2" type="curve" smooth="yes"/>
      <point x="274" y="-2" type="line" smooth="yes"/>
      <point x="308" y="-2"/>
      <point x="316" y="6"/>
      <point x="320" y="20" type="curve" smooth="yes"/>
      <point x="369" y="196" type="line"/>
      <point x="459" y="196" type="line" smooth="yes"/>
      <point x="473" y="196"/>
      <point x="483" y="205"/>
      <point x="485" y="229" type="curve" smooth="yes"/>
      <point x="486" y="245" type="line" smooth="yes"/>
      <point x="487" y="264"/>
      <point x="481" y="273"/>
      <point x="467" y="273" type="curve" smooth="yes"/>
      <point x="393" y="273" type="line"/>
      <point x="434" y="420" type="line"/>
      <point x="516" y="420" type="line" smooth="yes"/>
      <point x="530" y="420"/>
      <point x="540" y="429"/>
      <point x="542" y="453" type="curve" smooth="yes"/>
      <point x="543" y="469" type="line" smooth="yes"/>
      <point x="544" y="488"/>
      <point x="538" y="497"/>
      <point x="524" y="497" type="curve" smooth="yes"/>
      <point x="457" y="497" type="line"/>
      <point x="505" y="668" type="line" smooth="yes"/>
      <point x="508" y="680"/>
      <point x="500" y="686"/>
      <point x="480" y="686" type="curve" smooth="yes"/>
      <point x="475" y="686" type="line" smooth="yes"/>
      <point x="437" y="686"/>
      <point x="432" y="678"/>
      <point x="428" y="664" type="curve" smooth="yes"/>
      <point x="381" y="497" type="line"/>
      <point x="262" y="497" type="line"/>
      <point x="313" y="668" type="line" smooth="yes"/>
      <point x="316" y="680"/>
      <point x="307" y="686"/>
      <point x="287" y="686" type="curve" smooth="yes"/>
      <point x="283" y="686" type="line" smooth="yes"/>
      <point x="245" y="686"/>
      <point x="240" y="678"/>
      <point x="236" y="664" type="curve" smooth="yes"/>
      <point x="188" y="497" type="line"/>
      <point x="95" y="497" type="line" smooth="yes"/>
      <point x="81" y="497"/>
      <point x="71" y="488"/>
      <point x="69" y="464" type="curve" smooth="yes"/>
      <point x="68" y="448" type="line" smooth="yes"/>
      <point x="67" y="429"/>
      <point x="73" y="420"/>
      <point x="87" y="420" type="curve" smooth="yes"/>
      <point x="167" y="420" type="line"/>
      <point x="125" y="273" type="line"/>
      <point x="36" y="273" type="line" smooth="yes"/>
      <point x="22" y="273"/>
      <point x="12" y="264"/>
      <point x="10" y="240" type="curve" smooth="yes"/>
      <point x="9" y="224" type="line" smooth="yes"/>
      <point x="8" y="205"/>
      <point x="14" y="196"/>
      <point x="28" y="196" type="curve" smooth="yes"/>
      <point x="102" y="196" type="line"/>
      <point x="52" y="19" type="line" smooth="yes"/>
      <point x="48" y="4"/>
      <point x="57" y="-2"/>
    </contour>
    <contour>
      <point x="200" y="273" type="line"/>
      <point x="242" y="420" type="line"/>
      <point x="360" y="420" type="line"/>
      <point x="318" y="273" type="line"/>
    </contour>
  </outline>
</glyph>
<glyph name="dollar" format="2">
  <advance width="500"/>
  <unicode hex="0024"/>
  <outline>
    <contour>
      <point x="211" y="-68" type="curve"/>
      <point x="212" y="-68" type="line"/>
      <point x="225" y="-68"/>
      <point x="233" y="-62"/>
      <point x="234" y="-48" type="curve" smooth="yes"/>
      <point x="238" y="-4" type="line"/>
      <point x="364" y="7"/>
      <point x="451" y="89"/>
      <point x="451" y="214" type="curve" smooth="yes"/>
      <point x="451" y="328"/>
      <point x="361" y="369"/>
      <point x="281" y="403" type="curve"/>
      <point x="306" y="630" type="line"/>
      <point x="357" y="629"/>
      <point x="387" y="612"/>
      <point x="407" y="601" type="curve" smooth="yes"/>
      <point x="416" y="596"/>
      <point x="422" y="592"/>
      <point x="427" y="592" type="curve" smooth="yes"/>
      <point x="437" y="592"/>
      <point x="465" y="633"/>
      <point x="465" y="646" type="curve" smooth="yes"/>
      <point x="465" y="655"/>
      <point x="459" y="663"/>
      <point x="449" y="671" type="curve" smooth="yes"/>
      <point x="420" y="694"/>
      <point x="356" y="705"/>
      <point x="314" y="706" type="curve"/>
      <point x="315" y="716"/>
      <point x="317" y="732"/>
      <point x="317" y="735" type="curve" smooth="yes"/>
      <point x="317" y="748"/>
      <point x="313" y="755"/>
      <point x="301" y="755" type="curve"/>
      <point x="299" y="755" type="line" smooth="yes"/>
      <point x="283" y="755"/>
      <point x="279" y="749"/>
      <point x="277" y="735" type="curve" smooth="yes"/>
      <point x="273" y="704" type="line"/>
      <point x="149" y="691"/>
      <point x="68" y="611"/>
      <point x="68" y="498" type="curve" smooth="yes"/>
      <point x="68" y="389"/>
      <point x="154" y="356"/>
      <point x="233" y="324" type="curve"/>
      <point x="206" y="76" type="line"/>
      <point x="139" y="77"/>
      <point x="95" y="98"/>
      <point x="72" y="110" type="curve" smooth="yes"/>
      <point x="62" y="115"/>
      <point x="56" y="121"/>
      <point x="53" y="121" type="curve" smooth="yes"/>
      <point x="46" y="121"/>
      <point x="37" y="111"/>
      <point x="37" y="56" type="curve" smooth="yes"/>
      <point x="37" y="47"/>
      <point x="42" y="39"/>
      <point x="49" y="32" type="curve" smooth="yes"/>
      <point x="78" y="3"/>
      <point x="157" y="-4"/>
      <point x="198" y="-6" type="curve"/>
      <point x="197" y="-20"/>
      <point x="194" y="-46"/>
      <point x="194" y="-48" type="curve" smooth="yes"/>
      <point x="194" y="-62"/>
      <point x="197" y="-68"/>
    </contour>
    <contour>
      <point x="246" y="73" type="curve"/>
      <point x="271" y="308" type="line"/>
      <point x="321" y="285"/>
      <point x="360" y="258"/>
      <point x="360" y="202" type="curve" smooth="yes"/>
      <point x="360" y="134"/>
      <point x="311" y="85"/>
    </contour>
    <contour>
      <point x="243" y="418" type="line"/>
      <point x="195" y="439"/>
      <point x="158" y="462"/>
      <point x="158" y="508" type="curve" smooth="yes"/>
      <point x="158" y="578"/>
      <point x="205" y="616"/>
      <point x="265" y="627" type="curve"/>
    </contour>
  </outline>
</glyph>
<glyph name="ampersand" format="2">
  <advance width="624"/>
  <unicode hex="0026"/>
  <outline>
    <contour>
      <point x="235" y="-6" type="curve" smooth="yes"/>
      <point x="308" y="-6"/>
      <point x="366" y="16"/>
      <point x="401" y="36" type="curve"/>
      <point x="424" y="0"/>
      <point x="465" y="-6"/>
      <point x="496" y="-6" type="curve" smooth="yes"/>
      <point x="524" y="-6"/>
      <point x="559" y="2"/>
      <point x="564" y="27" type="curve" smooth="yes"/>
      <point x="565" y="33"/>
      <point x="568" y="49"/>
      <point x="568" y="62" type="curve" smooth="yes"/>
      <point x="568" y="70"/>
      <point x="565" y="71"/>
      <point x="562" y="71" type="curve" smooth="yes"/>
      <point x="555" y="71"/>
      <point x="544" y="64"/>
      <point x="515" y="64" type="curve" smooth="yes"/>
      <point x="484" y="64"/>
      <point x="464" y="77"/>
      <point x="469" y="130" type="curve" smooth="yes"/>
      <point x="490" y="336" type="line"/>
      <point x="567" y="336" type="line" smooth="yes"/>
      <point x="581" y="336"/>
      <point x="588" y="345"/>
      <point x="590" y="366" type="curve" smooth="yes"/>
      <point x="591" y="378" type="line" smooth="yes"/>
      <point x="593" y="399"/>
      <point x="589" y="408"/>
      <point x="572" y="408" type="curve" smooth="yes"/>
      <point x="498" y="408" type="line"/>
      <point x="508" y="508" type="line" smooth="yes"/>
      <point x="510" y="524"/>
      <point x="503" y="531"/>
      <point x="477" y="531" type="curve" smooth="yes"/>
      <point x="474" y="531" type="line" smooth="yes"/>
      <point x="448" y="531"/>
      <point x="439" y="525"/>
      <point x="436" y="509" type="curve" smooth="yes"/>
      <point x="416" y="408" type="line"/>
      <point x="297" y="408" type="line" smooth="yes"/>
      <point x="207" y="408"/>
      <point x="174" y="469"/>
      <point x="174" y="518" type="curve" smooth="yes"/>
      <point x="174" y="551"/>
      <point x="191" y="634"/>
      <point x="306" y="634" type="curve" smooth="yes"/>
      <point x="342" y="634"/>
      <point x="355" y="628"/>
      <point x="364" y="628" type="curve" smooth="yes"/>
      <point x="375" y="628"/>
      <point x="391" y="664"/>
      <point x="391" y="679" type="curve" smooth="yes"/>
      <point x="391" y="704"/>
      <point x="338" y="706"/>
      <point x="312" y="706" type="curve" smooth="yes"/>
      <point x="193" y="706"/>
      <point x="91" y="645"/>
      <point x="91" y="520" type="curve" smooth="yes"/>
      <point x="91" y="456"/>
      <point x="130" y="411"/>
      <point x="180" y="391" type="curve"/>
      <point x="179" y="387" type="line"/>
      <point x="113" y="370"/>
      <point x="32" y="297"/>
      <point x="32" y="175" type="curve" smooth="yes"/>
      <point x="32" y="42"/>
      <point x="142" y="-6"/>
    </contour>
    <contour>
      <point x="251" y="66" type="curve" smooth="yes"/>
      <point x="195" y="66"/>
      <point x="120" y="91"/>
      <point x="120" y="184" type="curve" smooth="yes"/>
      <point x="120" y="302"/>
      <point x="193" y="336"/>
      <point x="285" y="336" type="curve" smooth="yes"/>
      <point x="407" y="336" type="line"/>
      <point x="398" y="249"/>
      <point x="384" y="126"/>
      <point x="384" y="103" type="curve"/>
      <point x="351" y="84"/>
      <point x="300" y="66"/>
    </contour>
  </outline>
</glyph>
<glyph name="quotesingle" format="2">
  <advance width="183"/>
  <unicode hex="0027"/>
  <outline>
    <contour>
      <point x="112" y="472" type="curve" smooth="yes"/>
      <point x="113" y="472" type="line" smooth="yes"/>
      <point x="126" y="472"/>
      <point x="135" y="476"/>
      <point x="137" y="484" type="curve" smooth="yes"/>
      <point x="180" y="678" type="line" smooth="yes"/>
      <point x="184" y="695"/>
      <point x="172" y="702"/>
      <point x="143" y="702" type="curve" smooth="yes"/>
      <point x="133" y="702" type="line" smooth="yes"/>
      <point x="105" y="702"/>
      <point x="91" y="694"/>
      <point x="91" y="680" type="curve" smooth="yes"/>
      <point x="91" y="484" type="line" smooth="yes"/>
      <point x="91" y="475"/>
      <point x="98" y="472"/>
    </contour>
  </outline>
</glyph>
<glyph name="plus" format="2">
  <advance width="560"/>
  <unicode hex="002B"/>
  <outline>
    <contour>
      <point x="248" y="-2" type="curve" smooth="yes"/>
      <point x="255" y="-2" type="line" smooth="yes"/>
      <point x="274" y="-2"/>
      <point x="286" y="4"/>
      <point x="287" y="18" type="curve" smooth="yes"/>
      <point x="306" y="197" type="line"/>
      <point x="481" y="197" type="line" smooth="yes"/>
      <point x="492" y="197"/>
      <point x="505" y="203"/>
      <point x="506" y="225" type="curve" smooth="yes"/>
      <point x="507" y="240" type="line" smooth="yes"/>
      <point x="508" y="260"/>
      <point x="500" y="264"/>
      <point x="489" y="264" type="curve" smooth="yes"/>
      <point x="313" y="264" type="line"/>
      <point x="332" y="441" type="line" smooth="yes"/>
      <point x="334" y="457"/>
      <point x="325" y="463"/>
      <point x="304" y="463" type="curve" smooth="yes"/>
      <point x="297" y="463" type="line" smooth="yes"/>
      <point x="273" y="463"/>
      <point x="266" y="457"/>
      <point x="265" y="443" type="curve" smooth="yes"/>
      <point x="246" y="264" type="line"/>
      <point x="71" y="264" type="line" smooth="yes"/>
      <point x="56" y="264"/>
      <point x="49" y="259"/>
      <point x="47" y="236" type="curve" smooth="yes"/>
      <point x="46" y="223" type="line" smooth="yes"/>
      <point x="44" y="203"/>
      <point x="53" y="197"/>
      <point x="65" y="197" type="curve" smooth="yes"/>
      <point x="239" y="197" type="line"/>
      <point x="221" y="20" type="line" smooth="yes"/>
      <point x="219" y="4"/>
      <point x="226" y="-2"/>
    </contour>
  </outline>
</glyph>
<glyph name="comma" format="2">
  <advance width="198"/>
  <unicode hex="002C"/>
  <outline>
    <contour>
      <point x="29" y="-116" type="curve" smooth="yes"/>
      <point x="62" y="-116"/>
      <point x="140" y="-40"/>
      <point x="152" y="80" type="curve"/>
      <point x="152" y="97"/>
      <point x="141" y="108"/>
      <point x="115" y="108" type="curve" smooth="yes"/>
      <point x="106" y="108" type="line" smooth="yes"/>
      <point x="79" y="108"/>
      <point x="65" y="95"/>
      <point x="63" y="76" type="curve" smooth="yes"/>
      <point x="56" y="10"/>
      <point x="42" y="-33"/>
      <point x="9" y="-84" type="curve" smooth="yes"/>
      <point x="4" y="-92"/>
      <point x="1" y="-96"/>
      <point x="1" y="-102" type="curve" smooth="yes"/>
      <point x="1" y="-113"/>
      <point x="18" y="-116"/>
    </contour>
  </outline>
</glyph>
<glyph name="hyphen" format="2">
  <advance width="320"/>
  <unicode hex="002D"/>
  <outline>
    <contour>
      <point x="65" y="229" type="curve" smooth="yes"/>
      <point x="249" y="229" type="line" smooth="yes"/>
      <point x="261" y="229"/>
      <point x="273" y="235"/>
      <point x="275" y="259" type="curve" smooth="yes"/>
      <point x="276" y="273" type="line" smooth="yes"/>
      <point x="278" y="294"/>
      <point x="269" y="301"/>
      <point x="257" y="301" type="curve" smooth="yes"/>
      <point x="72" y="301" type="line" smooth="yes"/>
      <point x="56" y="301"/>
      <point x="48" y="295"/>
      <point x="46" y="271" type="curve" smooth="yes"/>
      <point x="45" y="257" type="line" smooth="yes"/>
      <point x="43" y="236"/>
      <point x="52" y="229"/>
    </contour>
  </outline>
</glyph>
<glyph name="period" format="2">
  <advance width="198"/>
  <unicode hex="002E"/>
  <outline>
    <contour>
      <point x="92" y="108" type="curve" smooth="yes"/>
      <point x="75" y="108" type="line" smooth="yes"/>
      <point x="46" y="108"/>
      <point x="34" y="100"/>
      <point x="33" y="86" type="curve" smooth="yes"/>
      <point x="26" y="20" type="line"/>
      <point x="26" y="6"/>
      <point x="35" y="-2"/>
      <point x="64" y="-2" type="curve" smooth="yes"/>
      <point x="81" y="-2" type="line" smooth="yes"/>
      <point x="109" y="-2"/>
      <point x="122" y="6"/>
      <point x="123" y="20" type="curve" smooth="yes"/>
      <point x="130" y="86" type="line"/>
      <point x="130" y="100"/>
      <point x="121" y="108"/>
    </contour>
  </outline>
</glyph>
<glyph name="slash" format="2">
  <advance width="422"/>
  <unicode hex="002F"/>
  <outline>
    <contour>
      <point x="15" y="-79" type="curve" smooth="yes"/>
      <point x="20" y="-79" type="line" smooth="yes"/>
      <point x="42" y="-79"/>
      <point x="50" y="-72"/>
      <point x="57" y="-59" type="curve" smooth="yes"/>
      <point x="434" y="674" type="line" smooth="yes"/>
      <point x="438" y="682"/>
      <point x="441" y="689"/>
      <point x="441" y="692" type="curve" smooth="yes"/>
      <point x="441" y="698"/>
      <point x="436" y="702"/>
      <point x="415" y="702" type="curve" smooth="yes"/>
      <point x="409" y="702" type="line" smooth="yes"/>
      <point x="388" y="702"/>
      <point x="383" y="698"/>
      <point x="377" y="687" type="curve" smooth="yes"/>
      <point x="-6" y="-59" type="line" smooth="yes"/>
      <point x="-8" y="-63"/>
      <point x="-9" y="-67"/>
      <point x="-9" y="-69" type="curve" smooth="yes"/>
      <point x="-9" y="-75"/>
      <point x="-5" y="-79"/>
    </contour>
  </outline>
</glyph>
<glyph name="zero" format="2">
  <advance width="535"/>
  <unicode hex="0030"/>
  <outline>
    <contour>
      <point x="239" y="-6" type="curve" smooth="yes"/>
      <point x="366" y="-6"/>
      <point x="510" y="123"/>
      <point x="510" y="427" type="curve" smooth="yes"/>
      <point x="510" y="621"/>
      <point x="421" y="706"/>
      <point x="314" y="706" type="curve" smooth="yes"/>
      <point x="187" y="706"/>
      <point x="45" y="576"/>
      <point x="45" y="269" type="curve" smooth="yes"/>
      <point x="45" y="78"/>
      <point x="133" y="-6"/>
    </contour>
    <contour>
      <point x="247" y="66" type="curve" smooth="yes"/>
      <point x="185" y="66"/>
      <point x="130" y="121"/>
      <point x="130" y="270" type="curve" smooth="yes"/>
      <point x="130" y="540"/>
      <point x="231" y="634"/>
      <point x="306" y="634" type="curve" smooth="yes"/>
      <point x="368" y="634"/>
      <point x="425" y="577"/>
      <point x="425" y="425" type="curve" smooth="yes"/>
      <point x="425" y="159"/>
      <point x="321" y="66"/>
    </contour>
  </outline>
</glyph>
<glyph name="one" format="2">
  <advance width="535"/>
  <unicode hex="0031"/>
  <outline>
    <contour>
      <point x="42" y="0" type="curve" smooth="yes"/>
      <point x="448" y="0" type="line" smooth="yes"/>
      <point x="461" y="0"/>
      <point x="470" y="9"/>
      <point x="472" y="30" type="curve" smooth="yes"/>
      <point x="473" y="43" type="line" smooth="yes"/>
      <point x="474" y="60"/>
      <point x="469" y="72"/>
      <point x="455" y="72" type="curve" smooth="yes"/>
      <point x="307" y="72" type="line"/>
      <point x="371" y="681" type="line" smooth="yes"/>
      <point x="372" y="690"/>
      <point x="358" y="702"/>
      <point x="342" y="702" type="curve"/>
      <point x="105" y="651" type="line" smooth="yes"/>
      <point x="88" y="647"/>
      <point x="84" y="640"/>
      <point x="84" y="621" type="curve" smooth="yes"/>
      <point x="84" y="603"/>
      <point x="88" y="579"/>
      <point x="103" y="581" type="curve" smooth="yes"/>
      <point x="280" y="611" type="line"/>
      <point x="223" y="72" type="line"/>
      <point x="49" y="72" type="line" smooth="yes"/>
      <point x="36" y="72"/>
      <point x="27" y="63"/>
      <point x="25" y="42" type="curve" smooth="yes"/>
      <point x="24" y="29" type="line" smooth="yes"/>
      <point x="23" y="12"/>
      <point x="28" y="0"/>
    </contour>
  </outline>
</glyph>
<glyph name="two" format="2">
  <advance width="535"/>
  <unicode hex="0032"/>
  <outline>
    <contour>
      <point x="50" y="0" type="curve" smooth="yes"/>
      <point x="424" y="0" type="line" smooth="yes"/>
      <point x="438" y="0"/>
      <point x="445" y="9"/>
      <point x="447" y="30" type="curve" smooth="yes"/>
      <point x="448" y="41" type="line" smooth="yes"/>
      <point x="450" y="62"/>
      <point x="445" y="71"/>
      <point x="431" y="71" type="curve" smooth="yes"/>
      <point x="143" y="71" type="line"/>
      <point x="414" y="370" type="line" smooth="yes"/>
      <point x="472" y="434"/>
      <point x="495" y="484"/>
      <point x="495" y="556" type="curve" smooth="yes"/>
      <point x="495" y="646"/>
      <point x="421" y="706"/>
      <point x="299" y="706" type="curve" smooth="yes"/>
      <point x="237" y="706"/>
      <point x="111" y="674"/>
      <point x="111" y="631" type="curve" smooth="yes"/>
      <point x="111" y="615"/>
      <point x="128" y="583"/>
      <point x="138" y="583" type="curve" smooth="yes"/>
      <point x="155" y="583"/>
      <point x="202" y="634"/>
      <point x="293" y="634" type="curve" smooth="yes"/>
      <point x="365" y="634"/>
      <point x="408" y="599"/>
      <point x="408" y="543" type="curve" smooth="yes"/>
      <point x="408" y="503"/>
      <point x="388" y="455"/>
      <point x="341" y="403" type="curve" smooth="yes"/>
      <point x="32" y="61" type="line"/>
      <point x="30" y="59"/>
      <point x="30" y="56"/>
      <point x="30" y="52" type="curve" smooth="yes"/>
      <point x="30" y="34"/>
      <point x="40" y="0"/>
    </contour>
  </outline>
</glyph>
<glyph name="three" format="2">
  <advance width="535"/>
  <unicode hex="0033"/>
  <outline>
    <contour>
      <point x="216" y="-6" type="curve" smooth="yes"/>
      <point x="317" y="-6"/>
      <point x="462" y="55"/>
      <point x="462" y="228" type="curve" smooth="yes"/>
      <point x="462" y="318"/>
      <point x="408" y="372"/>
      <point x="354" y="387" type="curve"/>
      <point x="355" y="391" type="line"/>
      <point x="419" y="415"/>
      <point x="473" y="469"/>
      <point x="473" y="554" type="curve" smooth="yes"/>
      <point x="473" y="656"/>
      <point x="399" y="706"/>
      <point x="289" y="706" type="curve" smooth="yes"/>
      <point x="227" y="706"/>
      <point x="104" y="682"/>
      <point x="104" y="652" type="curve" smooth="yes"/>
      <point x="104" y="636"/>
      <point x="121" y="601"/>
      <point x="132" y="601" type="curve" smooth="yes"/>
      <point x="149" y="601"/>
      <point x="188" y="634"/>
      <point x="279" y="634" type="curve" smooth="yes"/>
      <point x="367" y="634"/>
      <point x="388" y="586"/>
      <point x="388" y="548" type="curve" smooth="yes"/>
      <point x="388" y="503"/>
      <point x="352" y="407"/>
      <point x="241" y="407" type="curve" smooth="yes"/>
      <point x="214" y="407" type="line" smooth="yes"/>
      <point x="197" y="407"/>
      <point x="191" y="401"/>
      <point x="188" y="378" type="curve" smooth="yes"/>
      <point x="186" y="361" type="line" smooth="yes"/>
      <point x="184" y="343"/>
      <point x="189" y="336"/>
      <point x="206" y="336" type="curve" smooth="yes"/>
      <point x="238" y="336" type="line" smooth="yes"/>
      <point x="320" y="336"/>
      <point x="375" y="311"/>
      <point x="375" y="228" type="curve" smooth="yes"/>
      <point x="375" y="99"/>
      <point x="280" y="66"/>
      <point x="216" y="66" type="curve" smooth="yes"/>
      <point x="124" y="66"/>
      <point x="92" y="100"/>
      <point x="77" y="100" type="curve" smooth="yes"/>
      <point x="65" y="100"/>
      <point x="47" y="65"/>
      <point x="47" y="52" type="curve" smooth="yes"/>
      <point x="47" y="27"/>
      <point x="110" y="-6"/>
    </contour>
  </outline>
</glyph>
<glyph name="four" format="2">
  <advance width="535"/>
  <unicode hex="0034"/>
  <outline>
    <contour>
      <point x="348" y="-2" type="curve" smooth="yes"/>
      <point x="371" y="-2" type="line" smooth="yes"/>
      <point x="389" y="-2"/>
      <point x="402" y="6"/>
      <point x="403" y="20" type="curve" smooth="yes"/>
      <point x="418" y="167" type="line"/>
      <point x="487" y="167" type="line" smooth="yes"/>
      <point x="501" y="167"/>
      <point x="507" y="173"/>
      <point x="510" y="197" type="curve" smooth="yes"/>
      <point x="512" y="214" type="line" smooth="yes"/>
      <point x="514" y="235"/>
      <point x="509" y="239"/>
      <point x="495" y="239" type="curve" smooth="yes"/>
      <point x="426" y="239" type="line"/>
      <point x="472" y="680" type="line" smooth="yes"/>
      <point x="473" y="693"/>
      <point x="467" y="702"/>
      <point x="444" y="702" type="curve" smooth="yes"/>
      <point x="428" y="702" type="line" smooth="yes"/>
      <point x="414" y="702"/>
      <point x="401" y="697"/>
      <point x="393" y="688" type="curve" smooth="yes"/>
      <point x="16" y="229" type="line" smooth="yes"/>
      <point x="14" y="227"/>
      <point x="13" y="220"/>
      <point x="13" y="212" type="curve" smooth="yes"/>
      <point x="13" y="193"/>
      <point x="21" y="167"/>
      <point x="31" y="167" type="curve" smooth="yes"/>
      <point x="335" y="167" type="line"/>
      <point x="320" y="20" type="line"/>
      <point x="320" y="5"/>
      <point x="326" y="-2"/>
    </contour>
    <contour>
      <point x="114" y="239" type="line"/>
      <point x="381" y="571" type="line"/>
      <point x="385" y="569" type="line"/>
      <point x="379" y="545"/>
      <point x="370" y="489"/>
      <point x="364" y="439" type="curve" smooth="yes"/>
      <point x="343" y="239" type="line"/>
    </contour>
  </outline>
</glyph>
<glyph name="five" format="2">
  <advance width="535"/>
  <unicode hex="0035"/>
  <outline>
    <contour>
      <point x="196" y="-6" type="curve" smooth="yes"/>
      <point x="310" y="-6"/>
      <point x="460" y="44"/>
      <point x="460" y="241" type="curve" smooth="yes"/>
      <point x="460" y="380"/>
      <point x="340" y="422"/>
      <point x="239" y="422" type="curve" smooth="yes"/>
      <point x="187" y="422" type="line"/>
      <point x="222" y="628" type="line"/>
      <point x="441" y="628" type="line" smooth="yes"/>
      <point x="455" y="628"/>
      <point x="461" y="634"/>
      <point x="464" y="658" type="curve" smooth="yes"/>
      <point x="466" y="675" type="line" smooth="yes"/>
      <point x="468" y="696"/>
      <point x="463" y="700"/>
      <point x="449" y="700" type="curve" smooth="yes"/>
      <point x="181" y="700" type="line" smooth="yes"/>
      <point x="160" y="700"/>
      <point x="148" y="691"/>
      <point x="145" y="670" type="curve"/>
      <point x="99" y="382" type="line" smooth="yes"/>
      <point x="95" y="357"/>
      <point x="104" y="350"/>
      <point x="123" y="350" type="curve" smooth="yes"/>
      <point x="208" y="350" type="line" smooth="yes"/>
      <point x="316" y="350"/>
      <point x="374" y="309"/>
      <point x="374" y="232" type="curve" smooth="yes"/>
      <point x="374" y="117"/>
      <point x="302" y="66"/>
      <point x="203" y="66" type="curve" smooth="yes"/>
      <point x="118" y="66"/>
      <point x="79" y="100"/>
      <point x="64" y="100" type="curve" smooth="yes"/>
      <point x="52" y="100"/>
      <point x="34" y="65"/>
      <point x="34" y="52" type="curve" smooth="yes"/>
      <point x="34" y="27"/>
      <point x="97" y="-6"/>
    </contour>
  </outline>
</glyph>
<glyph name="six" format="2">
  <advance width="535"/>
  <unicode hex="0036"/>
  <outline>
    <contour>
      <point x="236" y="-5" type="curve" smooth="yes"/>
      <point x="365" y="-5"/>
      <point x="475" y="87"/>
      <point x="475" y="229" type="curve" smooth="yes"/>
      <point x="475" y="337"/>
      <point x="402" y="405"/>
      <point x="304" y="405" type="curve" smooth="yes"/>
      <point x="243" y="405"/>
      <point x="199" y="390"/>
      <point x="166" y="372" type="curve"/>
      <point x="210" y="484"/>
      <point x="302" y="576"/>
      <point x="441" y="638" type="curve" smooth="yes"/>
      <point x="450" y="642"/>
      <point x="450" y="648"/>
      <point x="450" y="651" type="curve" smooth="yes"/>
      <point x="450" y="666"/>
      <point x="443" y="702"/>
      <point x="423" y="702" type="curve" smooth="yes"/>
      <point x="354" y="702"/>
      <point x="47" y="519"/>
      <point x="47" y="197" type="curve" smooth="yes"/>
      <point x="47" y="69"/>
      <point x="109" y="-5"/>
    </contour>
    <contour>
      <point x="249" y="67" type="curve" smooth="yes"/>
      <point x="192" y="67"/>
      <point x="131" y="93"/>
      <point x="131" y="202" type="curve" smooth="yes"/>
      <point x="131" y="241"/>
      <point x="137" y="270"/>
      <point x="143" y="299" type="curve"/>
      <point x="173" y="315"/>
      <point x="219" y="333"/>
      <point x="272" y="333" type="curve" smooth="yes"/>
      <point x="333" y="333"/>
      <point x="390" y="302"/>
      <point x="390" y="219" type="curve" smooth="yes"/>
      <point x="390" y="113"/>
      <point x="307" y="67"/>
    </contour>
  </outline>
</glyph>
<glyph name="seven" format="2">
  <advance width="535"/>
  <unicode hex="0037"/>
  <outline>
    <contour>
      <point x="122" y="-2" type="curve" smooth="yes"/>
      <point x="134" y="-2" type="line" smooth="yes"/>
      <point x="154" y="-2"/>
      <point x="169" y="4"/>
      <point x="175" y="14" type="curve" smooth="yes"/>
      <point x="537" y="638" type="line" smooth="yes"/>
      <point x="539" y="642"/>
      <point x="540" y="648"/>
      <point x="540" y="655" type="curve" smooth="yes"/>
      <point x="540" y="675"/>
      <point x="532" y="700"/>
      <point x="520" y="700" type="curve" smooth="yes"/>
      <point x="130" y="700" type="line" smooth="yes"/>
      <point x="116" y="700"/>
      <point x="110" y="694"/>
      <point x="107" y="670" type="curve" smooth="yes"/>
      <point x="105" y="653" type="line" smooth="yes"/>
      <point x="103" y="632"/>
      <point x="108" y="628"/>
      <point x="122" y="628" type="curve" smooth="yes"/>
      <point x="438" y="628" type="line"/>
      <point x="86" y="28" type="line" smooth="yes"/>
      <point x="82" y="21"/>
      <point x="81" y="17"/>
      <point x="81" y="13" type="curve" smooth="yes"/>
      <point x="81" y="1"/>
      <point x="95" y="-2"/>
    </contour>
  </outline>
</glyph>
<glyph name="eight" format="2">
  <advance width="535"/>
  <unicode hex="0038"/>
  <outline>
    <contour>
      <point x="244" y="-6" type="curve" smooth="yes"/>
      <point x="366" y="-6"/>
      <point x="479" y="66"/>
      <point x="479" y="226" type="curve" smooth="yes"/>
      <point x="479" y="317"/>
      <point x="433" y="354"/>
      <point x="377" y="381" type="curve"/>
      <point x="436" y="406"/>
      <point x="491" y="458"/>
      <point x="491" y="550" type="curve" smooth="yes"/>
      <point x="491" y="653"/>
      <point x="412" y="706"/>
      <point x="311" y="706" type="curve" smooth="yes"/>
      <point x="203" y="706"/>
      <point x="107" y="641"/>
      <point x="107" y="515" type="curve" smooth="yes"/>
      <point x="107" y="450"/>
      <point x="136" y="406"/>
      <point x="175" y="380" type="curve"/>
      <point x="85" y="346"/>
      <point x="43" y="268"/>
      <point x="43" y="176" type="curve" smooth="yes"/>
      <point x="43" y="52"/>
      <point x="130" y="-6"/>
    </contour>
    <contour>
      <point x="252" y="66" type="curve" smooth="yes"/>
      <point x="184" y="66"/>
      <point x="130" y="106"/>
      <point x="130" y="186" type="curve" smooth="yes"/>
      <point x="130" y="265"/>
      <point x="170" y="313"/>
      <point x="239" y="350" type="curve"/>
      <point x="311" y="320"/>
      <point x="393" y="303"/>
      <point x="393" y="214" type="curve" smooth="yes"/>
      <point x="393" y="114"/>
      <point x="322" y="66"/>
    </contour>
    <contour>
      <point x="307" y="408" type="curve"/>
      <point x="245" y="430"/>
      <point x="191" y="452"/>
      <point x="191" y="522" type="curve" smooth="yes"/>
      <point x="191" y="600"/>
      <point x="243" y="634"/>
      <point x="303" y="634" type="curve" smooth="yes"/>
      <point x="361" y="634"/>
      <point x="407" y="607"/>
      <point x="407" y="542" type="curve" smooth="yes"/>
      <point x="407" y="477"/>
      <point x="361" y="437"/>
    </contour>
  </outline>
</glyph>
<glyph name="nine" format="2">
  <advance width="535"/>
  <unicode hex="0039"/>
  <outline>
    <contour>
      <point x="128" y="-1" type="curve" smooth="yes"/>
      <point x="197" y="-1"/>
      <point x="504" y="182"/>
      <point x="504" y="504" type="curve" smooth="yes"/>
      <point x="504" y="632"/>
      <point x="442" y="706"/>
      <point x="315" y="706" type="curve" smooth="yes"/>
      <point x="186" y="706"/>
      <point x="76" y="614"/>
      <point x="76" y="472" type="curve" smooth="yes"/>
      <point x="76" y="364"/>
      <point x="149" y="296"/>
      <point x="247" y="296" type="curve" smooth="yes"/>
      <point x="308" y="296"/>
      <point x="352" y="311"/>
      <point x="385" y="329" type="curve"/>
      <point x="341" y="217"/>
      <point x="249" y="125"/>
      <point x="110" y="63" type="curve" smooth="yes"/>
      <point x="101" y="59"/>
      <point x="101" y="53"/>
      <point x="101" y="50" type="curve" smooth="yes"/>
      <point x="101" y="35"/>
      <point x="108" y="-1"/>
    </contour>
    <contour>
      <point x="279" y="368" type="curve" smooth="yes"/>
      <point x="218" y="368"/>
      <point x="161" y="399"/>
      <point x="161" y="482" type="curve" smooth="yes"/>
      <point x="161" y="588"/>
      <point x="244" y="634"/>
      <point x="302" y="634" type="curve" smooth="yes"/>
      <point x="359" y="634"/>
      <point x="420" y="608"/>
      <point x="420" y="499" type="curve" smooth="yes"/>
      <point x="420" y="460"/>
      <point x="414" y="431"/>
      <point x="408" y="402" type="curve"/>
      <point x="378" y="386"/>
      <point x="332" y="368"/>
    </contour>
  </outline>
</glyph>
<glyph name="colon" format="2">
  <advance width="198"/>
  <unicode hex="003A"/>
  <outline>
    <contour>
      <point x="135" y="525" type="curve" smooth="yes"/>
      <point x="118" y="525" type="line" smooth="yes"/>
      <point x="89" y="525"/>
      <point x="77" y="517"/>
      <point x="76" y="503" type="curve" smooth="yes"/>
      <point x="69" y="437" type="line"/>
      <point x="69" y="423"/>
      <point x="78" y="415"/>
      <point x="107" y="415" type="curve" smooth="yes"/>
      <point x="124" y="415" type="line" smooth="yes"/>
      <point x="152" y="415"/>
      <point x="164" y="423"/>
      <point x="166" y="437" type="curve" smooth="yes"/>
      <point x="173" y="503" type="line"/>
      <point x="173" y="517"/>
      <point x="164" y="525"/>
    </contour>
    <contour>
      <point x="91" y="108" type="curve" smooth="yes"/>
      <point x="74" y="108" type="line" smooth="yes"/>
      <point x="45" y="108"/>
      <point x="33" y="100"/>
      <point x="32" y="86" type="curve" smooth="yes"/>
      <point x="25" y="20" type="line"/>
      <point x="25" y="6"/>
      <point x="34" y="-2"/>
      <point x="63" y="-2" type="curve" smooth="yes"/>
      <point x="80" y="-2" type="line" smooth="yes"/>
      <point x="108" y="-2"/>
      <point x="120" y="6"/>
      <point x="122" y="20" type="curve" smooth="yes"/>
      <point x="129" y="86" type="line"/>
      <point x="129" y="100"/>
      <point x="120" y="108"/>
    </contour>
  </outline>
</glyph>
<glyph name="less" format="2">
  <advance width="560"/>
  <unicode hex="003C"/>
  <outline>
    <contour>
      <point x="473" y="4" type="curve" smooth="yes"/>
      <point x="484" y="4"/>
      <point x="490" y="13"/>
      <point x="492" y="36" type="curve" smooth="yes"/>
      <point x="492" y="40" type="line" smooth="yes"/>
      <point x="495" y="66"/>
      <point x="489" y="75"/>
      <point x="479" y="79" type="curve" smooth="yes"/>
      <point x="121" y="226" type="line"/>
      <point x="504" y="371" type="line" smooth="yes"/>
      <point x="519" y="377"/>
      <point x="529" y="385"/>
      <point x="532" y="409" type="curve" smooth="yes"/>
      <point x="534" y="424" type="line" smooth="yes"/>
      <point x="536" y="442"/>
      <point x="530" y="450"/>
      <point x="520" y="450" type="curve" smooth="yes"/>
      <point x="516" y="450"/>
      <point x="512" y="449"/>
      <point x="508" y="447" type="curve" smooth="yes"/>
      <point x="70" y="271" type="line" smooth="yes"/>
      <point x="55" y="265"/>
      <point x="43" y="257"/>
      <point x="41" y="235" type="curve" smooth="yes"/>
      <point x="39" y="214" type="line" smooth="yes"/>
      <point x="38" y="199"/>
      <point x="46" y="191"/>
      <point x="61" y="184" type="curve" smooth="yes"/>
      <point x="454" y="9" type="line" smooth="yes"/>
      <point x="461" y="6"/>
      <point x="468" y="4"/>
    </contour>
  </outline>
</glyph>
<glyph name="equal" format="2">
  <advance width="560"/>
  <unicode hex="003D"/>
  <outline>
    <contour>
      <point x="74" y="268" type="curve" smooth="yes"/>
      <point x="487" y="268" type="line" smooth="yes"/>
      <point x="499" y="268"/>
      <point x="513" y="274"/>
      <point x="514" y="298" type="curve" smooth="yes"/>
      <point x="515" y="314" type="line" smooth="yes"/>
      <point x="516" y="336"/>
      <point x="508" y="340"/>
      <point x="496" y="340" type="curve" smooth="yes"/>
      <point x="81" y="340" type="line" smooth="yes"/>
      <point x="65" y="340"/>
      <point x="57" y="334"/>
      <point x="55" y="310" type="curve" smooth="yes"/>
      <point x="54" y="296" type="line" smooth="yes"/>
      <point x="52" y="274"/>
      <point x="62" y="268"/>
    </contour>
    <contour>
      <point x="57" y="106" type="curve" smooth="yes"/>
      <point x="470" y="106" type="line" smooth="yes"/>
      <point x="482" y="106"/>
      <point x="496" y="112"/>
      <point x="497" y="136" type="curve" smooth="yes"/>
      <point x="498" y="152" type="line" smooth="yes"/>
      <point x="499" y="174"/>
      <point x="491" y="178"/>
      <point x="479" y="178" type="curve" smooth="yes"/>
      <point x="64" y="178" type="line" smooth="yes"/>
      <point x="48" y="178"/>
      <point x="40" y="172"/>
      <point x="38" y="148" type="curve" smooth="yes"/>
      <point x="37" y="134" type="line" smooth="yes"/>
      <point x="35" y="112"/>
      <point x="45" y="106"/>
    </contour>
  </outline>
</glyph>
<glyph name="at" format="2">
  <advance width="974"/>
  <unicode hex="0040"/>
  <outline>
    <contour>
      <point x="410" y="-126" type="curve" smooth="yes"/>
      <point x="477" y="-126"/>
      <point x="557" y="-106"/>
      <point x="563" y="-82" type="curve" smooth="yes"/>
      <point x="566" y="-70"/>
      <point x="567" y="-62"/>
      <point x="567" y="-55" type="curve" smooth="yes"/>
      <point x="567" y="-52"/>
      <point x="566" y="-49"/>
      <point x="563" y="-49" type="curve" smooth="yes"/>
      <point x="550" y="-49"/>
      <point x="500" y="-82"/>
      <point x="410" y="-82" type="curve" smooth="yes"/>
      <point x="248" y="-82"/>
      <point x="138" y="47"/>
      <point x="138" y="237" type="curve" smooth="yes"/>
      <point x="138" y="475"/>
      <point x="312" y="661"/>
      <point x="534" y="661" type="curve" smooth="yes"/>
      <point x="701" y="661"/>
      <point x="813" y="549"/>
      <point x="813" y="380" type="curve" smooth="yes"/>
      <point x="813" y="235"/>
      <point x="744" y="107"/>
      <point x="670" y="107" type="curve" smooth="yes"/>
      <point x="660" y="107"/>
      <point x="630" y="107"/>
      <point x="630" y="149" type="curve" smooth="yes"/>
      <point x="630" y="173"/>
      <point x="663" y="481"/>
      <point x="663" y="481" type="curve"/>
      <point x="663" y="494"/>
      <point x="657" y="502"/>
      <point x="641" y="502" type="curve" smooth="yes"/>
      <point x="635" y="502" type="line" smooth="yes"/>
      <point x="610" y="502"/>
      <point x="611" y="487"/>
      <point x="600" y="458" type="curve"/>
      <point x="582" y="476"/>
      <point x="544" y="505"/>
      <point x="489" y="505" type="curve" smooth="yes"/>
      <point x="361" y="505"/>
      <point x="278" y="393"/>
      <point x="278" y="236" type="curve" smooth="yes"/>
      <point x="278" y="89"/>
      <point x="366" y="54"/>
      <point x="423" y="54" type="curve" smooth="yes"/>
      <point x="475" y="54"/>
      <point x="524" y="80"/>
      <point x="559" y="146" type="curve"/>
      <point x="560" y="93"/>
      <point x="594" y="54"/>
      <point x="657" y="54" type="curve" smooth="yes"/>
      <point x="781" y="54"/>
      <point x="867" y="198"/>
      <point x="867" y="380" type="curve" smooth="yes"/>
      <point x="867" y="576"/>
      <point x="735" y="705"/>
      <point x="534" y="705" type="curve" smooth="yes"/>
      <point x="281" y="705"/>
      <point x="84" y="500"/>
      <point x="84" y="237" type="curve" smooth="yes"/>
      <point x="84" y="21"/>
      <point x="216" y="-126"/>
    </contour>
    <contour>
      <point x="439" y="115" type="curve" smooth="yes"/>
      <point x="391" y="115"/>
      <point x="351" y="145"/>
      <point x="351" y="241" type="curve" smooth="yes"/>
      <point x="351" y="342"/>
      <point x="380" y="443"/>
      <point x="495" y="443" type="curve" smooth="yes"/>
      <point x="539" y="443"/>
      <point x="570" y="423"/>
      <point x="587" y="409" type="curve"/>
      <point x="580" y="386"/>
      <point x="573" y="307"/>
      <point x="568" y="256" type="curve"/>
      <point x="532" y="146"/>
      <point x="477" y="115"/>
    </contour>
  </outline>
</glyph>
<glyph name="A" format="2">
  <advance width="613"/>
  <unicode hex="0041"/>
  <guideline x="467" y="1016" angle="0"/>
  <guideline x="536" y="974" angle="0"/>
  <guideline x="533" y="731" angle="0"/>
  <guideline x="587" y="764" angle="0"/>
  <anchor x="279" y="0" name="bottom"/>
  <anchor x="554" y="0" name="ogonek"/>
  <anchor x="352" y="700" name="top"/>
  <outline>
    <contour>
      <point x="28" y="-2" type="curve" smooth="yes"/>
      <point x="33" y="-2" type="line" smooth="yes"/>
      <point x="53" y="-2"/>
      <point x="69" y="2"/>
      <point x="74" y="14" type="curve" smooth="yes"/>
      <point x="148" y="178" type="line"/>
      <point x="442" y="178" type="line"/>
      <point x="484" y="14" type="line" smooth="yes"/>
      <point x="487" y="2"/>
      <point x="503" y="-2"/>
      <point x="523" y="-2" type="curve" smooth="yes"/>
      <point x="531" y="-2" type="line" smooth="yes"/>
      <point x="565" y="-2"/>
      <point x="575" y="7"/>
      <point x="575" y="18" type="curve" smooth="yes"/>
      <point x="575" y="21"/>
      <point x="575" y="24"/>
      <point x="574" y="28" type="curve" smooth="yes"/>
      <point x="406" y="686" type="line" smooth="yes"/>
      <point x="403" y="698"/>
      <point x="387" y="702"/>
      <point x="367" y="702" type="curve" smooth="yes"/>
      <point x="338" y="702" type="line" smooth="yes"/>
      <point x="317" y="702"/>
      <point x="302" y="698"/>
      <point x="297" y="686" type="curve" smooth="yes"/>
      <point x="-8" y="29" type="line" smooth="yes"/>
      <point x="-11" y="23"/>
      <point x="-13" y="18"/>
      <point x="-13" y="14" type="curve" smooth="yes"/>
      <point x="-13" y="3"/>
      <point x="0" y="-2"/>
    </contour>
    <contour>
      <point x="184" y="254" type="line"/>
      <point x="321" y="552" type="line" smooth="yes"/>
      <point x="329" y="570"/>
      <point x="336" y="591"/>
      <point x="342" y="610" type="curve"/>
      <point x="344" y="610" type="line"/>
      <point x="344" y="591"/>
      <point x="345" y="571"/>
      <point x="350" y="552" type="curve" smooth="yes"/>
      <point x="423" y="254" type="line"/>
    </contour>
  </outline>
</glyph>
<glyph name="B" format="2">
  <advance width="593"/>
  <unicode hex="0042"/>
  <anchor x="270" y="0" name="bottom"/>
  <anchor x="343" y="700" name="top"/>
  <outline>
    <contour>
      <point x="86" y="0" type="curve" smooth="yes"/>
      <point x="263" y="0" type="line" smooth="yes"/>
      <point x="442" y="0"/>
      <point x="549" y="67"/>
      <point x="549" y="219" type="curve" smooth="yes"/>
      <point x="549" y="336"/>
      <point x="422" y="367"/>
      <point x="422" y="367" type="curve"/>
      <point x="423" y="371" type="line"/>
      <point x="491" y="389"/>
      <point x="553" y="459"/>
      <point x="553" y="544" type="curve" smooth="yes"/>
      <point x="553" y="637"/>
      <point x="482" y="700"/>
      <point x="343" y="700" type="curve" smooth="yes"/>
      <point x="159" y="700" type="line" smooth="yes"/>
      <point x="138" y="700"/>
      <point x="128" y="691"/>
      <point x="126" y="670" type="curve" smooth="yes"/>
      <point x="59" y="24" type="line" smooth="yes"/>
      <point x="57" y="7"/>
      <point x="67" y="0"/>
    </contour>
    <contour>
      <point x="152" y="76" type="line"/>
      <point x="178" y="322" type="line"/>
      <point x="312" y="322" type="line" smooth="yes"/>
      <point x="408" y="322"/>
      <point x="458" y="284"/>
      <point x="458" y="220" type="curve" smooth="yes"/>
      <point x="458" y="132"/>
      <point x="406" y="76"/>
      <point x="303" y="76" type="curve" smooth="yes"/>
    </contour>
    <contour>
      <point x="186" y="398" type="line"/>
      <point x="209" y="624" type="line"/>
      <point x="326" y="624" type="line" smooth="yes"/>
      <point x="418" y="624"/>
      <point x="461" y="594"/>
      <point x="461" y="532" type="curve" smooth="yes"/>
      <point x="461" y="449"/>
      <point x="397" y="398"/>
      <point x="307" y="398" type="curve" smooth="yes"/>
    </contour>
  </outline>
</glyph>
<glyph name="C" format="2">
  <advance width="619"/>
  <unicode hex="0043"/>
  <anchor x="330" y="0" name="bottom"/>
  <anchor x="383" y="700" name="top"/>
  <outline>
    <contour>
      <point x="327" y="-6" type="curve" smooth="yes"/>
      <point x="401" y="-6"/>
      <point x="468" y="13"/>
      <point x="506" y="33" type="curve" smooth="yes"/>
      <point x="527" y="44"/>
      <point x="541" y="57"/>
      <point x="541" y="67" type="curve" smooth="yes"/>
      <point x="541" y="81"/>
      <point x="524" y="120"/>
      <point x="512" y="120" type="curve" smooth="yes"/>
      <point x="499" y="120"/>
      <point x="438" y="70"/>
      <point x="335" y="70" type="curve" smooth="yes"/>
      <point x="196" y="70"/>
      <point x="130" y="138"/>
      <point x="130" y="285" type="curve" smooth="yes"/>
      <point x="130" y="514"/>
      <point x="222" y="630"/>
      <point x="398" y="630" type="curve" smooth="yes"/>
      <point x="494" y="630"/>
      <point x="537" y="586"/>
      <point x="548" y="586" type="curve" smooth="yes"/>
      <point x="560" y="586"/>
      <point x="588" y="629"/>
      <point x="588" y="645" type="curve" smooth="yes"/>
      <point x="588" y="654"/>
      <point x="577" y="664"/>
      <point x="567" y="670" type="curve" smooth="yes"/>
      <point x="535" y="689"/>
      <point x="471" y="706"/>
      <point x="404" y="706" type="curve" smooth="yes"/>
      <point x="167" y="706"/>
      <point x="38" y="553"/>
      <point x="38" y="275" type="curve" smooth="yes"/>
      <point x="38" y="83"/>
      <point x="132" y="-6"/>
    </contour>
  </outline>
</glyph>
<glyph name="D" format="2">
  <advance width="695"/>
  <unicode hex="0044"/>
  <anchor x="291" y="0" name="bottom"/>
  <anchor x="348" y="350" name="center"/>
  <anchor x="348" y="700" name="top"/>
  <outline>
    <contour>
      <point x="87" y="0" type="curve" smooth="yes"/>
      <point x="302" y="0" type="line" smooth="yes"/>
      <point x="481" y="0"/>
      <point x="653" y="105"/>
      <point x="653" y="415" type="curve" smooth="yes"/>
      <point x="653" y="624"/>
      <point x="532" y="700"/>
      <point x="375" y="700" type="curve" smooth="yes"/>
      <point x="160" y="700" type="line" smooth="yes"/>
      <point x="139" y="700"/>
      <point x="129" y="691"/>
      <point x="127" y="670" type="curve" smooth="yes"/>
      <point x="60" y="24" type="line" smooth="yes"/>
      <point x="58" y="7"/>
      <point x="68" y="0"/>
    </contour>
    <contour>
      <point x="153" y="76" type="line"/>
      <point x="210" y="624" type="line"/>
      <point x="360" y="624" type="line" smooth="yes"/>
      <point x="474" y="624"/>
      <point x="562" y="567"/>
      <point x="562" y="401" type="curve" smooth="yes"/>
      <point x="562" y="163"/>
      <point x="433" y="76"/>
      <point x="303" y="76" type="curve" smooth="yes"/>
    </contour>
  </outline>
</glyph>
<glyph name="F" format="2">
  <advance width="503"/>
  <unicode hex="0046"/>
  <anchor x="91" y="-2" name="bottom"/>
  <anchor x="298" y="700" name="top"/>
  <outline>
    <contour>
      <point x="87" y="-2" type="curve" smooth="yes"/>
      <point x="95" y="-2" type="line" smooth="yes"/>
      <point x="120" y="-2"/>
      <point x="136" y="6"/>
      <point x="137" y="20" type="curve" smooth="yes"/>
      <point x="166" y="300" type="line"/>
      <point x="416" y="300" type="line" smooth="yes"/>
      <point x="430" y="300"/>
      <point x="440" y="309"/>
      <point x="442" y="333" type="curve" smooth="yes"/>
      <point x="443" y="348" type="line" smooth="yes"/>
      <point x="444" y="367"/>
      <point x="438" y="376"/>
      <point x="424" y="376" type="curve" smooth="yes"/>
      <point x="174" y="376" type="line"/>
      <point x="200" y="624" type="line"/>
      <point x="457" y="624" type="line" smooth="yes"/>
      <point x="471" y="624"/>
      <point x="481" y="633"/>
      <point x="483" y="657" type="curve" smooth="yes"/>
      <point x="484" y="672" type="line" smooth="yes"/>
      <point x="485" y="691"/>
      <point x="479" y="700"/>
      <point x="465" y="700" type="curve" smooth="yes"/>
      <point x="150" y="700" type="line" smooth="yes"/>
      <point x="129" y="700"/>
      <point x="119" y="691"/>
      <point x="117" y="670" type="curve" smooth="yes"/>
      <point x="49" y="20" type="line" smooth="yes"/>
      <point x="48" y="6"/>
      <point x="57" y="-2"/>
    </contour>
  </outline>
</glyph>
<glyph name="G" format="2">
  <advance width="672"/>
  <unicode hex="0047"/>
  <anchor x="336" y="0" name="bottom"/>
  <anchor x="396" y="700" name="top"/>
  <outline>
    <contour>
      <point x="328" y="-6" type="curve" smooth="yes"/>
      <point x="442" y="-6"/>
      <point x="553" y="10"/>
      <point x="559" y="66" type="curve" smooth="yes"/>
      <point x="587" y="334" type="line" smooth="yes"/>
      <point x="589" y="353"/>
      <point x="579" y="361"/>
      <point x="560" y="361" type="curve" smooth="yes"/>
      <point x="385" y="361" type="line" smooth="yes"/>
      <point x="371" y="361"/>
      <point x="361" y="352"/>
      <point x="359" y="328" type="curve" smooth="yes"/>
      <point x="358" y="313" type="line" smooth="yes"/>
      <point x="357" y="294"/>
      <point x="363" y="285"/>
      <point x="377" y="285" type="curve" smooth="yes"/>
      <point x="494" y="285" type="line"/>
      <point x="472" y="83" type="line"/>
      <point x="445" y="76"/>
      <point x="394" y="70"/>
      <point x="342" y="70" type="curve" smooth="yes"/>
      <point x="190" y="70"/>
      <point x="144" y="165"/>
      <point x="144" y="288" type="curve" smooth="yes"/>
      <point x="144" y="501"/>
      <point x="228" y="630"/>
      <point x="404" y="630" type="curve" smooth="yes"/>
      <point x="506" y="630"/>
      <point x="551" y="586"/>
      <point x="562" y="586" type="curve" smooth="yes"/>
      <point x="575" y="586"/>
      <point x="602" y="629"/>
      <point x="602" y="645" type="curve" smooth="yes"/>
      <point x="602" y="672"/>
      <point x="515" y="706"/>
      <point x="418" y="706" type="curve" smooth="yes"/>
      <point x="196" y="706"/>
      <point x="52" y="572"/>
      <point x="52" y="275" type="curve" smooth="yes"/>
      <point x="52" y="84"/>
      <point x="149" y="-6"/>
    </contour>
  </outline>
</glyph>
<glyph name="H" format="2">
  <advance width="733"/>
  <unicode hex="0048"/>
  <anchor x="340" y="2" name="bottom"/>
  <anchor x="394" y="522" name="center"/>
  <anchor x="412" y="700" name="top"/>
  <outline>
    <contour>
      <point x="111" y="-2" type="curve" smooth="yes"/>
      <point x="119" y="-2" type="line" smooth="yes"/>
      <point x="145" y="-2"/>
      <point x="160" y="6"/>
      <point x="161" y="20" type="curve" smooth="yes"/>
      <point x="192" y="321" type="line"/>
      <point x="554" y="321" type="line"/>
      <point x="523" y="20" type="line" smooth="yes"/>
      <point x="522" y="6"/>
      <point x="531" y="-2"/>
      <point x="561" y="-2" type="curve" smooth="yes"/>
      <point x="569" y="-2" type="line" smooth="yes"/>
      <point x="595" y="-2"/>
      <point x="610" y="6"/>
      <point x="611" y="20" type="curve" smooth="yes"/>
      <point x="680" y="680" type="line" smooth="yes"/>
      <point x="681" y="694"/>
      <point x="671" y="702"/>
      <point x="642" y="702" type="curve" smooth="yes"/>
      <point x="634" y="702" type="line" smooth="yes"/>
      <point x="605" y="702"/>
      <point x="593" y="694"/>
      <point x="592" y="680" type="curve" smooth="yes"/>
      <point x="562" y="397" type="line"/>
      <point x="200" y="397" type="line"/>
      <point x="230" y="680" type="line" smooth="yes"/>
      <point x="231" y="694"/>
      <point x="221" y="702"/>
      <point x="192" y="702" type="curve" smooth="yes"/>
      <point x="184" y="702" type="line" smooth="yes"/>
      <point x="156" y="702"/>
      <point x="143" y="694"/>
      <point x="142" y="680" type="curve" smooth="yes"/>
      <point x="73" y="20" type="line" smooth="yes"/>
      <point x="72" y="6"/>
      <point x="81" y="-2"/>
    </contour>
  </outline>
</glyph>
<glyph name="I" format="2">
  <advance width="283"/>
  <unicode hex="0049"/>
  <anchor x="101" y="0" name="bottom"/>
  <anchor x="158" y="0" name="ogonek"/>
  <anchor x="180" y="700" name="top"/>
  <outline>
    <contour>
      <point x="111" y="-2" type="curve" smooth="yes"/>
      <point x="119" y="-2" type="line" smooth="yes"/>
      <point x="145" y="-2"/>
      <point x="160" y="6"/>
      <point x="161" y="20" type="curve" smooth="yes"/>
      <point x="230" y="680" type="line"/>
      <point x="230" y="694"/>
      <point x="221" y="702"/>
      <point x="192" y="702" type="curve" smooth="yes"/>
      <point x="184" y="702" type="line" smooth="yes"/>
      <point x="156" y="702"/>
      <point x="143" y="694"/>
      <point x="142" y="680" type="curve" smooth="yes"/>
      <point x="74" y="21" type="line" smooth="yes"/>
      <point x="72" y="6"/>
      <point x="81" y="-2"/>
    </contour>
  </outline>
</glyph>
<glyph name="L" format="2">
  <advance width="484"/>
  <unicode hex="004C"/>
  <anchor x="242" y="0" name="bottom"/>
  <anchor x="366" y="335" name="center"/>
  <anchor x="168" y="702" name="top"/>
  <anchor x="356" y="700" name="topright"/>
  <outline>
    <contour>
      <point x="77" y="0" type="curve" smooth="yes"/>
      <point x="424" y="0" type="line" smooth="yes"/>
      <point x="438" y="0"/>
      <point x="448" y="9"/>
      <point x="450" y="33" type="curve" smooth="yes"/>
      <point x="451" y="48" type="line" smooth="yes"/>
      <point x="452" y="67"/>
      <point x="446" y="76"/>
      <point x="432" y="76" type="curve" smooth="yes"/>
      <point x="143" y="76" type="line"/>
      <point x="206" y="680" type="line" smooth="yes"/>
      <point x="207" y="694"/>
      <point x="197" y="702"/>
      <point x="168" y="702" type="curve" smooth="yes"/>
      <point x="160" y="702" type="line" smooth="yes"/>
      <point x="132" y="702"/>
      <point x="119" y="694"/>
      <point x="118" y="680" type="curve" smooth="yes"/>
      <point x="50" y="30" type="line" smooth="yes"/>
      <point x="48" y="9"/>
      <point x="55" y="0"/>
    </contour>
  </outline>
</glyph>
<glyph name="M" format="2">
  <advance width="843"/>
  <unicode hex="004D"/>
  <outline>
    <contour>
      <point x="103" y="-2" type="curve" smooth="yes"/>
      <point x="110" y="-2" type="line" smooth="yes"/>
      <point x="136" y="-2"/>
      <point x="151" y="6"/>
      <point x="152" y="20" type="curve" smooth="yes"/>
      <point x="201" y="492" type="line" smooth="yes"/>
      <point x="204" y="521"/>
      <point x="205" y="552"/>
      <point x="204" y="565" type="curve"/>
      <point x="208" y="567" type="line"/>
      <point x="215" y="550"/>
      <point x="226" y="526"/>
      <point x="233" y="513" type="curve" smooth="yes"/>
      <point x="375" y="210" type="line" smooth="yes"/>
      <point x="380" y="199"/>
      <point x="386" y="195"/>
      <point x="396" y="195" type="curve" smooth="yes"/>
      <point x="436" y="195" type="line" smooth="yes"/>
      <point x="447" y="195"/>
      <point x="454" y="199"/>
      <point x="460" y="208" type="curve" smooth="yes"/>
      <point x="670" y="518" type="line" smooth="yes"/>
      <point x="679" y="532"/>
      <point x="689" y="547"/>
      <point x="696" y="562" type="curve"/>
      <point x="699" y="561" type="line"/>
      <point x="697" y="545"/>
      <point x="694" y="525"/>
      <point x="692" y="509" type="curve" smooth="yes"/>
      <point x="641" y="20" type="line"/>
      <point x="641" y="6"/>
      <point x="649" y="-2"/>
      <point x="679" y="-2" type="curve" smooth="yes"/>
      <point x="686" y="-2" type="line" smooth="yes"/>
      <point x="712" y="-2"/>
      <point x="727" y="6"/>
      <point x="728" y="20" type="curve" smooth="yes"/>
      <point x="797" y="680" type="line"/>
      <point x="797" y="694"/>
      <point x="788" y="702"/>
      <point x="759" y="702" type="curve" smooth="yes"/>
      <point x="724" y="702" type="line" smooth="yes"/>
      <point x="700" y="702"/>
      <point x="688" y="695"/>
      <point x="681" y="684" type="curve" smooth="yes"/>
      <point x="457" y="350" type="line" smooth="yes"/>
      <point x="447" y="335"/>
      <point x="433" y="310"/>
      <point x="425" y="293" type="curve"/>
      <point x="421" y="314"/>
      <point x="412" y="341"/>
      <point x="405" y="356" type="curve" smooth="yes"/>
      <point x="251" y="684" type="line" smooth="yes"/>
      <point x="246" y="695"/>
      <point x="234" y="702"/>
      <point x="210" y="702" type="curve" smooth="yes"/>
      <point x="176" y="702" type="line" smooth="yes"/>
      <point x="148" y="702"/>
      <point x="135" y="694"/>
      <point x="134" y="680" type="curve" smooth="yes"/>
      <point x="65" y="20" type="line"/>
      <point x="65" y="6"/>
      <point x="73" y="-2"/>
    </contour>
  </outline>
</glyph>
<glyph name="O" format="2">
  <advance width="731"/>
  <unicode hex="004F"/>
  <anchor x="347" y="0" name="bottom"/>
  <anchor x="503" y="682" name="horn"/>
  <anchor x="404" y="0" name="ogonek"/>
  <anchor x="393" y="700" name="top"/>
  <outline>
    <contour>
      <point x="345" y="-6" type="curve" smooth="yes"/>
      <point x="560" y="-6"/>
      <point x="687" y="142"/>
      <point x="687" y="386" type="curve" smooth="yes"/>
      <point x="687" y="609"/>
      <point x="573" y="706"/>
      <point x="402" y="706" type="curve" smooth="yes"/>
      <point x="138" y="706"/>
      <point x="62" y="516"/>
      <point x="62" y="312" type="curve" smooth="yes"/>
      <point x="62" y="95"/>
      <point x="167" y="-6"/>
    </contour>
    <contour>
      <point x="352" y="70" type="curve" smooth="yes"/>
      <point x="229" y="70"/>
      <point x="153" y="147"/>
      <point x="153" y="324" type="curve" smooth="yes"/>
      <point x="153" y="515"/>
      <point x="233" y="630"/>
      <point x="394" y="630" type="curve" smooth="yes"/>
      <point x="518" y="630"/>
      <point x="595" y="555"/>
      <point x="595" y="379" type="curve" smooth="yes"/>
      <point x="595" y="187"/>
      <point x="504" y="70"/>
    </contour>
  </outline>
</glyph>
<glyph name="P" format="2">
  <advance width="570"/>
  <unicode hex="0050"/>
  <anchor x="92" y="-2" name="bottom"/>
  <anchor x="331" y="700" name="top"/>
  <outline>
    <contour>
      <point x="88" y="-2" type="curve" smooth="yes"/>
      <point x="96" y="-2" type="line" smooth="yes"/>
      <point x="125" y="-2"/>
      <point x="137" y="8"/>
      <point x="138" y="20" type="curve" smooth="yes"/>
      <point x="167" y="298" type="line"/>
      <point x="322" y="298" type="line" smooth="yes"/>
      <point x="471" y="298"/>
      <point x="559" y="386"/>
      <point x="559" y="519" type="curve" smooth="yes"/>
      <point x="559" y="639"/>
      <point x="487" y="700"/>
      <point x="334" y="700" type="curve" smooth="yes"/>
      <point x="151" y="700" type="line" smooth="yes"/>
      <point x="131" y="700"/>
      <point x="120" y="692"/>
      <point x="118" y="670" type="curve" smooth="yes"/>
      <point x="51" y="25" type="line" smooth="yes"/>
      <point x="49" y="6"/>
      <point x="58" y="-2"/>
    </contour>
    <contour>
      <point x="175" y="374" type="line"/>
      <point x="201" y="624" type="line"/>
      <point x="323" y="624" type="line" smooth="yes"/>
      <point x="422" y="624"/>
      <point x="467" y="585"/>
      <point x="467" y="508" type="curve" smooth="yes"/>
      <point x="467" y="428"/>
      <point x="418" y="374"/>
      <point x="331" y="374" type="curve" smooth="yes"/>
    </contour>
  </outline>
</glyph>
<glyph name="R" format="2">
  <advance width="610"/>
  <unicode hex="0052"/>
  <anchor x="300" y="0" name="bottom"/>
  <anchor x="305" y="700" name="top"/>
  <outline>
    <contour>
      <point x="105" y="-2" type="curve" smooth="yes"/>
      <point x="113" y="-2" type="line" smooth="yes"/>
      <point x="138" y="-2"/>
      <point x="154" y="6"/>
      <point x="155" y="20" type="curve" smooth="yes"/>
      <point x="185" y="308" type="line"/>
      <point x="275" y="308" type="line" smooth="yes"/>
      <point x="362" y="308"/>
      <point x="392" y="286"/>
      <point x="414" y="210" type="curve" smooth="yes"/>
      <point x="469" y="14" type="line" smooth="yes"/>
      <point x="472" y="2"/>
      <point x="488" y="-2"/>
      <point x="508" y="-2" type="curve" smooth="yes"/>
      <point x="518" y="-2" type="line" smooth="yes"/>
      <point x="551" y="-2"/>
      <point x="562" y="5"/>
      <point x="562" y="17" type="curve" smooth="yes"/>
      <point x="562" y="20"/>
      <point x="561" y="24"/>
      <point x="560" y="28" type="curve" smooth="yes"/>
      <point x="489" y="260" type="line" smooth="yes"/>
      <point x="477" y="299"/>
      <point x="451" y="329"/>
      <point x="423" y="339" type="curve"/>
      <point x="423" y="343" type="line"/>
      <point x="504" y="364"/>
      <point x="556" y="427"/>
      <point x="556" y="519" type="curve" smooth="yes"/>
      <point x="556" y="639"/>
      <point x="484" y="700"/>
      <point x="331" y="700" type="curve" smooth="yes"/>
      <point x="168" y="700" type="line" smooth="yes"/>
      <point x="147" y="700"/>
      <point x="137" y="691"/>
      <point x="135" y="670" type="curve" smooth="yes"/>
      <point x="68" y="24" type="line" smooth="yes"/>
      <point x="66" y="6"/>
      <point x="75" y="-2"/>
    </contour>
    <contour>
      <point x="193" y="384" type="line"/>
      <point x="218" y="624" type="line"/>
      <point x="320" y="624" type="line" smooth="yes"/>
      <point x="420" y="624"/>
      <point x="464" y="589"/>
      <point x="464" y="508" type="curve" smooth="yes"/>
      <point x="464" y="434"/>
      <point x="415" y="384"/>
      <point x="325" y="384" type="curve" smooth="yes"/>
    </contour>
  </outline>
</glyph>
<glyph name="S" format="2">
  <advance width="500"/>
  <unicode hex="0053"/>
  <anchor x="233" y="0" name="bottom"/>
  <anchor x="296" y="700" name="top"/>
  <outline>
    <contour>
      <point x="206" y="-6" type="curve" smooth="yes"/>
      <point x="349" y="-6"/>
      <point x="450" y="79"/>
      <point x="450" y="215" type="curve" smooth="yes"/>
      <point x="450" y="329"/>
      <point x="362" y="366"/>
      <point x="283" y="398" type="curve" smooth="yes"/>
      <point x="217" y="423"/>
      <point x="157" y="445"/>
      <point x="157" y="511" type="curve" smooth="yes"/>
      <point x="157" y="591"/>
      <point x="224" y="630"/>
      <point x="299" y="630" type="curve" smooth="yes"/>
      <point x="344" y="630"/>
      <point x="374" y="618"/>
      <point x="394" y="607" type="curve" smooth="yes"/>
      <point x="410" y="599"/>
      <point x="419" y="592"/>
      <point x="426" y="592" type="curve" smooth="yes"/>
      <point x="442" y="592"/>
      <point x="464" y="633"/>
      <point x="464" y="646" type="curve" smooth="yes"/>
      <point x="464" y="656"/>
      <point x="456" y="666"/>
      <point x="443" y="674" type="curve" smooth="yes"/>
      <point x="411" y="694"/>
      <point x="349" y="706"/>
      <point x="309" y="706" type="curve" smooth="yes"/>
      <point x="165" y="706"/>
      <point x="67" y="622"/>
      <point x="67" y="501" type="curve" smooth="yes"/>
      <point x="67" y="387"/>
      <point x="150" y="353"/>
      <point x="227" y="322" type="curve" smooth="yes"/>
      <point x="295" y="294"/>
      <point x="359" y="269"/>
      <point x="359" y="201" type="curve" smooth="yes"/>
      <point x="359" y="123"/>
      <point x="293" y="70"/>
      <point x="214" y="70" type="curve" smooth="yes"/>
      <point x="156" y="70"/>
      <point x="113" y="86"/>
      <point x="85" y="97" type="curve" smooth="yes"/>
      <point x="69" y="104"/>
      <point x="58" y="109"/>
      <point x="52" y="109" type="curve" smooth="yes"/>
      <point x="42" y="109"/>
      <point x="36" y="106"/>
      <point x="36" y="76" type="curve" smooth="yes"/>
      <point x="36" y="42"/>
      <point x="46" y="31"/>
      <point x="63" y="22" type="curve" smooth="yes"/>
      <point x="102" y="1"/>
      <point x="173" y="-6"/>
    </contour>
  </outline>
</glyph>
<glyph name="T" format="2">
  <advance width="549"/>
  <unicode hex="0054"/>
  <anchor x="247" y="0" name="bottom"/>
  <anchor x="287" y="350" name="center"/>
  <anchor x="321" y="700" name="top"/>
  <outline>
    <contour>
      <point x="246" y="-2" type="curve" smooth="yes"/>
      <point x="254" y="-2" type="line" smooth="yes"/>
      <point x="279" y="-2"/>
      <point x="295" y="6"/>
      <point x="296" y="20" type="curve" smooth="yes"/>
      <point x="359" y="624" type="line"/>
      <point x="547" y="624" type="line" smooth="yes"/>
      <point x="561" y="624"/>
      <point x="571" y="633"/>
      <point x="573" y="657" type="curve" smooth="yes"/>
      <point x="574" y="672" type="line" smooth="yes"/>
      <point x="575" y="691"/>
      <point x="569" y="700"/>
      <point x="555" y="700" type="curve" smooth="yes"/>
      <point x="87" y="700" type="line" smooth="yes"/>
      <point x="73" y="700"/>
      <point x="63" y="691"/>
      <point x="61" y="667" type="curve" smooth="yes"/>
      <point x="60" y="652" type="line" smooth="yes"/>
      <point x="59" y="633"/>
      <point x="65" y="624"/>
      <point x="79" y="624" type="curve" smooth="yes"/>
      <point x="271" y="624" type="line"/>
      <point x="209" y="22" type="line" smooth="yes"/>
      <point x="207" y="6"/>
      <point x="216" y="-2"/>
    </contour>
  </outline>
</glyph>
<glyph name="U" format="2">
  <advance width="712"/>
  <unicode hex="0055"/>
  <anchor x="330" y="0" name="bottom"/>
  <anchor x="381" y="0" name="ogonek"/>
  <anchor x="404" y="700" name="top"/>
  <anchor x="629" y="702" name="topright"/>
  <outline>
    <contour>
      <point x="329" y="-6" type="curve" smooth="yes"/>
      <point x="505" y="-6"/>
      <point x="611" y="80"/>
      <point x="626" y="224" type="curve" smooth="yes"/>
      <point x="674" y="680" type="line" smooth="yes"/>
      <point x="675" y="694"/>
      <point x="666" y="702"/>
      <point x="637" y="702" type="curve" smooth="yes"/>
      <point x="629" y="702" type="line" smooth="yes"/>
      <point x="601" y="702"/>
      <point x="587" y="694"/>
      <point x="586" y="680" type="curve" smooth="yes"/>
      <point x="538" y="221" type="line" smooth="yes"/>
      <point x="528" y="126"/>
      <point x="454" y="70"/>
      <point x="337" y="70" type="curve" smooth="yes"/>
      <point x="210" y="70"/>
      <point x="159" y="125"/>
      <point x="167" y="206" type="curve" smooth="yes"/>
      <point x="216" y="680" type="line" smooth="yes"/>
      <point x="217" y="694"/>
      <point x="208" y="702"/>
      <point x="179" y="702" type="curve" smooth="yes"/>
      <point x="171" y="702" type="line" smooth="yes"/>
      <point x="143" y="702"/>
      <point x="129" y="694"/>
      <point x="128" y="680" type="curve" smooth="yes"/>
      <point x="80" y="213" type="line" smooth="yes"/>
      <point x="65" y="69"/>
      <point x="155" y="-6"/>
    </contour>
  </outline>
</glyph>
<glyph name="V" format="2">
  <advance width="617"/>
  <unicode hex="0056"/>
  <outline>
    <contour>
      <point x="266" y="-2" type="curve" smooth="yes"/>
      <point x="297" y="-2" type="line" smooth="yes"/>
      <point x="317" y="-2"/>
      <point x="333" y="2"/>
      <point x="338" y="14" type="curve" smooth="yes"/>
      <point x="636" y="671" type="line" smooth="yes"/>
      <point x="639" y="677"/>
      <point x="641" y="682"/>
      <point x="641" y="686" type="curve" smooth="yes"/>
      <point x="641" y="696"/>
      <point x="628" y="702"/>
      <point x="599" y="702" type="curve" smooth="yes"/>
      <point x="593" y="702" type="line" smooth="yes"/>
      <point x="573" y="702"/>
      <point x="557" y="698"/>
      <point x="552" y="686" type="curve" smooth="yes"/>
      <point x="325" y="183" type="line" smooth="yes"/>
      <point x="316" y="163"/>
      <point x="303" y="127"/>
      <point x="295" y="100" type="curve"/>
      <point x="292" y="100" type="line"/>
      <point x="288" y="133"/>
      <point x="282" y="171"/>
      <point x="278" y="189" type="curve" smooth="yes"/>
      <point x="158" y="686" type="line" smooth="yes"/>
      <point x="155" y="698"/>
      <point x="139" y="702"/>
      <point x="119" y="702" type="curve" smooth="yes"/>
      <point x="108" y="702" type="line" smooth="yes"/>
      <point x="74" y="702"/>
      <point x="60" y="693"/>
      <point x="63" y="679" type="curve" smooth="yes"/>
      <point x="227" y="16" type="line" smooth="yes"/>
      <point x="230" y="2"/>
      <point x="246" y="-2"/>
    </contour>
  </outline>
</glyph>
<glyph name="W" format="2">
  <advance width="882"/>
  <unicode hex="0057"/>
  <anchor x="481" y="700" name="top"/>
  <outline>
    <contour>
      <point x="203" y="-2" type="curve" smooth="yes"/>
      <point x="244" y="-2" type="line" smooth="yes"/>
      <point x="262" y="-2"/>
      <point x="280" y="2"/>
      <point x="285" y="14" type="curve" smooth="yes"/>
      <point x="420" y="376" type="line" smooth="yes"/>
      <point x="446" y="447"/>
      <point x="461" y="503"/>
      <point x="471" y="551" type="curve"/>
      <point x="475" y="551" type="line"/>
      <point x="472" y="505"/>
      <point x="479" y="411"/>
      <point x="492" y="331" type="curve" smooth="yes"/>
      <point x="544" y="14" type="line" smooth="yes"/>
      <point x="546" y="2"/>
      <point x="563" y="-2"/>
      <point x="583" y="-2" type="curve" smooth="yes"/>
      <point x="624" y="-2" type="line" smooth="yes"/>
      <point x="644" y="-2"/>
      <point x="661" y="2"/>
      <point x="665" y="14" type="curve" smooth="yes"/>
      <point x="909" y="679" type="line" smooth="yes"/>
      <point x="915" y="695"/>
      <point x="899" y="702"/>
      <point x="870" y="702" type="curve" smooth="yes"/>
      <point x="864" y="702" type="line" smooth="yes"/>
      <point x="844" y="702"/>
      <point x="827" y="698"/>
      <point x="823" y="686" type="curve" smooth="yes"/>
      <point x="651" y="201" type="line" smooth="yes"/>
      <point x="643" y="178"/>
      <point x="629" y="135"/>
      <point x="620" y="101" type="curve"/>
      <point x="616" y="101" type="line"/>
      <point x="616" y="129"/>
      <point x="613" y="168"/>
      <point x="602" y="243" type="curve" smooth="yes"/>
      <point x="537" y="685" type="line" smooth="yes"/>
      <point x="535" y="698"/>
      <point x="519" y="702"/>
      <point x="499" y="702" type="curve" smooth="yes"/>
      <point x="483" y="702" type="line" smooth="yes"/>
      <point x="458" y="702"/>
      <point x="448" y="698"/>
      <point x="443" y="685" type="curve" smooth="yes"/>
      <point x="271" y="199" type="line" smooth="yes"/>
      <point x="261" y="172"/>
      <point x="248" y="130"/>
      <point x="240" y="101" type="curve"/>
      <point x="236" y="101" type="line"/>
      <point x="235" y="132"/>
      <point x="232" y="172"/>
      <point x="221" y="244" type="curve" smooth="yes"/>
      <point x="152" y="686" type="line" smooth="yes"/>
      <point x="150" y="698"/>
      <point x="133" y="702"/>
      <point x="113" y="702" type="curve" smooth="yes"/>
      <point x="104" y="702" type="line" smooth="yes"/>
      <point x="81" y="702"/>
      <point x="56" y="700"/>
      <point x="59" y="682" type="curve" smooth="yes"/>
      <point x="164" y="14" type="line" smooth="yes"/>
      <point x="166" y="2"/>
      <point x="183" y="-2"/>
    </contour>
  </outline>
</glyph>
<glyph name="X" format="2">
  <advance width="611"/>
  <unicode hex="0058"/>
  <outline>
    <contour>
      <point x="33" y="-2" type="curve" smooth="yes"/>
      <point x="46" y="-2" type="line" smooth="yes"/>
      <point x="64" y="-2"/>
      <point x="82" y="1"/>
      <point x="100" y="24" type="curve" smooth="yes"/>
      <point x="310" y="295" type="line"/>
      <point x="460" y="13" type="line" smooth="yes"/>
      <point x="467" y="1"/>
      <point x="481" y="-2"/>
      <point x="502" y="-2" type="curve" smooth="yes"/>
      <point x="513" y="-2" type="line" smooth="yes"/>
      <point x="549" y="-2"/>
      <point x="555" y="5"/>
      <point x="555" y="17" type="curve" smooth="yes"/>
      <point x="555" y="21"/>
      <point x="552" y="27"/>
      <point x="549" y="33" type="curve"/>
      <point x="366" y="368" type="line"/>
      <point x="601" y="667" type="line"/>
      <point x="606" y="674"/>
      <point x="611" y="681"/>
      <point x="611" y="686" type="curve" smooth="yes"/>
      <point x="611" y="697"/>
      <point x="598" y="702"/>
      <point x="566" y="702" type="curve" smooth="yes"/>
      <point x="560" y="702" type="line" smooth="yes"/>
      <point x="542" y="702"/>
      <point x="524" y="699"/>
      <point x="516" y="688" type="curve" smooth="yes"/>
      <point x="324" y="439" type="line"/>
      <point x="191" y="687" type="line" smooth="yes"/>
      <point x="184" y="699"/>
      <point x="170" y="702"/>
      <point x="149" y="702" type="curve" smooth="yes"/>
      <point x="140" y="702" type="line" smooth="yes"/>
      <point x="104" y="702"/>
      <point x="98" y="695"/>
      <point x="98" y="683" type="curve" smooth="yes"/>
      <point x="98" y="678"/>
      <point x="101" y="673"/>
      <point x="104" y="667" type="curve" smooth="yes"/>
      <point x="267" y="368" type="line"/>
      <point x="4" y="33" type="line"/>
      <point x="-2" y="26"/>
      <point x="-6" y="19"/>
      <point x="-6" y="14" type="curve" smooth="yes"/>
      <point x="-6" y="3"/>
      <point x="2" y="-2"/>
    </contour>
  </outline>
</glyph>
<glyph name="Y" format="2">
  <advance width="559"/>
  <unicode hex="0059"/>
  <anchor x="253" y="0" name="bottom"/>
  <anchor x="327" y="700" name="top"/>
  <outline>
    <contour>
      <point x="248" y="-2" type="curve" smooth="yes"/>
      <point x="256" y="-2" type="line" smooth="yes"/>
      <point x="282" y="-2"/>
      <point x="297" y="6"/>
      <point x="298" y="20" type="curve" smooth="yes"/>
      <point x="333" y="356" type="line"/>
      <point x="576" y="667" type="line" smooth="yes"/>
      <point x="581" y="674"/>
      <point x="586" y="681"/>
      <point x="586" y="686" type="curve" smooth="yes"/>
      <point x="586" y="696"/>
      <point x="575" y="701"/>
      <point x="550" y="702" type="curve"/>
      <point x="539" y="702" type="line"/>
      <point x="519" y="702"/>
      <point x="501" y="699"/>
      <point x="493" y="688" type="curve" smooth="yes"/>
      <point x="299" y="441" type="line"/>
      <point x="161" y="687" type="line" smooth="yes"/>
      <point x="154" y="699"/>
      <point x="140" y="702"/>
      <point x="119" y="702" type="curve" smooth="yes"/>
      <point x="110" y="702" type="line" smooth="yes"/>
      <point x="74" y="702"/>
      <point x="63" y="695"/>
      <point x="63" y="683" type="curve" smooth="yes"/>
      <point x="63" y="678"/>
      <point x="65" y="673"/>
      <point x="69" y="667" type="curve" smooth="yes"/>
      <point x="245" y="359" type="line"/>
      <point x="210" y="20" type="line"/>
      <point x="210" y="6"/>
      <point x="218" y="-2"/>
    </contour>
  </outline>
</glyph>
<glyph name="Z" format="2">
  <advance width="616"/>
  <unicode hex="005A"/>
  <anchor x="297" y="0" name="bottom"/>
  <anchor x="356" y="700" name="top"/>
  <outline>
    <contour>
      <point x="41" y="0" type="curve" smooth="yes"/>
      <point x="523" y="0" type="line" smooth="yes"/>
      <point x="537" y="0"/>
      <point x="546" y="9"/>
      <point x="549" y="33" type="curve" smooth="yes"/>
      <point x="551" y="48" type="line" smooth="yes"/>
      <point x="554" y="67"/>
      <point x="545" y="76"/>
      <point x="531" y="76" type="curve" smooth="yes"/>
      <point x="141" y="76" type="line"/>
      <point x="609" y="635" type="line" smooth="yes"/>
      <point x="613" y="640"/>
      <point x="614" y="645"/>
      <point x="614" y="652" type="curve" smooth="yes"/>
      <point x="614" y="673"/>
      <point x="608" y="700"/>
      <point x="591" y="700" type="curve" smooth="yes"/>
      <point x="140" y="700" type="line" smooth="yes"/>
      <point x="126" y="700"/>
      <point x="117" y="695"/>
      <point x="114" y="671" type="curve" smooth="yes"/>
      <point x="112" y="654" type="line" smooth="yes"/>
      <point x="110" y="635"/>
      <point x="118" y="624"/>
      <point x="132" y="624" type="curve" smooth="yes"/>
      <point x="491" y="624" type="line"/>
      <point x="26" y="69" type="line" smooth="yes"/>
      <point x="20" y="62"/>
      <point x="18" y="53"/>
      <point x="18" y="47" type="curve" smooth="yes"/>
      <point x="18" y="27"/>
      <point x="25" y="0"/>
    </contour>
  </outline>
</glyph>
<glyph name="bracketleft" format="2">
  <advance width="291"/>
  <unicode hex="005B"/>
  <outline>
    <contour>
      <point x="72" y="-138" type="curve" smooth="yes"/>
      <point x="192" y="-138" type="line" smooth="yes"/>
      <point x="204" y="-138"/>
      <point x="215" y="-133"/>
      <point x="217" y="-112" type="curve" smooth="yes"/>
      <point x="218" y="-98" type="line" smooth="yes"/>
      <point x="219" y="-79"/>
      <point x="205" y="-76"/>
      <point x="193" y="-76" type="curve" smooth="yes"/>
      <point x="122" y="-76" type="line"/>
      <point x="204" y="706" type="line"/>
      <point x="275" y="706" type="line" smooth="yes"/>
      <point x="295" y="706"/>
      <point x="303" y="711"/>
      <point x="305" y="732" type="curve" smooth="yes"/>
      <point x="306" y="743" type="line" smooth="yes"/>
      <point x="308" y="765"/>
      <point x="299" y="768"/>
      <point x="282" y="768" type="curve" smooth="yes"/>
      <point x="167" y="768" type="line" smooth="yes"/>
      <point x="146" y="768"/>
      <point x="136" y="759"/>
      <point x="134" y="738" type="curve" smooth="yes"/>
      <point x="45" y="-106" type="line" smooth="yes"/>
      <point x="43" y="-129"/>
      <point x="50" y="-138"/>
    </contour>
  </outline>
</glyph>
<glyph name="backslash" format="2">
  <advance width="422"/>
  <unicode hex="005C"/>
  <outline>
    <contour>
      <point x="331" y="-79" type="curve" smooth="yes"/>
      <point x="336" y="-79" type="line" smooth="yes"/>
      <point x="356" y="-79"/>
      <point x="361" y="-75"/>
      <point x="361" y="-69" type="curve" smooth="yes"/>
      <point x="361" y="-67"/>
      <point x="360" y="-63"/>
      <point x="359" y="-59" type="curve" smooth="yes"/>
      <point x="134" y="687" type="line" smooth="yes"/>
      <point x="131" y="698"/>
      <point x="125" y="702"/>
      <point x="104" y="702" type="curve" smooth="yes"/>
      <point x="98" y="702" type="line" smooth="yes"/>
      <point x="77" y="702"/>
      <point x="71" y="698"/>
      <point x="71" y="692" type="curve" smooth="yes"/>
      <point x="71" y="689"/>
      <point x="74" y="682"/>
      <point x="76" y="674" type="curve" smooth="yes"/>
      <point x="296" y="-59" type="line" smooth="yes"/>
      <point x="300" y="-72"/>
      <point x="309" y="-79"/>
    </contour>
  </outline>
</glyph>
<glyph name="bracketright" format="2">
  <advance width="291"/>
  <unicode hex="005D"/>
  <outline>
    <contour>
      <point x="8" y="-138" type="curve" smooth="yes"/>
      <point x="123" y="-138" type="line" smooth="yes"/>
      <point x="144" y="-138"/>
      <point x="154" y="-129"/>
      <point x="156" y="-108" type="curve" smooth="yes"/>
      <point x="245" y="736" type="line" smooth="yes"/>
      <point x="247" y="759"/>
      <point x="240" y="768"/>
      <point x="218" y="768" type="curve" smooth="yes"/>
      <point x="98" y="768" type="line" smooth="yes"/>
      <point x="86" y="768"/>
      <point x="75" y="763"/>
      <point x="73" y="742" type="curve" smooth="yes"/>
      <point x="72" y="728" type="line" smooth="yes"/>
      <point x="71" y="709"/>
      <point x="85" y="706"/>
      <point x="97" y="706" type="curve" smooth="yes"/>
      <point x="168" y="706" type="line"/>
      <point x="86" y="-76" type="line"/>
      <point x="15" y="-76" type="line" smooth="yes"/>
      <point x="-5" y="-76"/>
      <point x="-13" y="-81"/>
      <point x="-15" y="-102" type="curve" smooth="yes"/>
      <point x="-16" y="-113" type="line" smooth="yes"/>
      <point x="-18" y="-135"/>
      <point x="-9" y="-138"/>
    </contour>
  </outline>
</glyph>
<glyph name="underscore" format="2">
  <advance width="534"/>
  <unicode hex="005F"/>
  <outline>
    <contour>
      <point x="-42" y="-138" type="curve" smooth="yes"/>
      <point x="492" y="-138" type="line" smooth="yes"/>
      <point x="504" y="-138"/>
      <point x="513" y="-134"/>
      <point x="514" y="-120" type="curve" smooth="yes"/>
      <point x="515" y="-107" type="line" smooth="yes"/>
      <point x="516" y="-93"/>
      <point x="511" y="-90"/>
      <point x="497" y="-90" type="curve" smooth="yes"/>
      <point x="-39" y="-90" type="line" smooth="yes"/>
      <point x="-50" y="-90"/>
      <point x="-58" y="-94"/>
      <point x="-59" y="-106" type="curve" smooth="yes"/>
      <point x="-60" y="-118" type="line" smooth="yes"/>
      <point x="-61" y="-132"/>
      <point x="-56" y="-138"/>
    </contour>
  </outline>
</glyph>
<glyph name="grave" format="2">
  <advance width="161"/>
  <unicode hex="0060"/>
  <outline>
    <contour>
      <point x="172" y="576" type="curve" smooth="yes"/>
      <point x="186" y="576"/>
      <point x="195" y="581"/>
      <point x="195" y="590" type="curve" smooth="yes"/>
      <point x="195" y="596"/>
      <point x="192" y="604"/>
      <point x="187" y="616" type="curve" smooth="yes"/>
      <point x="155" y="692" type="line" smooth="yes"/>
      <point x="148" y="709"/>
      <point x="137" y="718"/>
      <point x="96" y="718" type="curve" smooth="yes"/>
      <point x="62" y="718"/>
      <point x="46" y="713"/>
      <point x="46" y="700" type="curve" smooth="yes"/>
      <point x="46" y="691"/>
      <point x="53" y="681"/>
      <point x="69" y="660" type="curve" smooth="yes"/>
      <point x="116" y="600" type="line" smooth="yes"/>
      <point x="133" y="579"/>
      <point x="144" y="576"/>
    </contour>
  </outline>
</glyph>
<glyph name="a" format="2">
  <advance width="545"/>
  <unicode hex="0061"/>
  <anchor x="231" y="0" name="bottom"/>
  <anchor x="501" y="0" name="ogonek"/>
  <anchor x="298" y="523" name="top"/>
  <outline>
    <contour>
      <point x="207" y="-6" type="curve" smooth="yes"/>
      <point x="265" y="-6"/>
      <point x="322" y="24"/>
      <point x="363" y="102" type="curve"/>
      <point x="361" y="32"/>
      <point x="387" y="-6"/>
      <point x="453" y="-6" type="curve" smooth="yes"/>
      <point x="471" y="-6"/>
      <point x="508" y="2"/>
      <point x="513" y="27" type="curve" smooth="yes"/>
      <point x="517" y="49"/>
      <point x="517" y="62"/>
      <point x="517" y="63" type="curve" smooth="yes"/>
      <point x="517" y="69"/>
      <point x="514" y="71"/>
      <point x="511" y="71" type="curve" smooth="yes"/>
      <point x="505" y="71"/>
      <point x="493" y="64"/>
      <point x="474" y="64" type="curve" smooth="yes"/>
      <point x="454" y="64"/>
      <point x="445" y="79"/>
      <point x="448" y="107" type="curve" smooth="yes"/>
      <point x="487" y="494" type="line" smooth="yes"/>
      <point x="489" y="517"/>
      <point x="483" y="525"/>
      <point x="463" y="525" type="curve" smooth="yes"/>
      <point x="457" y="525" type="line" smooth="yes"/>
      <point x="429" y="525"/>
      <point x="422" y="504"/>
      <point x="412" y="475" type="curve"/>
      <point x="390" y="496"/>
      <point x="347" y="529"/>
      <point x="285" y="529" type="curve" smooth="yes"/>
      <point x="136" y="529"/>
      <point x="40" y="396"/>
      <point x="40" y="210" type="curve" smooth="yes"/>
      <point x="40" y="36"/>
      <point x="142" y="-6"/>
    </contour>
    <contour>
      <point x="226" y="67" type="curve" smooth="yes"/>
      <point x="172" y="67"/>
      <point x="127" y="102"/>
      <point x="127" y="216" type="curve" smooth="yes"/>
      <point x="127" y="336"/>
      <point x="177" y="456"/>
      <point x="281" y="456" type="curve" smooth="yes"/>
      <point x="341" y="456"/>
      <point x="378" y="432"/>
      <point x="397" y="417" type="curve"/>
      <point x="394" y="401"/>
      <point x="392" y="385"/>
      <point x="390" y="367" type="curve" smooth="yes"/>
      <point x="375" y="236" type="line"/>
      <point x="334" y="104"/>
      <point x="270" y="67"/>
    </contour>
  </outline>
</glyph>
<glyph name="c" format="2">
  <advance width="485"/>
  <unicode hex="0063"/>
  <anchor x="266" y="0" name="bottom"/>
  <anchor x="310" y="523" name="top"/>
  <outline>
    <contour>
      <point x="268" y="-6" type="curve" smooth="yes"/>
      <point x="344" y="-6"/>
      <point x="420" y="22"/>
      <point x="420" y="47" type="curve" smooth="yes"/>
      <point x="420" y="62"/>
      <point x="405" y="96"/>
      <point x="392" y="96" type="curve" smooth="yes"/>
      <point x="391" y="96"/>
      <point x="386" y="94"/>
      <point x="380" y="92" type="curve"/>
      <point x="361" y="83"/>
      <point x="320" y="66"/>
      <point x="274" y="66" type="curve" smooth="yes"/>
      <point x="177" y="66"/>
      <point x="137" y="111"/>
      <point x="137" y="212" type="curve" smooth="yes"/>
      <point x="137" y="371"/>
      <point x="197" y="457"/>
      <point x="306" y="457" type="curve" smooth="yes"/>
      <point x="357" y="457"/>
      <point x="391" y="441"/>
      <point x="407" y="433" type="curve" smooth="yes"/>
      <point x="411" y="431"/>
      <point x="416" y="429"/>
      <point x="418" y="429" type="curve" smooth="yes"/>
      <point x="429" y="429"/>
      <point x="455" y="468"/>
      <point x="455" y="484" type="curve" smooth="yes"/>
      <point x="455" y="508"/>
      <point x="386" y="529"/>
      <point x="315" y="529" type="curve" smooth="yes"/>
      <point x="146" y="529"/>
      <point x="47" y="410"/>
      <point x="47" y="206" type="curve" smooth="yes"/>
      <point x="47" y="56"/>
      <point x="123" y="-6"/>
    </contour>
  </outline>
</glyph>
<glyph name="g" format="2">
  <advance width="546"/>
  <unicode hex="0067"/>
  <anchor x="300" y="523" name="top"/>
  <outline>
    <contour>
      <point x="213" y="-212" type="curve" smooth="yes"/>
      <point x="356" y="-212"/>
      <point x="432" y="-140"/>
      <point x="457" y="99" type="curve" smooth="yes"/>
      <point x="500" y="504" type="line"/>
      <point x="500" y="517"/>
      <point x="495" y="525"/>
      <point x="475" y="525" type="curve" smooth="yes"/>
      <point x="469" y="525" type="line" smooth="yes"/>
      <point x="441" y="525"/>
      <point x="434" y="504"/>
      <point x="424" y="475" type="curve"/>
      <point x="401" y="496"/>
      <point x="356" y="529"/>
      <point x="292" y="529" type="curve" smooth="yes"/>
      <point x="140" y="529"/>
      <point x="42" y="396"/>
      <point x="42" y="210" type="curve" smooth="yes"/>
      <point x="42" y="41"/>
      <point x="147" y="0"/>
      <point x="214" y="0" type="curve" smooth="yes"/>
      <point x="282" y="0"/>
      <point x="348" y="38"/>
      <point x="390" y="140" type="curve"/>
      <point x="378" y="152" type="line"/>
      <point x="376" y="120" type="line"/>
      <point x="363" y="-68"/>
      <point x="312" y="-140"/>
      <point x="213" y="-140" type="curve" smooth="yes"/>
      <point x="109" y="-140"/>
      <point x="67" y="-86"/>
      <point x="55" y="-86" type="curve" smooth="yes"/>
      <point x="50" y="-86"/>
      <point x="41" y="-92"/>
      <point x="41" y="-141" type="curve" smooth="yes"/>
      <point x="41" y="-171"/>
      <point x="111" y="-212"/>
    </contour>
    <contour>
      <point x="233" y="73" type="curve" smooth="yes"/>
      <point x="176" y="73"/>
      <point x="129" y="107"/>
      <point x="129" y="216" type="curve" smooth="yes"/>
      <point x="129" y="336"/>
      <point x="163" y="456"/>
      <point x="300" y="456" type="curve" smooth="yes"/>
      <point x="352" y="456"/>
      <point x="389" y="432"/>
      <point x="409" y="417" type="curve"/>
      <point x="406" y="401"/>
      <point x="403" y="385"/>
      <point x="401" y="367" type="curve"/>
      <point x="388" y="244" type="line"/>
      <point x="346" y="110"/>
      <point x="278" y="73"/>
    </contour>
  </outline>
</glyph>
<glyph name="h" format="2">
  <advance width="565"/>
  <unicode hex="0068"/>
  <anchor x="271" y="0" name="bottom"/>
  <anchor x="165" y="630" name="center"/>
  <anchor x="173" y="725" name="top"/>
  <outline>
    <contour>
      <point x="464" y="-6" type="curve" smooth="yes"/>
      <point x="482" y="-6"/>
      <point x="519" y="2"/>
      <point x="524" y="27" type="curve" smooth="yes"/>
      <point x="528" y="49"/>
      <point x="528" y="62"/>
      <point x="528" y="63" type="curve" smooth="yes"/>
      <point x="528" y="69"/>
      <point x="525" y="71"/>
      <point x="522" y="71" type="curve" smooth="yes"/>
      <point x="516" y="71"/>
      <point x="504" y="64"/>
      <point x="485" y="64" type="curve" smooth="yes"/>
      <point x="465" y="64"/>
      <point x="456" y="79"/>
      <point x="459" y="107" type="curve" smooth="yes"/>
      <point x="486" y="379" type="line" smooth="yes"/>
      <point x="495" y="473"/>
      <point x="453" y="529"/>
      <point x="356" y="529" type="curve" smooth="yes"/>
      <point x="296" y="529"/>
      <point x="234" y="503"/>
      <point x="181" y="432" type="curve"/>
      <point x="213" y="730" type="line" smooth="yes"/>
      <point x="215" y="745"/>
      <point x="203" y="752"/>
      <point x="175" y="752" type="curve" smooth="yes"/>
      <point x="171" y="752" type="line" smooth="yes"/>
      <point x="145" y="752"/>
      <point x="131" y="746"/>
      <point x="129" y="730" type="curve" smooth="yes"/>
      <point x="54" y="19" type="line" smooth="yes"/>
      <point x="53" y="7"/>
      <point x="65" y="-2"/>
      <point x="92" y="-2" type="curve" smooth="yes"/>
      <point x="96" y="-2" type="line" smooth="yes"/>
      <point x="120" y="-2"/>
      <point x="136" y="6"/>
      <point x="138" y="20" type="curve" smooth="yes"/>
      <point x="167" y="297" type="line"/>
      <point x="211" y="425"/>
      <point x="282" y="456"/>
      <point x="336" y="456" type="curve" smooth="yes"/>
      <point x="382" y="456"/>
      <point x="407" y="430"/>
      <point x="401" y="369" type="curve" smooth="yes"/>
      <point x="376" y="112" type="line" smooth="yes"/>
      <point x="367" y="24"/>
      <point x="407" y="-6"/>
    </contour>
  </outline>
</glyph>
<glyph name="l" format="2">
  <advance width="297"/>
  <unicode hex="006C"/>
  <anchor x="149" y="0" name="bottom"/>
  <anchor x="299" y="365" name="center"/>
  <anchor x="184" y="720" name="top"/>
  <anchor x="300" y="750" name="topright"/>
  <outline>
    <contour>
      <point x="166" y="-6" type="curve" smooth="yes"/>
      <point x="184" y="-6"/>
      <point x="221" y="2"/>
      <point x="226" y="27" type="curve" smooth="yes"/>
      <point x="230" y="49"/>
      <point x="230" y="62"/>
      <point x="230" y="63" type="curve" smooth="yes"/>
      <point x="230" y="69"/>
      <point x="227" y="71"/>
      <point x="224" y="71" type="curve" smooth="yes"/>
      <point x="218" y="71"/>
      <point x="206" y="64"/>
      <point x="187" y="64" type="curve" smooth="yes"/>
      <point x="167" y="64"/>
      <point x="158" y="79"/>
      <point x="161" y="107" type="curve" smooth="yes"/>
      <point x="225" y="730" type="line" smooth="yes"/>
      <point x="227" y="745"/>
      <point x="215" y="752"/>
      <point x="187" y="752" type="curve" smooth="yes"/>
      <point x="183" y="752" type="line" smooth="yes"/>
      <point x="157" y="752"/>
      <point x="143" y="746"/>
      <point x="141" y="730" type="curve" smooth="yes"/>
      <point x="79" y="125" type="line" smooth="yes"/>
      <point x="71" y="34"/>
      <point x="97" y="-6"/>
    </contour>
  </outline>
</glyph>
<glyph name="m" format="2">
  <advance width="848"/>
  <unicode hex="006D"/>
  <outline>
    <contour>
      <point x="739" y="-6" type="curve" smooth="yes"/>
      <point x="757" y="-6"/>
      <point x="794" y="2"/>
      <point x="799" y="27" type="curve" smooth="yes"/>
      <point x="803" y="49"/>
      <point x="803" y="62"/>
      <point x="803" y="63" type="curve" smooth="yes"/>
      <point x="803" y="69"/>
      <point x="800" y="71"/>
      <point x="797" y="71" type="curve" smooth="yes"/>
      <point x="791" y="71"/>
      <point x="779" y="64"/>
      <point x="760" y="64" type="curve" smooth="yes"/>
      <point x="740" y="64"/>
      <point x="731" y="79"/>
      <point x="734" y="107" type="curve" smooth="yes"/>
      <point x="761" y="379" type="line" smooth="yes"/>
      <point x="770" y="473"/>
      <point x="728" y="529"/>
      <point x="631" y="529" type="curve" smooth="yes"/>
      <point x="569" y="529"/>
      <point x="505" y="496"/>
      <point x="460" y="421" type="curve"/>
      <point x="453" y="484"/>
      <point x="416" y="529"/>
      <point x="329" y="529" type="curve" smooth="yes"/>
      <point x="261" y="529"/>
      <point x="190" y="490"/>
      <point x="145" y="398" type="curve"/>
      <point x="158" y="377" type="line"/>
      <point x="161" y="400"/>
      <point x="162" y="429"/>
      <point x="162" y="447" type="curve" smooth="yes"/>
      <point x="162" y="475"/>
      <point x="156" y="514"/>
      <point x="136" y="514" type="curve" smooth="yes"/>
      <point x="129" y="514"/>
      <point x="80" y="513"/>
      <point x="80" y="491" type="curve" smooth="yes"/>
      <point x="80" y="485"/>
      <point x="81" y="481"/>
      <point x="81" y="457" type="curve" smooth="yes"/>
      <point x="81" y="409"/>
      <point x="53" y="166"/>
      <point x="37" y="21" type="curve" smooth="yes"/>
      <point x="35" y="7"/>
      <point x="48" y="-2"/>
      <point x="75" y="-2" type="curve" smooth="yes"/>
      <point x="79" y="-2" type="line" smooth="yes"/>
      <point x="105" y="-2"/>
      <point x="119" y="6"/>
      <point x="121" y="20" type="curve"/>
      <point x="151" y="307" type="line"/>
      <point x="195" y="426"/>
      <point x="258" y="456"/>
      <point x="299" y="456" type="curve" smooth="yes"/>
      <point x="350" y="456"/>
      <point x="380" y="430"/>
      <point x="374" y="369" type="curve" smooth="yes"/>
      <point x="338" y="21" type="line" smooth="yes"/>
      <point x="337" y="7"/>
      <point x="349" y="-2"/>
      <point x="376" y="-2" type="curve" smooth="yes"/>
      <point x="380" y="-2" type="line" smooth="yes"/>
      <point x="406" y="-2"/>
      <point x="421" y="6"/>
      <point x="422" y="20" type="curve"/>
      <point x="456" y="343" type="line"/>
      <point x="438" y="260" type="line"/>
      <point x="481" y="417"/>
      <point x="555" y="456"/>
      <point x="601" y="456" type="curve" smooth="yes"/>
      <point x="652" y="456"/>
      <point x="683" y="427"/>
      <point x="676" y="359" type="curve" smooth="yes"/>
      <point x="650" y="112" type="line" smooth="yes"/>
      <point x="641" y="30"/>
      <point x="673" y="-6"/>
    </contour>
  </outline>
</glyph>
<glyph name="n" format="2">
  <advance width="557"/>
  <unicode hex="006E"/>
  <anchor x="262" y="0" name="bottom"/>
  <anchor x="305" y="523" name="top"/>
  <outline>
    <contour>
      <point x="460" y="-6" type="curve" smooth="yes"/>
      <point x="478" y="-6"/>
      <point x="515" y="2"/>
      <point x="520" y="27" type="curve" smooth="yes"/>
      <point x="524" y="49"/>
      <point x="524" y="62"/>
      <point x="524" y="63" type="curve" smooth="yes"/>
      <point x="524" y="69"/>
      <point x="521" y="71"/>
      <point x="518" y="71" type="curve" smooth="yes"/>
      <point x="512" y="71"/>
      <point x="500" y="64"/>
      <point x="481" y="64" type="curve" smooth="yes"/>
      <point x="461" y="64"/>
      <point x="452" y="79"/>
      <point x="455" y="107" type="curve" smooth="yes"/>
      <point x="482" y="379" type="line" smooth="yes"/>
      <point x="491" y="473"/>
      <point x="449" y="529"/>
      <point x="352" y="529" type="curve" smooth="yes"/>
      <point x="284" y="529"/>
      <point x="213" y="495"/>
      <point x="155" y="399" type="curve"/>
      <point x="168" y="377" type="line"/>
      <point x="172" y="392"/>
      <point x="175" y="420"/>
      <point x="175" y="447" type="curve" smooth="yes"/>
      <point x="175" y="482"/>
      <point x="169" y="514"/>
      <point x="149" y="514" type="curve" smooth="yes"/>
      <point x="142" y="514"/>
      <point x="93" y="513"/>
      <point x="93" y="491" type="curve" smooth="yes"/>
      <point x="93" y="485"/>
      <point x="94" y="481"/>
      <point x="94" y="457" type="curve" smooth="yes"/>
      <point x="94" y="436"/>
      <point x="89" y="377"/>
      <point x="83" y="321" type="curve" smooth="yes"/>
      <point x="51" y="21" type="line" smooth="yes"/>
      <point x="50" y="7"/>
      <point x="61" y="-2"/>
      <point x="88" y="-2" type="curve" smooth="yes"/>
      <point x="92" y="-2" type="line" smooth="yes"/>
      <point x="118" y="-2"/>
      <point x="133" y="6"/>
      <point x="134" y="20" type="curve" smooth="yes"/>
      <point x="163" y="295" type="line"/>
      <point x="206" y="424"/>
      <point x="278" y="456"/>
      <point x="322" y="456" type="curve" smooth="yes"/>
      <point x="373" y="456"/>
      <point x="403" y="430"/>
      <point x="397" y="369" type="curve" smooth="yes"/>
      <point x="372" y="112" type="line" smooth="yes"/>
      <point x="363" y="24"/>
      <point x="403" y="-6"/>
    </contour>
  </outline>
</glyph>
<glyph name="r" format="2">
  <advance width="366"/>
  <unicode hex="0072"/>
  <anchor x="105" y="0" name="bottom"/>
  <anchor x="222" y="523" name="top"/>
  <outline>
    <contour>
      <point x="100" y="-2" type="curve" smooth="yes"/>
      <point x="104" y="-2" type="line" smooth="yes"/>
      <point x="130" y="-2"/>
      <point x="145" y="6"/>
      <point x="147" y="21" type="curve" smooth="yes"/>
      <point x="183" y="380" type="line"/>
      <point x="213" y="430"/>
      <point x="256" y="447"/>
      <point x="284" y="447" type="curve" smooth="yes"/>
      <point x="320" y="447"/>
      <point x="334" y="437"/>
      <point x="344" y="437" type="curve" smooth="yes"/>
      <point x="359" y="437"/>
      <point x="369" y="467"/>
      <point x="369" y="491" type="curve" smooth="yes"/>
      <point x="369" y="522"/>
      <point x="339" y="529"/>
      <point x="319" y="529" type="curve" smooth="yes"/>
      <point x="267" y="529"/>
      <point x="219" y="496"/>
      <point x="188" y="445" type="curve"/>
      <point x="191" y="477"/>
      <point x="188" y="514"/>
      <point x="166" y="514" type="curve" smooth="yes"/>
      <point x="122" y="514"/>
      <point x="99" y="506"/>
      <point x="99" y="487" type="curve" smooth="yes"/>
      <point x="99" y="480"/>
      <point x="103" y="462"/>
      <point x="103" y="428" type="curve" smooth="yes"/>
      <point x="103" y="413"/>
      <point x="102" y="395"/>
      <point x="100" y="373" type="curve" smooth="yes"/>
      <point x="62" y="19" type="line" smooth="yes"/>
      <point x="61" y="7"/>
      <point x="73" y="-2"/>
    </contour>
  </outline>
</glyph>
<glyph name="s" format="2">
  <advance width="413"/>
  <unicode hex="0073"/>
  <anchor x="192" y="0" name="bottom"/>
  <anchor x="227" y="523" name="top"/>
  <outline>
    <contour>
      <point x="169" y="-6" type="curve" smooth="yes"/>
      <point x="284" y="-6"/>
      <point x="358" y="67"/>
      <point x="358" y="159" type="curve" smooth="yes"/>
      <point x="358" y="249"/>
      <point x="296" y="277"/>
      <point x="236" y="301" type="curve" smooth="yes"/>
      <point x="189" y="320"/>
      <point x="137" y="338"/>
      <point x="137" y="389" type="curve" smooth="yes"/>
      <point x="137" y="432"/>
      <point x="174" y="457"/>
      <point x="236" y="457" type="curve" smooth="yes"/>
      <point x="292" y="457"/>
      <point x="316" y="433"/>
      <point x="326" y="433" type="curve" smooth="yes"/>
      <point x="338" y="433"/>
      <point x="361" y="465"/>
      <point x="361" y="483" type="curve" smooth="yes"/>
      <point x="361" y="515"/>
      <point x="284" y="529"/>
      <point x="234" y="529" type="curve" smooth="yes"/>
      <point x="137" y="529"/>
      <point x="55" y="475"/>
      <point x="55" y="379" type="curve" smooth="yes"/>
      <point x="55" y="292"/>
      <point x="125" y="254"/>
      <point x="182" y="234" type="curve" smooth="yes"/>
      <point x="230" y="217"/>
      <point x="272" y="202"/>
      <point x="272" y="147" type="curve" smooth="yes"/>
      <point x="272" y="97"/>
      <point x="225" y="66"/>
      <point x="164" y="66" type="curve" smooth="yes"/>
      <point x="94" y="66"/>
      <point x="58" y="100"/>
      <point x="45" y="100" type="curve" smooth="yes"/>
      <point x="35" y="100"/>
      <point x="29" y="74"/>
      <point x="29" y="51" type="curve" smooth="yes"/>
      <point x="29" y="23"/>
      <point x="92" y="-6"/>
    </contour>
  </outline>
</glyph>
<glyph name="u" format="2">
  <advance width="557"/>
  <unicode hex="0075"/>
  <anchor x="231" y="0" name="bottom"/>
  <anchor x="503" y="0" name="ogonek"/>
  <anchor x="293" y="523" name="top"/>
  <anchor x="449" y="525" name="topright"/>
  <outline>
    <contour>
      <point x="189" y="-6" type="curve" smooth="yes"/>
      <point x="257" y="-6"/>
      <point x="329" y="30"/>
      <point x="385" y="132" type="curve"/>
      <point x="364" y="122" type="line"/>
      <point x="364" y="24"/>
      <point x="398" y="-6"/>
      <point x="457" y="-6" type="curve" smooth="yes"/>
      <point x="475" y="-6"/>
      <point x="512" y="2"/>
      <point x="517" y="27" type="curve" smooth="yes"/>
      <point x="521" y="49"/>
      <point x="521" y="62"/>
      <point x="521" y="63" type="curve" smooth="yes"/>
      <point x="521" y="69"/>
      <point x="518" y="71"/>
      <point x="515" y="71" type="curve" smooth="yes"/>
      <point x="509" y="71"/>
      <point x="497" y="64"/>
      <point x="478" y="64" type="curve" smooth="yes"/>
      <point x="458" y="64"/>
      <point x="449" y="79"/>
      <point x="452" y="107" type="curve" smooth="yes"/>
      <point x="491" y="503" type="line" smooth="yes"/>
      <point x="492" y="518"/>
      <point x="481" y="525"/>
      <point x="453" y="525" type="curve" smooth="yes"/>
      <point x="449" y="525" type="line" smooth="yes"/>
      <point x="423" y="525"/>
      <point x="409" y="519"/>
      <point x="407" y="503" type="curve" smooth="yes"/>
      <point x="379" y="237" type="line"/>
      <point x="336" y="100"/>
      <point x="263" y="67"/>
      <point x="219" y="67" type="curve" smooth="yes"/>
      <point x="168" y="67"/>
      <point x="138" y="93"/>
      <point x="144" y="154" type="curve" smooth="yes"/>
      <point x="179" y="503" type="line" smooth="yes"/>
      <point x="180" y="518"/>
      <point x="169" y="525"/>
      <point x="141" y="525" type="curve" smooth="yes"/>
      <point x="137" y="525" type="line" smooth="yes"/>
      <point x="111" y="525"/>
      <point x="97" y="519"/>
      <point x="95" y="503" type="curve" smooth="yes"/>
      <point x="59" y="144" type="line" smooth="yes"/>
      <point x="50" y="50"/>
      <point x="92" y="-6"/>
    </contour>
  </outline>
</glyph>
<glyph name="v" format="2">
  <advance width="485"/>
  <unicode hex="0076"/>
  <note>
Quedé en la w hacia atrás
</note>
  <outline>
    <contour>
      <point x="197" y="-2" type="curve" smooth="yes"/>
      <point x="232" y="-2" type="line" smooth="yes"/>
      <point x="252" y="-2"/>
      <point x="268" y="2"/>
      <point x="273" y="14" type="curve" smooth="yes"/>
      <point x="485" y="494" type="line" smooth="yes"/>
      <point x="488" y="501"/>
      <point x="489" y="505"/>
      <point x="489" y="510" type="curve" smooth="yes"/>
      <point x="489" y="520"/>
      <point x="478" y="525"/>
      <point x="454" y="525" type="curve" smooth="yes"/>
      <point x="440" y="525" type="line" smooth="yes"/>
      <point x="418" y="525"/>
      <point x="408" y="521"/>
      <point x="403" y="509" type="curve" smooth="yes"/>
      <point x="288" y="245" type="line" smooth="yes"/>
      <point x="267" y="196"/>
      <point x="246" y="140"/>
      <point x="229" y="91" type="curve"/>
      <point x="224" y="91" type="line"/>
      <point x="215" y="142"/>
      <point x="205" y="194"/>
      <point x="194" y="245" type="curve" smooth="yes"/>
      <point x="135" y="509" type="line" smooth="yes"/>
      <point x="132" y="521"/>
      <point x="116" y="525"/>
      <point x="96" y="525" type="curve" smooth="yes"/>
      <point x="91" y="525" type="line" smooth="yes"/>
      <point x="57" y="525"/>
      <point x="44" y="518"/>
      <point x="48" y="502" type="curve" smooth="yes"/>
      <point x="158" y="17" type="line" smooth="yes"/>
      <point x="161" y="2"/>
      <point x="177" y="-2"/>
    </contour>
  </outline>
</glyph>
<glyph name="w" format="2">
  <advance width="747"/>
  <unicode hex="0077"/>
  <anchor x="394" y="523" name="top"/>
  <outline>
    <contour>
      <point x="178" y="-2" type="curve" smooth="yes"/>
      <point x="211" y="-2" type="line" smooth="yes"/>
      <point x="231" y="-2"/>
      <point x="248" y="2"/>
      <point x="252" y="14" type="curve" smooth="yes"/>
      <point x="360" y="309" type="line" smooth="yes"/>
      <point x="371" y="339"/>
      <point x="381" y="373"/>
      <point x="384" y="388" type="curve"/>
      <point x="388" y="388" type="line"/>
      <point x="389" y="363"/>
      <point x="392" y="329"/>
      <point x="395" y="309" type="curve" smooth="yes"/>
      <point x="438" y="14" type="line" smooth="yes"/>
      <point x="440" y="2"/>
      <point x="456" y="-2"/>
      <point x="476" y="-2" type="curve" smooth="yes"/>
      <point x="509" y="-2" type="line" smooth="yes"/>
      <point x="529" y="-2"/>
      <point x="545" y="2"/>
      <point x="550" y="14" type="curve" smooth="yes"/>
      <point x="735" y="494" type="line" smooth="yes"/>
      <point x="738" y="501"/>
      <point x="739" y="505"/>
      <point x="739" y="510" type="curve" smooth="yes"/>
      <point x="739" y="520"/>
      <point x="732" y="525"/>
      <point x="704" y="525" type="curve" smooth="yes"/>
      <point x="693" y="525" type="line" smooth="yes"/>
      <point x="664" y="525"/>
      <point x="657" y="519"/>
      <point x="650" y="500" type="curve" smooth="yes"/>
      <point x="536" y="190" type="line" smooth="yes"/>
      <point x="524" y="158"/>
      <point x="512" y="123"/>
      <point x="509" y="110" type="curve"/>
      <point x="505" y="110" type="line"/>
      <point x="505" y="117"/>
      <point x="500" y="151"/>
      <point x="494" y="190" type="curve" smooth="yes"/>
      <point x="444" y="508" type="line" smooth="yes"/>
      <point x="442" y="521"/>
      <point x="427" y="525"/>
      <point x="407" y="525" type="curve" smooth="yes"/>
      <point x="396" y="525" type="line" smooth="yes"/>
      <point x="376" y="525"/>
      <point x="360" y="521"/>
      <point x="355" y="508" type="curve" smooth="yes"/>
      <point x="240" y="190" type="line" smooth="yes"/>
      <point x="227" y="153"/>
      <point x="214" y="118"/>
      <point x="212" y="110" type="curve"/>
      <point x="208" y="110" type="line"/>
      <point x="208" y="119"/>
      <point x="204" y="154"/>
      <point x="198" y="190" type="curve" smooth="yes"/>
      <point x="147" y="509" type="line" smooth="yes"/>
      <point x="145" y="521"/>
      <point x="128" y="525"/>
      <point x="108" y="525" type="curve" smooth="yes"/>
      <point x="99" y="525" type="line" smooth="yes"/>
      <point x="69" y="525"/>
      <point x="52" y="518"/>
      <point x="54" y="504" type="curve" smooth="yes"/>
      <point x="139" y="16" type="line" smooth="yes"/>
      <point x="141" y="2"/>
      <point x="158" y="-2"/>
    </contour>
  </outline>
</glyph>
<glyph name="x" format="2">
  <advance width="485"/>
  <unicode hex="0078"/>
  <outline>
    <contour>
      <point x="37" y="-2" type="curve" smooth="yes"/>
      <point x="43" y="-2" type="line" smooth="yes"/>
      <point x="61" y="-2"/>
      <point x="78" y="1"/>
      <point x="87" y="12" type="curve" smooth="yes"/>
      <point x="196" y="150" type="line" smooth="yes"/>
      <point x="218" y="177"/>
      <point x="228" y="193"/>
      <point x="234" y="206" type="curve"/>
      <point x="237" y="195"/>
      <point x="244" y="179"/>
      <point x="263" y="145" type="curve" smooth="yes"/>
      <point x="339" y="13" type="line" smooth="yes"/>
      <point x="346" y="1"/>
      <point x="360" y="-2"/>
      <point x="381" y="-2" type="curve" smooth="yes"/>
      <point x="390" y="-2" type="line" smooth="yes"/>
      <point x="424" y="-2"/>
      <point x="436" y="4"/>
      <point x="438" y="15" type="curve"/>
      <point x="438" y="20"/>
      <point x="436" y="26"/>
      <point x="431" y="33" type="curve"/>
      <point x="294" y="270" type="line"/>
      <point x="469" y="490" type="line" smooth="yes"/>
      <point x="475" y="498"/>
      <point x="478" y="504"/>
      <point x="478" y="510" type="curve" smooth="yes"/>
      <point x="478" y="520"/>
      <point x="465" y="525"/>
      <point x="434" y="525" type="curve" smooth="yes"/>
      <point x="428" y="525" type="line" smooth="yes"/>
      <point x="410" y="525"/>
      <point x="392" y="522"/>
      <point x="384" y="511" type="curve" smooth="yes"/>
      <point x="294" y="398" type="line" smooth="yes"/>
      <point x="270" y="368"/>
      <point x="259" y="349"/>
      <point x="251" y="334" type="curve"/>
      <point x="246" y="349"/>
      <point x="237" y="368"/>
      <point x="218" y="401" type="curve" smooth="yes"/>
      <point x="155" y="510" type="line" smooth="yes"/>
      <point x="148" y="522"/>
      <point x="134" y="525"/>
      <point x="113" y="525" type="curve" smooth="yes"/>
      <point x="104" y="525" type="line" smooth="yes"/>
      <point x="70" y="525"/>
      <point x="58" y="519"/>
      <point x="56" y="508" type="curve"/>
      <point x="56" y="503"/>
      <point x="59" y="497"/>
      <point x="63" y="490" type="curve" smooth="yes"/>
      <point x="189" y="268" type="line"/>
      <point x="2" y="33" type="line" smooth="yes"/>
      <point x="-5" y="25"/>
      <point x="-7" y="19"/>
      <point x="-7" y="13" type="curve" smooth="yes"/>
      <point x="-7" y="2"/>
      <point x="6" y="-2"/>
    </contour>
  </outline>
</glyph>
<glyph name="y" format="2">
  <advance width="481"/>
  <unicode hex="0079"/>
  <anchor x="351" y="0" name="bottom"/>
  <anchor x="271" y="523" name="top"/>
  <outline>
    <contour>
      <point x="88" y="-208" type="curve" smooth="yes"/>
      <point x="103" y="-208" type="line" smooth="yes"/>
      <point x="127" y="-208"/>
      <point x="145" y="-202"/>
      <point x="152" y="-187" type="curve" smooth="yes"/>
      <point x="481" y="494" type="line" smooth="yes"/>
      <point x="484" y="501"/>
      <point x="485" y="504"/>
      <point x="485" y="509" type="curve" smooth="yes"/>
      <point x="485" y="519"/>
      <point x="474" y="525"/>
      <point x="447" y="525" type="curve"/>
      <point x="443" y="525" type="line"/>
      <point x="422" y="525"/>
      <point x="406" y="521"/>
      <point x="400" y="509" type="curve" smooth="yes"/>
      <point x="266" y="227" type="line" smooth="yes"/>
      <point x="254" y="202"/>
      <point x="241" y="173"/>
      <point x="231" y="148" type="curve"/>
      <point x="229" y="148" type="line"/>
      <point x="222" y="174"/>
      <point x="215" y="201"/>
      <point x="208" y="227" type="curve" smooth="yes"/>
      <point x="132" y="509" type="line" smooth="yes"/>
      <point x="129" y="521"/>
      <point x="114" y="525"/>
      <point x="94" y="525" type="curve" smooth="yes"/>
      <point x="86" y="525" type="line" smooth="yes"/>
      <point x="56" y="525"/>
      <point x="41" y="518"/>
      <point x="41" y="508" type="curve" smooth="yes"/>
      <point x="41" y="503"/>
      <point x="44" y="495"/>
      <point x="47" y="483" type="curve" smooth="yes"/>
      <point x="197" y="-49" type="line"/>
      <point x="187" y="62" type="line"/>
      <point x="64" y="-175" type="line" smooth="yes"/>
      <point x="59" y="-184"/>
      <point x="57" y="-191"/>
      <point x="57" y="-193" type="curve" smooth="yes"/>
      <point x="57" y="-203"/>
      <point x="67" y="-208"/>
    </contour>
  </outline>
</glyph>
<glyph name="braceleft" format="2">
  <advance width="274"/>
  <unicode hex="007B"/>
  <outline>
    <contour>
      <point x="126" y="-138" type="curve" smooth="yes"/>
      <point x="175" y="-138" type="line" smooth="yes"/>
      <point x="187" y="-138"/>
      <point x="198" y="-133"/>
      <point x="200" y="-112" type="curve" smooth="yes"/>
      <point x="201" y="-98" type="line" smooth="yes"/>
      <point x="202" y="-79"/>
      <point x="188" y="-76"/>
      <point x="176" y="-76" type="curve" smooth="yes"/>
      <point x="160" y="-76" type="line" smooth="yes"/>
      <point x="138" y="-76"/>
      <point x="131" y="-62"/>
      <point x="134" y="-28" type="curve" smooth="yes"/>
      <point x="151" y="185" type="line" smooth="yes"/>
      <point x="158" y="269"/>
      <point x="103" y="307"/>
      <point x="89" y="314" type="curve"/>
      <point x="107" y="326"/>
      <point x="174" y="371"/>
      <point x="184" y="469" type="curve" smooth="yes"/>
      <point x="202" y="645" type="line" smooth="yes"/>
      <point x="206" y="684"/>
      <point x="215" y="706"/>
      <point x="243" y="706" type="curve" smooth="yes"/>
      <point x="258" y="706" type="line" smooth="yes"/>
      <point x="278" y="706"/>
      <point x="285" y="711"/>
      <point x="288" y="732" type="curve"/>
      <point x="290" y="743" type="line"/>
      <point x="293" y="765"/>
      <point x="282" y="768"/>
      <point x="265" y="768" type="curve" smooth="yes"/>
      <point x="221" y="768" type="line" smooth="yes"/>
      <point x="188" y="768"/>
      <point x="141" y="747"/>
      <point x="131" y="652" type="curve" smooth="yes"/>
      <point x="113" y="485" type="line" smooth="yes"/>
      <point x="106" y="418"/>
      <point x="94" y="374"/>
      <point x="49" y="356" type="curve" smooth="yes"/>
      <point x="29" y="348"/>
      <point x="22" y="343"/>
      <point x="21" y="326" type="curve" smooth="yes"/>
      <point x="19" y="303" type="line" smooth="yes"/>
      <point x="18" y="287"/>
      <point x="28" y="279"/>
      <point x="40" y="274" type="curve" smooth="yes"/>
      <point x="72" y="260"/>
      <point x="86" y="231"/>
      <point x="81" y="181" type="curve" smooth="yes"/>
      <point x="61" y="-26" type="line" smooth="yes"/>
      <point x="52" y="-122"/>
      <point x="102" y="-138"/>
    </contour>
  </outline>
</glyph>
<glyph name="bar" format="2">
  <advance width="250"/>
  <unicode hex="007C"/>
  <outline>
    <contour>
      <point x="183" y="770" type="curve" smooth="yes"/>
      <point x="173" y="770" type="line" smooth="yes"/>
      <point x="156" y="770"/>
      <point x="148" y="761"/>
      <point x="147" y="748" type="curve" smooth="yes"/>
      <point x="56" y="-118" type="line" smooth="yes"/>
      <point x="55" y="-132"/>
      <point x="60" y="-140"/>
      <point x="78" y="-140" type="curve" smooth="yes"/>
      <point x="88" y="-140" type="line" smooth="yes"/>
      <point x="105" y="-140"/>
      <point x="113" y="-131"/>
      <point x="114" y="-118" type="curve" smooth="yes"/>
      <point x="205" y="748" type="line" smooth="yes"/>
      <point x="206" y="762"/>
      <point x="201" y="770"/>
    </contour>
  </outline>
</glyph>
<glyph name="braceright" format="2">
  <advance width="274"/>
  <unicode hex="007D"/>
  <outline>
    <contour>
      <point x="7" y="-138" type="curve" smooth="yes"/>
      <point x="51" y="-138" type="line" smooth="yes"/>
      <point x="84" y="-138"/>
      <point x="131" y="-117"/>
      <point x="141" y="-22" type="curve" smooth="yes"/>
      <point x="159" y="145" type="line" smooth="yes"/>
      <point x="166" y="212"/>
      <point x="178" y="256"/>
      <point x="223" y="274" type="curve" smooth="yes"/>
      <point x="243" y="282"/>
      <point x="250" y="287"/>
      <point x="251" y="304" type="curve" smooth="yes"/>
      <point x="253" y="327" type="line" smooth="yes"/>
      <point x="254" y="343"/>
      <point x="244" y="351"/>
      <point x="232" y="356" type="curve" smooth="yes"/>
      <point x="200" y="369"/>
      <point x="186" y="399"/>
      <point x="191" y="449" type="curve" smooth="yes"/>
      <point x="211" y="656" type="line" smooth="yes"/>
      <point x="220" y="752"/>
      <point x="170" y="768"/>
      <point x="146" y="768" type="curve" smooth="yes"/>
      <point x="97" y="768" type="line" smooth="yes"/>
      <point x="85" y="768"/>
      <point x="74" y="763"/>
      <point x="72" y="742" type="curve" smooth="yes"/>
      <point x="71" y="728" type="line" smooth="yes"/>
      <point x="70" y="709"/>
      <point x="84" y="706"/>
      <point x="96" y="706" type="curve" smooth="yes"/>
      <point x="112" y="706" type="line" smooth="yes"/>
      <point x="134" y="706"/>
      <point x="141" y="692"/>
      <point x="138" y="658" type="curve" smooth="yes"/>
      <point x="121" y="445" type="line" smooth="yes"/>
      <point x="114" y="361"/>
      <point x="169" y="323"/>
      <point x="183" y="316" type="curve"/>
      <point x="165" y="304"/>
      <point x="98" y="259"/>
      <point x="88" y="161" type="curve" smooth="yes"/>
      <point x="70" y="-15" type="line" smooth="yes"/>
      <point x="66" y="-54"/>
      <point x="57" y="-76"/>
      <point x="29" y="-76" type="curve" smooth="yes"/>
      <point x="14" y="-76" type="line" smooth="yes"/>
      <point x="-6" y="-76"/>
      <point x="-13" y="-81"/>
      <point x="-16" y="-102" type="curve"/>
      <point x="-18" y="-113" type="line"/>
      <point x="-21" y="-135"/>
      <point x="-10" y="-138"/>
    </contour>
  </outline>
</glyph>
<glyph name="asciitilde" format="2">
  <advance width="560"/>
  <unicode hex="007E"/>
  <outline>
    <contour>
      <point x="100" y="214" type="curve" smooth="yes"/>
      <point x="112" y="214"/>
      <point x="125" y="258"/>
      <point x="174" y="258" type="curve" smooth="yes"/>
      <point x="229" y="258"/>
      <point x="310" y="215"/>
      <point x="368" y="215" type="curve" smooth="yes"/>
      <point x="424" y="215"/>
      <point x="453" y="233"/>
      <point x="478" y="283" type="curve" smooth="yes"/>
      <point x="482" y="291"/>
      <point x="484" y="294"/>
      <point x="484" y="299" type="curve" smooth="yes"/>
      <point x="484" y="307"/>
      <point x="465" y="315"/>
      <point x="459" y="315" type="curve" smooth="yes"/>
      <point x="446" y="315"/>
      <point x="437" y="271"/>
      <point x="383" y="271" type="curve" smooth="yes"/>
      <point x="328" y="271"/>
      <point x="256" y="312"/>
      <point x="184" y="312" type="curve" smooth="yes"/>
      <point x="124" y="312"/>
      <point x="99" y="280"/>
      <point x="85" y="253" type="curve" smooth="yes"/>
      <point x="80" y="243"/>
      <point x="77" y="234"/>
      <point x="77" y="228" type="curve" smooth="yes"/>
      <point x="77" y="222"/>
      <point x="91" y="214"/>
    </contour>
  </outline>
</glyph>
<glyph name="exclamdown" format="2">
  <advance width="294"/>
  <unicode hex="00A1"/>
  <outline>
    <contour>
      <point x="84" y="-179" type="curve" smooth="yes"/>
      <point x="104" y="-179" type="line" smooth="yes"/>
      <point x="132" y="-179"/>
      <point x="144" y="-171"/>
      <point x="146" y="-157" type="curve" smooth="yes"/>
      <point x="194" y="299" type="line" smooth="yes"/>
      <point x="195" y="313"/>
      <point x="187" y="321"/>
      <point x="166" y="321" type="curve" smooth="yes"/>
      <point x="155" y="321" type="line" smooth="yes"/>
      <point x="134" y="321"/>
      <point x="124" y="313"/>
      <point x="122" y="299" type="curve" smooth="yes"/>
      <point x="48" y="-155" type="line" smooth="yes"/>
      <point x="45" y="-171"/>
      <point x="55" y="-179"/>
    </contour>
    <contour>
      <point x="161" y="415" type="curve" smooth="yes"/>
      <point x="178" y="415" type="line" smooth="yes"/>
      <point x="205" y="415"/>
      <point x="218" y="423"/>
      <point x="220" y="437" type="curve" smooth="yes"/>
      <point x="227" y="503" type="line" smooth="yes"/>
      <point x="228" y="517"/>
      <point x="218" y="525"/>
      <point x="189" y="525" type="curve" smooth="yes"/>
      <point x="172" y="525" type="line" smooth="yes"/>
      <point x="143" y="525"/>
      <point x="131" y="517"/>
      <point x="130" y="503" type="curve" smooth="yes"/>
      <point x="123" y="437" type="line" smooth="yes"/>
      <point x="122" y="423"/>
      <point x="132" y="415"/>
    </contour>
  </outline>
</glyph>
<glyph name="cent" format="2">
  <advance width="470"/>
  <unicode hex="00A2"/>
  <outline>
    <contour>
      <point x="237" y="-71" type="curve" smooth="yes"/>
      <point x="242" y="-71" type="line" smooth="yes"/>
      <point x="258" y="-71"/>
      <point x="269" y="-65"/>
      <point x="270" y="-53" type="curve" smooth="yes"/>
      <point x="336" y="571" type="line" smooth="yes"/>
      <point x="337" y="583"/>
      <point x="328" y="589"/>
      <point x="311" y="589" type="curve" smooth="yes"/>
      <point x="306" y="589" type="line" smooth="yes"/>
      <point x="290" y="589"/>
      <point x="280" y="583"/>
      <point x="279" y="571" type="curve" smooth="yes"/>
      <point x="213" y="-53" type="line" smooth="yes"/>
      <point x="212" y="-65"/>
      <point x="220" y="-71"/>
    </contour>
    <component base="c" xOffset="-10"/>
  </outline>
</glyph>
<glyph name="sterling" format="2">
  <advance width="530"/>
  <unicode hex="00A3"/>
  <outline>
    <contour>
      <point x="48" y="0" type="curve" smooth="yes"/>
      <point x="419" y="0" type="line" smooth="yes"/>
      <point x="433" y="0"/>
      <point x="442" y="9"/>
      <point x="444" y="30" type="curve" smooth="yes"/>
      <point x="445" y="44" type="line" smooth="yes"/>
      <point x="446" y="63"/>
      <point x="441" y="72"/>
      <point x="426" y="72" type="curve" smooth="yes"/>
      <point x="143" y="72" type="line"/>
      <point x="168" y="85"/>
      <point x="209" y="112"/>
      <point x="223" y="239" type="curve" smooth="yes"/>
      <point x="234" y="339" type="line"/>
      <point x="377" y="339" type="line" smooth="yes"/>
      <point x="391" y="339"/>
      <point x="399" y="345"/>
      <point x="401" y="369" type="curve" smooth="yes"/>
      <point x="402" y="383" type="line" smooth="yes"/>
      <point x="404" y="405"/>
      <point x="396" y="411"/>
      <point x="382" y="411" type="curve" smooth="yes"/>
      <point x="241" y="411" type="line"/>
      <point x="250" y="503" type="line" smooth="yes"/>
      <point x="259" y="594"/>
      <point x="306" y="634"/>
      <point x="401" y="634" type="curve" smooth="yes"/>
      <point x="433" y="634"/>
      <point x="455" y="625"/>
      <point x="463" y="625" type="curve" smooth="yes"/>
      <point x="479" y="625"/>
      <point x="490" y="670"/>
      <point x="490" y="674" type="curve" smooth="yes"/>
      <point x="490" y="701"/>
      <point x="433" y="706"/>
      <point x="393" y="706" type="curve" smooth="yes"/>
      <point x="244" y="706"/>
      <point x="179" y="624"/>
      <point x="166" y="498" type="curve" smooth="yes"/>
      <point x="157" y="411" type="line"/>
      <point x="103" y="411" type="line" smooth="yes"/>
      <point x="89" y="411"/>
      <point x="80" y="405"/>
      <point x="78" y="380" type="curve" smooth="yes"/>
      <point x="77" y="367" type="line" smooth="yes"/>
      <point x="75" y="346"/>
      <point x="84" y="339"/>
      <point x="98" y="339" type="curve" smooth="yes"/>
      <point x="149" y="339" type="line"/>
      <point x="131" y="159" type="line" smooth="yes"/>
      <point x="122" y="73"/>
      <point x="38" y="89"/>
      <point x="33" y="46" type="curve" smooth="yes"/>
      <point x="31" y="30" type="line" smooth="yes"/>
      <point x="28" y="9"/>
      <point x="35" y="0"/>
    </contour>
  </outline>
</glyph>
<glyph name="currency" format="2">
  <advance width="550"/>
  <unicode hex="00A4"/>
  <outline>
    <contour>
      <point x="451" y="500" type="curve" smooth="yes"/>
      <point x="444" y="500"/>
      <point x="437" y="496"/>
      <point x="430" y="490" type="curve" smooth="yes"/>
      <point x="404" y="466" type="line"/>
      <point x="377" y="487"/>
      <point x="342" y="500"/>
      <point x="303" y="500" type="curve" smooth="yes"/>
      <point x="264" y="500"/>
      <point x="227" y="487"/>
      <point x="195" y="465" type="curve"/>
      <point x="173" y="489" type="line"/>
      <point x="167" y="497"/>
      <point x="159" y="499"/>
      <point x="152" y="499" type="curve" smooth="yes"/>
      <point x="145" y="499"/>
      <point x="138" y="496"/>
      <point x="133" y="491" type="curve" smooth="yes"/>
      <point x="131" y="489" type="line" smooth="yes"/>
      <point x="125" y="483"/>
      <point x="122" y="476"/>
      <point x="122" y="470" type="curve" smooth="yes"/>
      <point x="122" y="463"/>
      <point x="126" y="456"/>
      <point x="131" y="450" type="curve" smooth="yes"/>
      <point x="153" y="427" type="line"/>
      <point x="122" y="391"/>
      <point x="107" y="347"/>
      <point x="107" y="300" type="curve" smooth="yes"/>
      <point x="107" y="269"/>
      <point x="115" y="241"/>
      <point x="130" y="217" type="curve"/>
      <point x="104" y="193" type="line" smooth="yes"/>
      <point x="96" y="185"/>
      <point x="91" y="178"/>
      <point x="91" y="170" type="curve" smooth="yes"/>
      <point x="91" y="165"/>
      <point x="94" y="159"/>
      <point x="97" y="156" type="curve" smooth="yes"/>
      <point x="100" y="153" type="line" smooth="yes"/>
      <point x="105" y="148"/>
      <point x="110" y="143"/>
      <point x="116" y="143" type="curve" smooth="yes"/>
      <point x="123" y="143"/>
      <point x="130" y="146"/>
      <point x="138" y="153" type="curve" smooth="yes"/>
      <point x="165" y="178" type="line"/>
      <point x="192" y="157"/>
      <point x="227" y="145"/>
      <point x="266" y="145" type="curve" smooth="yes"/>
      <point x="305" y="145"/>
      <point x="341" y="157"/>
      <point x="373" y="178" type="curve"/>
      <point x="395" y="154" type="line" smooth="yes"/>
      <point x="401" y="148"/>
      <point x="408" y="143"/>
      <point x="415" y="143" type="curve" smooth="yes"/>
      <point x="423" y="143"/>
      <point x="429" y="146"/>
      <point x="435" y="152" type="curve" smooth="yes"/>
      <point x="439" y="156" type="line" smooth="yes"/>
      <point x="444" y="161"/>
      <point x="447" y="167"/>
      <point x="447" y="172" type="curve" smooth="yes"/>
      <point x="447" y="179"/>
      <point x="444" y="186"/>
      <point x="438" y="193" type="curve" smooth="yes"/>
      <point x="416" y="217" type="line"/>
      <point x="445" y="249"/>
      <point x="464" y="293"/>
      <point x="464" y="339" type="curve" smooth="yes"/>
      <point x="464" y="371"/>
      <point x="454" y="401"/>
      <point x="438" y="426" type="curve"/>
      <point x="465" y="450" type="line" smooth="yes"/>
      <point x="475" y="459"/>
      <point x="478" y="466"/>
      <point x="478" y="474" type="curve" smooth="yes"/>
      <point x="478" y="480"/>
      <point x="476" y="485"/>
      <point x="471" y="490" type="curve" smooth="yes"/>
      <point x="468" y="493" type="line" smooth="yes"/>
      <point x="464" y="497"/>
      <point x="456" y="500"/>
    </contour>
    <contour>
      <point x="297" y="439" type="curve" smooth="yes"/>
      <point x="357" y="439"/>
      <point x="402" y="392"/>
      <point x="402" y="333" type="curve" smooth="yes"/>
      <point x="402" y="264"/>
      <point x="339" y="206"/>
      <point x="272" y="206" type="curve" smooth="yes"/>
      <point x="212" y="206"/>
      <point x="168" y="251"/>
      <point x="168" y="309" type="curve" smooth="yes"/>
      <point x="168" y="379"/>
      <point x="228" y="439"/>
    </contour>
  </outline>
</glyph>
<glyph name="yen" format="2">
  <advance width="600"/>
  <unicode hex="00A5"/>
  <outline>
    <contour>
      <point x="101" y="355" type="curve" smooth="yes"/>
      <point x="524" y="355" type="line" smooth="yes"/>
      <point x="537" y="355"/>
      <point x="546" y="362"/>
      <point x="548" y="383" type="curve" smooth="yes"/>
      <point x="549" y="392" type="line" smooth="yes"/>
      <point x="552" y="415"/>
      <point x="544" y="422"/>
      <point x="532" y="422" type="curve" smooth="yes"/>
      <point x="349" y="422" type="line"/>
      <point x="316" y="402" type="line"/>
      <point x="283" y="422" type="line"/>
      <point x="109" y="422" type="line" smooth="yes"/>
      <point x="95" y="422"/>
      <point x="86" y="415"/>
      <point x="84" y="394" type="curve" smooth="yes"/>
      <point x="83" y="385" type="line" smooth="yes"/>
      <point x="80" y="362"/>
      <point x="88" y="355"/>
    </contour>
    <contour>
      <point x="83" y="192" type="curve" smooth="yes"/>
      <point x="506" y="192" type="line" smooth="yes"/>
      <point x="519" y="192"/>
      <point x="528" y="199"/>
      <point x="530" y="220" type="curve" smooth="yes"/>
      <point x="531" y="229" type="line" smooth="yes"/>
      <point x="534" y="252"/>
      <point x="526" y="259"/>
      <point x="514" y="259" type="curve" smooth="yes"/>
      <point x="91" y="259" type="line" smooth="yes"/>
      <point x="77" y="259"/>
      <point x="68" y="252"/>
      <point x="66" y="231" type="curve" smooth="yes"/>
      <point x="65" y="222" type="line" smooth="yes"/>
      <point x="62" y="199"/>
      <point x="70" y="192"/>
    </contour>
    <component base="Y" xOffset="20"/>
  </outline>
</glyph>
<glyph name="brokenbar" format="2">
  <advance width="250"/>
  <unicode hex="00A6"/>
  <outline>
    <contour>
      <point x="182" y="770" type="curve" smooth="yes"/>
      <point x="172" y="770" type="line" smooth="yes"/>
      <point x="155" y="770"/>
      <point x="147" y="762"/>
      <point x="146" y="748" type="curve" smooth="yes"/>
      <point x="138" y="640"/>
      <point x="112" y="438"/>
      <point x="112" y="425" type="curve" smooth="yes"/>
      <point x="112" y="411"/>
      <point x="116" y="403"/>
      <point x="134" y="403" type="curve" smooth="yes"/>
      <point x="144" y="403" type="line" smooth="yes"/>
      <point x="161" y="403"/>
      <point x="168" y="411"/>
      <point x="170" y="425" type="curve" smooth="yes"/>
      <point x="185" y="532"/>
      <point x="204" y="738"/>
      <point x="204" y="748" type="curve" smooth="yes"/>
      <point x="204" y="762"/>
      <point x="199" y="770"/>
    </contour>
    <contour>
      <point x="125" y="226" type="curve" smooth="yes"/>
      <point x="115" y="226" type="line" smooth="yes"/>
      <point x="97" y="226"/>
      <point x="90" y="218"/>
      <point x="89" y="204" type="curve" smooth="yes"/>
      <point x="81" y="97"/>
      <point x="55" y="-104"/>
      <point x="55" y="-118" type="curve" smooth="yes"/>
      <point x="55" y="-132"/>
      <point x="59" y="-140"/>
      <point x="77" y="-140" type="curve" smooth="yes"/>
      <point x="87" y="-140" type="line" smooth="yes"/>
      <point x="104" y="-140"/>
      <point x="111" y="-132"/>
      <point x="113" y="-118" type="curve" smooth="yes"/>
      <point x="128" y="-12"/>
      <point x="147" y="193"/>
      <point x="147" y="204" type="curve" smooth="yes"/>
      <point x="147" y="218"/>
      <point x="142" y="226"/>
    </contour>
  </outline>
</glyph>
<glyph name="section" format="2">
  <advance width="429"/>
  <unicode hex="00A7"/>
  <outline>
    <contour>
      <point x="171" y="-6" type="curve" smooth="yes"/>
      <point x="282" y="-6"/>
      <point x="352" y="62"/>
      <point x="352" y="149" type="curve" smooth="yes"/>
      <point x="352" y="187"/>
      <point x="339" y="210"/>
      <point x="320" y="227" type="curve"/>
      <point x="351" y="249"/>
      <point x="389" y="292"/>
      <point x="389" y="367" type="curve" smooth="yes"/>
      <point x="389" y="440"/>
      <point x="336" y="478"/>
      <point x="281" y="497" type="curve" smooth="yes"/>
      <point x="231" y="514"/>
      <point x="183" y="523"/>
      <point x="183" y="569" type="curve" smooth="yes"/>
      <point x="183" y="608"/>
      <point x="217" y="634"/>
      <point x="273" y="634" type="curve" smooth="yes"/>
      <point x="326" y="634"/>
      <point x="354" y="610"/>
      <point x="361" y="610" type="curve" smooth="yes"/>
      <point x="371" y="610"/>
      <point x="398" y="649"/>
      <point x="398" y="664" type="curve" smooth="yes"/>
      <point x="398" y="687"/>
      <point x="336" y="706"/>
      <point x="277" y="706" type="curve" smooth="yes"/>
      <point x="167" y="706"/>
      <point x="96" y="641"/>
      <point x="96" y="551" type="curve" smooth="yes"/>
      <point x="96" y="514"/>
      <point x="108" y="491"/>
      <point x="125" y="474" type="curve"/>
      <point x="82" y="440"/>
      <point x="59" y="392"/>
      <point x="59" y="335" type="curve" smooth="yes"/>
      <point x="59" y="264"/>
      <point x="109" y="225"/>
      <point x="160" y="206" type="curve" smooth="yes"/>
      <point x="212" y="187"/>
      <point x="265" y="180"/>
      <point x="265" y="132" type="curve" smooth="yes"/>
      <point x="265" y="93"/>
      <point x="231" y="66"/>
      <point x="174" y="66" type="curve" smooth="yes"/>
      <point x="121" y="66"/>
      <point x="94" y="90"/>
      <point x="87" y="90" type="curve" smooth="yes"/>
      <point x="77" y="90"/>
      <point x="50" y="51"/>
      <point x="50" y="36" type="curve" smooth="yes"/>
      <point x="50" y="13"/>
      <point x="112" y="-6"/>
    </contour>
    <contour>
      <point x="238" y="266" type="curve"/>
      <point x="189" y="281"/>
      <point x="144" y="297"/>
      <point x="144" y="348" type="curve" smooth="yes"/>
      <point x="144" y="390"/>
      <point x="168" y="424"/>
      <point x="209" y="435" type="curve"/>
      <point x="257" y="420"/>
      <point x="303" y="405"/>
      <point x="303" y="350" type="curve" smooth="yes"/>
      <point x="303" y="310"/>
      <point x="279" y="275"/>
    </contour>
  </outline>
</glyph>
<glyph name="dieresis" format="2">
  <advance width="239"/>
  <unicode hex="00A8"/>
  <outline>
    <contour>
      <point x="230" y="597" type="curve" smooth="yes"/>
      <point x="262" y="597"/>
      <point x="274" y="604"/>
      <point x="276" y="619" type="curve" smooth="yes"/>
      <point x="282" y="675" type="line" smooth="yes"/>
      <point x="284" y="690"/>
      <point x="271" y="697"/>
      <point x="240" y="697" type="curve" smooth="yes"/>
      <point x="209" y="697"/>
      <point x="196" y="690"/>
      <point x="194" y="675" type="curve" smooth="yes"/>
      <point x="188" y="619" type="line" smooth="yes"/>
      <point x="186" y="604"/>
      <point x="199" y="597"/>
    </contour>
    <contour>
      <point x="80" y="597" type="curve" smooth="yes"/>
      <point x="111" y="597"/>
      <point x="124" y="604"/>
      <point x="126" y="619" type="curve" smooth="yes"/>
      <point x="132" y="675" type="line" smooth="yes"/>
      <point x="134" y="690"/>
      <point x="121" y="697"/>
      <point x="90" y="697" type="curve" smooth="yes"/>
      <point x="58" y="697"/>
      <point x="46" y="690"/>
      <point x="44" y="675" type="curve" smooth="yes"/>
      <point x="38" y="619" type="line" smooth="yes"/>
      <point x="36" y="604"/>
      <point x="48" y="597"/>
    </contour>
  </outline>
</glyph>
<glyph name="ordfeminine" format="2">
  <advance width="319"/>
  <unicode hex="00AA"/>
  <outline>
    <contour>
      <point x="153" y="441" type="curve" smooth="yes"/>
      <point x="186" y="441"/>
      <point x="218" y="457"/>
      <point x="242" y="498" type="curve"/>
      <point x="239" y="456"/>
      <point x="255" y="441"/>
      <point x="287" y="441" type="curve" smooth="yes"/>
      <point x="296" y="441"/>
      <point x="314" y="445"/>
      <point x="317" y="457" type="curve" smooth="yes"/>
      <point x="320" y="468"/>
      <point x="319" y="475"/>
      <point x="319" y="475" type="curve" smooth="yes"/>
      <point x="319" y="478"/>
      <point x="317" y="479"/>
      <point x="316" y="479" type="curve" smooth="yes"/>
      <point x="313" y="479"/>
      <point x="307" y="476"/>
      <point x="297" y="476" type="curve" smooth="yes"/>
      <point x="287" y="476"/>
      <point x="283" y="483"/>
      <point x="284" y="497" type="curve" smooth="yes"/>
      <point x="304" y="691" type="line" smooth="yes"/>
      <point x="305" y="702"/>
      <point x="302" y="706"/>
      <point x="292" y="706" type="curve" smooth="yes"/>
      <point x="283" y="706" type="line" smooth="yes"/>
      <point x="269" y="706"/>
      <point x="265" y="696"/>
      <point x="260" y="681" type="curve"/>
      <point x="250" y="692"/>
      <point x="225" y="708"/>
      <point x="192" y="708" type="curve" smooth="yes"/>
      <point x="111" y="708"/>
      <point x="59" y="642"/>
      <point x="59" y="549" type="curve" smooth="yes"/>
      <point x="59" y="462"/>
      <point x="116" y="441"/>
    </contour>
    <contour>
      <point x="164" y="486" type="curve" smooth="yes"/>
      <point x="134" y="486"/>
      <point x="110" y="502"/>
      <point x="110" y="554" type="curve" smooth="yes"/>
      <point x="110" y="609"/>
      <point x="126" y="663"/>
      <point x="195" y="663" type="curve" smooth="yes"/>
      <point x="226" y="663"/>
      <point x="242" y="652"/>
      <point x="251" y="645" type="curve"/>
      <point x="249" y="638"/>
      <point x="248" y="630"/>
      <point x="247" y="622" type="curve" smooth="yes"/>
      <point x="241" y="563" type="line"/>
      <point x="222" y="503"/>
      <point x="186" y="486"/>
    </contour>
  </outline>
</glyph>
<glyph name="guillemetleft" format="2">
  <advance width="471"/>
  <unicode hex="00AB"/>
  <outline>
    <contour>
      <point x="188" y="61" type="curve" smooth="yes"/>
      <point x="207" y="61"/>
      <point x="228" y="82"/>
      <point x="228" y="91" type="curve" smooth="yes"/>
      <point x="228" y="98"/>
      <point x="224" y="107"/>
      <point x="220" y="113" type="curve" smooth="yes"/>
      <point x="125" y="258" type="line"/>
      <point x="251" y="402" type="line" smooth="yes"/>
      <point x="258" y="410"/>
      <point x="261" y="418"/>
      <point x="261" y="424" type="curve" smooth="yes"/>
      <point x="261" y="440"/>
      <point x="240" y="454"/>
      <point x="229" y="454" type="curve" smooth="yes"/>
      <point x="221" y="454"/>
      <point x="214" y="450"/>
      <point x="206" y="442" type="curve" smooth="yes"/>
      <point x="59" y="286" type="line" smooth="yes"/>
      <point x="47" y="273"/>
      <point x="44" y="265"/>
      <point x="44" y="255" type="curve" smooth="yes"/>
      <point x="44" y="247"/>
      <point x="47" y="240"/>
      <point x="54" y="230" type="curve" smooth="yes"/>
      <point x="167" y="74" type="line" smooth="yes"/>
      <point x="173" y="66"/>
      <point x="180" y="61"/>
    </contour>
    <contour>
      <point x="360" y="61" type="curve" smooth="yes"/>
      <point x="379" y="61"/>
      <point x="400" y="82"/>
      <point x="400" y="91" type="curve" smooth="yes"/>
      <point x="400" y="98"/>
      <point x="396" y="107"/>
      <point x="392" y="113" type="curve" smooth="yes"/>
      <point x="297" y="258" type="line"/>
      <point x="423" y="402" type="line" smooth="yes"/>
      <point x="430" y="410"/>
      <point x="433" y="418"/>
      <point x="433" y="424" type="curve" smooth="yes"/>
      <point x="433" y="440"/>
      <point x="412" y="454"/>
      <point x="401" y="454" type="curve" smooth="yes"/>
      <point x="393" y="454"/>
      <point x="386" y="450"/>
      <point x="378" y="442" type="curve" smooth="yes"/>
      <point x="231" y="286" type="line" smooth="yes"/>
      <point x="219" y="273"/>
      <point x="216" y="265"/>
      <point x="216" y="255" type="curve" smooth="yes"/>
      <point x="216" y="247"/>
      <point x="219" y="240"/>
      <point x="226" y="230" type="curve" smooth="yes"/>
      <point x="339" y="74" type="line" smooth="yes"/>
      <point x="345" y="66"/>
      <point x="352" y="61"/>
    </contour>
  </outline>
</glyph>
<glyph name="logicalnot" format="2">
  <advance width="560"/>
  <unicode hex="00AC"/>
  <outline>
    <contour>
      <point x="459" y="77" type="curve" smooth="yes"/>
      <point x="469" y="77" type="line" smooth="yes"/>
      <point x="492" y="77"/>
      <point x="502" y="85"/>
      <point x="503" y="99" type="curve" smooth="yes"/>
      <point x="525" y="306" type="line" smooth="yes"/>
      <point x="527" y="328"/>
      <point x="520" y="338"/>
      <point x="498" y="338" type="curve" smooth="yes"/>
      <point x="70" y="338" type="line" smooth="yes"/>
      <point x="54" y="338"/>
      <point x="47" y="328"/>
      <point x="45" y="306" type="curve" smooth="yes"/>
      <point x="44" y="293" type="line" smooth="yes"/>
      <point x="42" y="271"/>
      <point x="51" y="265"/>
      <point x="63" y="265" type="curve" smooth="yes"/>
      <point x="445" y="265" type="line"/>
      <point x="429" y="101" type="line" smooth="yes"/>
      <point x="427" y="85"/>
      <point x="434" y="77"/>
    </contour>
  </outline>
</glyph>
<glyph name="macron" format="2">
  <advance width="253"/>
  <unicode hex="00AF"/>
  <outline>
    <contour>
      <point x="57" y="612" type="curve"/>
      <point x="270" y="612" type="line" smooth="yes"/>
      <point x="283" y="612"/>
      <point x="291" y="621"/>
      <point x="293" y="642" type="curve" smooth="yes"/>
      <point x="294" y="652" type="line" smooth="yes"/>
      <point x="296" y="673"/>
      <point x="291" y="682"/>
      <point x="277" y="682" type="curve" smooth="yes"/>
      <point x="64" y="682" type="line" smooth="yes"/>
      <point x="52" y="682"/>
      <point x="43" y="673"/>
      <point x="41" y="652" type="curve" smooth="yes"/>
      <point x="40" y="642" type="line" smooth="yes"/>
      <point x="38" y="621"/>
      <point x="42" y="612"/>
    </contour>
  </outline>
</glyph>
<glyph name="degree" format="2">
  <advance width="345"/>
  <unicode hex="00B0"/>
  <outline>
    <contour>
      <point x="213" y="706" type="curve" smooth="yes"/>
      <point x="128" y="706"/>
      <point x="66" y="642"/>
      <point x="66" y="560" type="curve" smooth="yes"/>
      <point x="66" y="493"/>
      <point x="114" y="441"/>
      <point x="186" y="441" type="curve" smooth="yes"/>
      <point x="267" y="441"/>
      <point x="333" y="503"/>
      <point x="333" y="587" type="curve" smooth="yes"/>
      <point x="333" y="654"/>
      <point x="281" y="706"/>
    </contour>
    <contour>
      <point x="209" y="661" type="curve" smooth="yes"/>
      <point x="252" y="661"/>
      <point x="283" y="626"/>
      <point x="283" y="582" type="curve" smooth="yes"/>
      <point x="283" y="526"/>
      <point x="239" y="486"/>
      <point x="190" y="486" type="curve" smooth="yes"/>
      <point x="147" y="486"/>
      <point x="115" y="520"/>
      <point x="115" y="563" type="curve" smooth="yes"/>
      <point x="115" y="614"/>
      <point x="156" y="661"/>
    </contour>
  </outline>
</glyph>
<glyph name="plusminus" format="2">
  <advance width="560"/>
  <unicode hex="00B1"/>
  <outline>
    <contour>
      <point x="263" y="128" type="curve" smooth="yes"/>
      <point x="270" y="128" type="line" smooth="yes"/>
      <point x="289" y="128"/>
      <point x="301" y="134"/>
      <point x="302" y="148" type="curve" smooth="yes"/>
      <point x="321" y="327" type="line"/>
      <point x="495" y="327" type="line" smooth="yes"/>
      <point x="506" y="327"/>
      <point x="519" y="333"/>
      <point x="520" y="355" type="curve" smooth="yes"/>
      <point x="521" y="370" type="line" smooth="yes"/>
      <point x="522" y="390"/>
      <point x="514" y="394"/>
      <point x="503" y="394" type="curve" smooth="yes"/>
      <point x="328" y="394" type="line"/>
      <point x="347" y="571" type="line" smooth="yes"/>
      <point x="349" y="587"/>
      <point x="340" y="593"/>
      <point x="319" y="593" type="curve" smooth="yes"/>
      <point x="312" y="593" type="line" smooth="yes"/>
      <point x="288" y="593"/>
      <point x="281" y="587"/>
      <point x="280" y="573" type="curve" smooth="yes"/>
      <point x="261" y="394" type="line"/>
      <point x="85" y="394" type="line" smooth="yes"/>
      <point x="70" y="394"/>
      <point x="63" y="389"/>
      <point x="61" y="366" type="curve" smooth="yes"/>
      <point x="60" y="353" type="line" smooth="yes"/>
      <point x="58" y="333"/>
      <point x="67" y="327"/>
      <point x="79" y="327" type="curve" smooth="yes"/>
      <point x="254" y="327" type="line"/>
      <point x="236" y="150" type="line" smooth="yes"/>
      <point x="234" y="134"/>
      <point x="241" y="128"/>
    </contour>
    <contour>
      <point x="46" y="0" type="curve" smooth="yes"/>
      <point x="460" y="0" type="line" smooth="yes"/>
      <point x="471" y="0"/>
      <point x="484" y="6"/>
      <point x="485" y="28" type="curve" smooth="yes"/>
      <point x="486" y="43" type="line" smooth="yes"/>
      <point x="487" y="63"/>
      <point x="479" y="67"/>
      <point x="468" y="67" type="curve" smooth="yes"/>
      <point x="52" y="67" type="line" smooth="yes"/>
      <point x="37" y="67"/>
      <point x="30" y="62"/>
      <point x="28" y="39" type="curve" smooth="yes"/>
      <point x="27" y="26" type="line" smooth="yes"/>
      <point x="25" y="6"/>
      <point x="34" y="0"/>
    </contour>
  </outline>
</glyph>
<glyph name="acute" format="2">
  <advance width="161"/>
  <unicode hex="00B4"/>
  <outline>
    <contour>
      <point x="55" y="576" type="curve" smooth="yes"/>
      <point x="87" y="576"/>
      <point x="96" y="582"/>
      <point x="115" y="600" type="curve" smooth="yes"/>
      <point x="176" y="660" type="line" smooth="yes"/>
      <point x="198" y="681"/>
      <point x="207" y="694"/>
      <point x="207" y="703" type="curve" smooth="yes"/>
      <point x="207" y="714"/>
      <point x="190" y="718"/>
      <point x="161" y="718" type="curve" smooth="yes"/>
      <point x="118" y="718"/>
      <point x="107" y="709"/>
      <point x="96" y="692" type="curve" smooth="yes"/>
      <point x="48" y="616" type="line" smooth="yes"/>
      <point x="39" y="602"/>
      <point x="34" y="593"/>
      <point x="34" y="588" type="curve" smooth="yes"/>
      <point x="34" y="580"/>
      <point x="42" y="576"/>
    </contour>
  </outline>
</glyph>
<glyph name="paragraph" format="2">
  <advance width="515"/>
  <unicode hex="00B6"/>
  <outline>
    <contour>
      <point x="217" y="-173" type="curve" smooth="yes"/>
      <point x="239" y="-173" type="line" smooth="yes"/>
      <point x="252" y="-173"/>
      <point x="260" y="-163"/>
      <point x="261" y="-151" type="curve" smooth="yes"/>
      <point x="344" y="638" type="line"/>
      <point x="422" y="638" type="line"/>
      <point x="340" y="-149" type="line" smooth="yes"/>
      <point x="338" y="-165"/>
      <point x="343" y="-173"/>
      <point x="357" y="-173" type="curve" smooth="yes"/>
      <point x="379" y="-173" type="line" smooth="yes"/>
      <point x="392" y="-173"/>
      <point x="400" y="-163"/>
      <point x="401" y="-151" type="curve" smooth="yes"/>
      <point x="484" y="638" type="line"/>
      <point x="520" y="638" type="line" smooth="yes"/>
      <point x="533" y="638"/>
      <point x="541" y="643"/>
      <point x="542" y="658" type="curve" smooth="yes"/>
      <point x="544" y="680" type="line" smooth="yes"/>
      <point x="545" y="694"/>
      <point x="542" y="700"/>
      <point x="526" y="700" type="curve" smooth="yes"/>
      <point x="313" y="700" type="line" smooth="yes"/>
      <point x="180" y="700"/>
      <point x="61" y="605"/>
      <point x="61" y="457" type="curve" smooth="yes"/>
      <point x="61" y="343"/>
      <point x="131" y="261"/>
      <point x="241" y="247" type="curve"/>
      <point x="201" y="-149" type="line" smooth="yes"/>
      <point x="199" y="-165"/>
      <point x="202" y="-173"/>
    </contour>
  </outline>
</glyph>
<glyph name="periodcentered" format="2">
  <advance width="267"/>
  <unicode hex="00B7"/>
  <outline>
    <contour>
      <point x="140" y="309" type="curve" smooth="yes"/>
      <point x="171" y="309"/>
      <point x="195" y="329"/>
      <point x="195" y="364" type="curve" smooth="yes"/>
      <point x="195" y="390"/>
      <point x="174" y="412"/>
      <point x="147" y="412" type="curve" smooth="yes"/>
      <point x="114" y="412"/>
      <point x="92" y="389"/>
      <point x="92" y="356" type="curve" smooth="yes"/>
      <point x="92" y="330"/>
      <point x="113" y="309"/>
    </contour>
  </outline>
</glyph>
<glyph name="cedilla" format="2">
  <advance width="231"/>
  <unicode hex="00B8"/>
  <outline>
    <contour>
      <point x="70" y="-210" type="curve" smooth="yes"/>
      <point x="145" y="-210"/>
      <point x="190" y="-174"/>
      <point x="190" y="-121" type="curve" smooth="yes"/>
      <point x="190" y="-75"/>
      <point x="157" y="-54"/>
      <point x="96" y="-54" type="curve"/>
      <point x="104" y="-59" type="line"/>
      <point x="128" y="0" type="line"/>
      <point x="81" y="0" type="line"/>
      <point x="60" y="-53"/>
      <point x="54" y="-71"/>
      <point x="54" y="-77" type="curve" smooth="yes"/>
      <point x="54" y="-101"/>
      <point x="126" y="-83"/>
      <point x="126" y="-124" type="curve" smooth="yes"/>
      <point x="126" y="-146"/>
      <point x="104" y="-161"/>
      <point x="66" y="-161" type="curve" smooth="yes"/>
      <point x="22" y="-161"/>
      <point x="-7" y="-141"/>
      <point x="-23" y="-141" type="curve" smooth="yes"/>
      <point x="-37" y="-141"/>
      <point x="-45" y="-156"/>
      <point x="-45" y="-166" type="curve" smooth="yes"/>
      <point x="-45" y="-196"/>
      <point x="23" y="-210"/>
    </contour>
  </outline>
</glyph>
<glyph name="ordmasculine" format="2">
  <advance width="337"/>
  <unicode hex="00BA"/>
  <outline>
    <contour>
      <point x="193" y="441" type="curve" smooth="yes"/>
      <point x="273" y="441"/>
      <point x="316" y="489"/>
      <point x="316" y="581" type="curve" smooth="yes"/>
      <point x="316" y="663"/>
      <point x="280" y="706"/>
      <point x="213" y="706" type="curve" smooth="yes"/>
      <point x="131" y="706"/>
      <point x="87" y="657"/>
      <point x="87" y="564" type="curve" smooth="yes"/>
      <point x="87" y="484"/>
      <point x="124" y="441"/>
    </contour>
    <contour>
      <point x="196" y="486" type="curve" smooth="yes"/>
      <point x="157" y="486"/>
      <point x="137" y="514"/>
      <point x="137" y="566" type="curve" smooth="yes"/>
      <point x="137" y="628"/>
      <point x="161" y="661"/>
      <point x="207" y="661" type="curve" smooth="yes"/>
      <point x="246" y="661"/>
      <point x="266" y="633"/>
      <point x="266" y="579" type="curve" smooth="yes"/>
      <point x="266" y="518"/>
      <point x="242" y="486"/>
    </contour>
  </outline>
</glyph>
<glyph name="guillemetright" format="2">
  <advance width="471"/>
  <unicode hex="00BB"/>
  <outline>
    <contour>
      <point x="282" y="454" type="curve" smooth="yes"/>
      <point x="263" y="454"/>
      <point x="242" y="433"/>
      <point x="242" y="424" type="curve" smooth="yes"/>
      <point x="242" y="417"/>
      <point x="246" y="408"/>
      <point x="250" y="402" type="curve" smooth="yes"/>
      <point x="345" y="257" type="line"/>
      <point x="219" y="113" type="line" smooth="yes"/>
      <point x="212" y="105"/>
      <point x="209" y="97"/>
      <point x="209" y="91" type="curve" smooth="yes"/>
      <point x="209" y="75"/>
      <point x="230" y="61"/>
      <point x="241" y="61" type="curve" smooth="yes"/>
      <point x="249" y="61"/>
      <point x="256" y="65"/>
      <point x="264" y="73" type="curve" smooth="yes"/>
      <point x="411" y="229" type="line" smooth="yes"/>
      <point x="423" y="242"/>
      <point x="426" y="250"/>
      <point x="426" y="260" type="curve" smooth="yes"/>
      <point x="426" y="268"/>
      <point x="423" y="275"/>
      <point x="416" y="285" type="curve" smooth="yes"/>
      <point x="303" y="441" type="line" smooth="yes"/>
      <point x="297" y="449"/>
      <point x="290" y="454"/>
    </contour>
    <contour>
      <point x="110" y="454" type="curve" smooth="yes"/>
      <point x="91" y="454"/>
      <point x="70" y="433"/>
      <point x="70" y="424" type="curve" smooth="yes"/>
      <point x="70" y="417"/>
      <point x="74" y="408"/>
      <point x="78" y="402" type="curve" smooth="yes"/>
      <point x="173" y="257" type="line"/>
      <point x="47" y="113" type="line" smooth="yes"/>
      <point x="40" y="105"/>
      <point x="37" y="97"/>
      <point x="37" y="91" type="curve" smooth="yes"/>
      <point x="37" y="75"/>
      <point x="58" y="61"/>
      <point x="69" y="61" type="curve" smooth="yes"/>
      <point x="77" y="61"/>
      <point x="84" y="65"/>
      <point x="92" y="73" type="curve" smooth="yes"/>
      <point x="239" y="229" type="line" smooth="yes"/>
      <point x="251" y="242"/>
      <point x="254" y="250"/>
      <point x="254" y="260" type="curve" smooth="yes"/>
      <point x="254" y="268"/>
      <point x="251" y="275"/>
      <point x="244" y="285" type="curve" smooth="yes"/>
      <point x="131" y="441" type="line" smooth="yes"/>
      <point x="125" y="449"/>
      <point x="118" y="454"/>
    </contour>
  </outline>
</glyph>
<glyph name="questiondown" format="2">
  <advance width="425"/>
  <unicode hex="00BF"/>
  <outline>
    <contour>
      <point x="288" y="321" type="curve" smooth="yes"/>
      <point x="273" y="321" type="line" smooth="yes"/>
      <point x="250" y="321"/>
      <point x="241" y="314"/>
      <point x="238" y="301" type="curve" smooth="yes"/>
      <point x="226" y="250"/>
      <point x="183" y="209"/>
      <point x="137" y="168" type="curve" smooth="yes"/>
      <point x="74" y="111"/>
      <point x="6" y="53"/>
      <point x="6" y="-33" type="curve" smooth="yes"/>
      <point x="6" y="-115"/>
      <point x="70" y="-183"/>
      <point x="194" y="-183" type="curve" smooth="yes"/>
      <point x="270" y="-183"/>
      <point x="372" y="-159"/>
      <point x="372" y="-124" type="curve" smooth="yes"/>
      <point x="372" y="-108"/>
      <point x="356" y="-75"/>
      <point x="346" y="-75" type="curve" smooth="yes"/>
      <point x="331" y="-75"/>
      <point x="281" y="-109"/>
      <point x="218" y="-109" type="curve" smooth="yes"/>
      <point x="141" y="-109"/>
      <point x="102" y="-80"/>
      <point x="102" y="-20" type="curve" smooth="yes"/>
      <point x="102" y="39"/>
      <point x="149" y="81"/>
      <point x="213" y="139" type="curve" smooth="yes"/>
      <point x="273" y="193"/>
      <point x="316" y="257"/>
      <point x="316" y="300" type="curve" smooth="yes"/>
      <point x="316" y="313"/>
      <point x="308" y="321"/>
    </contour>
    <contour>
      <point x="310" y="525" type="curve" smooth="yes"/>
      <point x="293" y="525" type="line" smooth="yes"/>
      <point x="267" y="525"/>
      <point x="252" y="517"/>
      <point x="250" y="503" type="curve" smooth="yes"/>
      <point x="243" y="437" type="line"/>
      <point x="243" y="423"/>
      <point x="252" y="415"/>
      <point x="281" y="415" type="curve" smooth="yes"/>
      <point x="298" y="415" type="line" smooth="yes"/>
      <point x="326" y="415"/>
      <point x="339" y="423"/>
      <point x="340" y="437" type="curve" smooth="yes"/>
      <point x="347" y="503" type="line"/>
      <point x="347" y="517"/>
      <point x="339" y="525"/>
    </contour>
  </outline>
</glyph>
<glyph name="AE" format="2">
  <advance width="915"/>
  <unicode hex="00C6"/>
  <anchor x="458" y="700" name="top"/>
  <outline>
    <contour>
      <point x="-9" y="-2" type="curve" smooth="yes"/>
      <point x="-4" y="-2" type="line" smooth="yes"/>
      <point x="14" y="-2"/>
      <point x="30" y="3"/>
      <point x="37" y="14" type="curve" smooth="yes"/>
      <point x="134" y="178" type="line"/>
      <point x="429" y="178" type="line"/>
      <point x="445" y="29" type="line" smooth="yes"/>
      <point x="447" y="9"/>
      <point x="457" y="0"/>
      <point x="478" y="0" type="curve" smooth="yes"/>
      <point x="766" y="0" type="line" smooth="yes"/>
      <point x="780" y="0"/>
      <point x="792" y="6"/>
      <point x="794" y="30" type="curve" smooth="yes"/>
      <point x="796" y="51" type="line" smooth="yes"/>
      <point x="798" y="72"/>
      <point x="788" y="76"/>
      <point x="774" y="76" type="curve" smooth="yes"/>
      <point x="530" y="76" type="line"/>
      <point x="502" y="320" type="line"/>
      <point x="767" y="320" type="line" smooth="yes"/>
      <point x="781" y="320"/>
      <point x="793" y="326"/>
      <point x="795" y="350" type="curve" smooth="yes"/>
      <point x="797" y="371" type="line" smooth="yes"/>
      <point x="799" y="392"/>
      <point x="789" y="396"/>
      <point x="775" y="396" type="curve" smooth="yes"/>
      <point x="494" y="396" type="line"/>
      <point x="468" y="624" type="line"/>
      <point x="830" y="624" type="line" smooth="yes"/>
      <point x="844" y="624"/>
      <point x="856" y="630"/>
      <point x="858" y="654" type="curve" smooth="yes"/>
      <point x="860" y="675" type="line" smooth="yes"/>
      <point x="862" y="696"/>
      <point x="852" y="700"/>
      <point x="838" y="700" type="curve" smooth="yes"/>
      <point x="392" y="700" type="line" smooth="yes"/>
      <point x="371" y="700"/>
      <point x="358" y="692"/>
      <point x="347" y="673" type="curve" smooth="yes"/>
      <point x="-41" y="31" type="line" smooth="yes"/>
      <point x="-45" y="24"/>
      <point x="-47" y="17"/>
      <point x="-47" y="13" type="curve" smooth="yes"/>
      <point x="-47" y="3"/>
      <point x="-38" y="-2"/>
    </contour>
    <contour>
      <point x="180" y="253" type="line"/>
      <point x="360" y="552" type="line"/>
      <point x="387" y="610" type="line"/>
      <point x="389" y="610" type="line"/>
      <point x="389" y="552" type="line"/>
      <point x="419" y="253" type="line"/>
    </contour>
  </outline>
</glyph>
<glyph name="Eth" format="2">
  <advance width="695"/>
  <unicode hex="00D0"/>
  <outline>
    <contour>
      <point x="29" y="320" type="curve" smooth="yes"/>
      <point x="332" y="320" type="line" smooth="yes"/>
      <point x="346" y="320"/>
      <point x="353" y="330"/>
      <point x="355" y="352" type="curve" smooth="yes"/>
      <point x="356" y="364" type="line" smooth="yes"/>
      <point x="358" y="386"/>
      <point x="352" y="396"/>
      <point x="336" y="396" type="curve" smooth="yes"/>
      <point x="37" y="396" type="line" smooth="yes"/>
      <point x="22" y="396"/>
      <point x="14" y="389"/>
      <point x="12" y="367" type="curve" smooth="yes"/>
      <point x="10" y="349" type="line" smooth="yes"/>
      <point x="8" y="330"/>
      <point x="15" y="320"/>
    </contour>
    <component base="D"/>
  </outline>
</glyph>
<glyph name="multiply" format="2">
  <advance width="560"/>
  <unicode hex="00D7"/>
  <outline>
    <contour>
      <point x="71" y="0" type="curve" smooth="yes"/>
      <point x="75" y="0"/>
      <point x="80" y="3"/>
      <point x="85" y="8" type="curve" smooth="yes"/>
      <point x="275" y="181" type="line"/>
      <point x="427" y="8" type="line" smooth="yes"/>
      <point x="432" y="3"/>
      <point x="437" y="0"/>
      <point x="442" y="0" type="curve" smooth="yes"/>
      <point x="449" y="0"/>
      <point x="485" y="30"/>
      <point x="485" y="42" type="curve" smooth="yes"/>
      <point x="485" y="46"/>
      <point x="484" y="51"/>
      <point x="480" y="56" type="curve" smooth="yes"/>
      <point x="327" y="228" type="line"/>
      <point x="516" y="399" type="line" smooth="yes"/>
      <point x="521" y="404"/>
      <point x="524" y="408"/>
      <point x="524" y="413" type="curve" smooth="yes"/>
      <point x="524" y="427"/>
      <point x="499" y="454"/>
      <point x="488" y="454" type="curve" smooth="yes"/>
      <point x="483" y="454"/>
      <point x="478" y="451"/>
      <point x="473" y="446" type="curve" smooth="yes"/>
      <point x="285" y="275" type="line"/>
      <point x="132" y="447" type="line" smooth="yes"/>
      <point x="127" y="452"/>
      <point x="122" y="454"/>
      <point x="118" y="454" type="curve" smooth="yes"/>
      <point x="106" y="454"/>
      <point x="73" y="425"/>
      <point x="73" y="416" type="curve" smooth="yes"/>
      <point x="73" y="409"/>
      <point x="75" y="404"/>
      <point x="80" y="399" type="curve" smooth="yes"/>
      <point x="233" y="228" type="line"/>
      <point x="44" y="56" type="line" smooth="yes"/>
      <point x="38" y="51"/>
      <point x="34" y="43"/>
      <point x="34" y="39" type="curve" smooth="yes"/>
      <point x="34" y="31"/>
      <point x="58" y="0"/>
    </contour>
  </outline>
</glyph>
<glyph name="Oslash" format="2">
  <advance width="731"/>
  <unicode hex="00D8"/>
  <anchor x="406" y="700" name="top"/>
  <outline>
    <contour>
      <point x="19" y="1" type="curve" smooth="yes"/>
      <point x="23" y="1"/>
      <point x="28" y="4"/>
      <point x="33" y="9" type="curve" smooth="yes"/>
      <point x="696" y="669" type="line" smooth="yes"/>
      <point x="701" y="674"/>
      <point x="703" y="678"/>
      <point x="703" y="683" type="curve" smooth="yes"/>
      <point x="703" y="692"/>
      <point x="692" y="702"/>
      <point x="683" y="702" type="curve" smooth="yes"/>
      <point x="678" y="702"/>
      <point x="674" y="700"/>
      <point x="669" y="695" type="curve" smooth="yes"/>
      <point x="7" y="35" type="line" smooth="yes"/>
      <point x="2" y="30"/>
      <point x="-1" y="25"/>
      <point x="-1" y="21" type="curve" smooth="yes"/>
      <point x="-1" y="13"/>
      <point x="12" y="1"/>
    </contour>
    <component base="O"/>
  </outline>
</glyph>
<glyph name="eth" format="2">
  <advance width="569"/>
  <unicode hex="00F0"/>
  <outline>
    <contour>
      <point x="261" y="-6" type="curve" smooth="yes"/>
      <point x="431" y="-6"/>
      <point x="509" y="127"/>
      <point x="509" y="294" type="curve" smooth="yes"/>
      <point x="509" y="423"/>
      <point x="464" y="572"/>
      <point x="378" y="697" type="curve" smooth="yes"/>
      <point x="371" y="707"/>
      <point x="366" y="713"/>
      <point x="352" y="713" type="curve" smooth="yes"/>
      <point x="341" y="713"/>
      <point x="318" y="710"/>
      <point x="312" y="709" type="curve" smooth="yes"/>
      <point x="304" y="708"/>
      <point x="300" y="704"/>
      <point x="300" y="699" type="curve" smooth="yes"/>
      <point x="300" y="696"/>
      <point x="301" y="693"/>
      <point x="304" y="689" type="curve"/>
      <point x="355" y="610"/>
      <point x="401" y="507"/>
      <point x="413" y="450" type="curve"/>
      <point x="441" y="449" type="line"/>
      <point x="410" y="507"/>
      <point x="349" y="529"/>
      <point x="287" y="529" type="curve" smooth="yes"/>
      <point x="135" y="529"/>
      <point x="42" y="409"/>
      <point x="42" y="234" type="curve" smooth="yes"/>
      <point x="42" y="79"/>
      <point x="124" y="-6"/>
    </contour>
    <contour>
      <point x="261" y="66" type="curve" smooth="yes"/>
      <point x="170" y="66"/>
      <point x="128" y="132"/>
      <point x="128" y="244" type="curve" smooth="yes"/>
      <point x="128" y="380"/>
      <point x="180" y="457"/>
      <point x="286" y="457" type="curve" smooth="yes"/>
      <point x="370" y="457"/>
      <point x="422" y="409"/>
      <point x="422" y="277" type="curve" smooth="yes"/>
      <point x="422" y="143"/>
      <point x="369" y="66"/>
    </contour>
    <contour>
      <point x="260" y="595" type="curve" smooth="yes"/>
      <point x="488" y="626" type="line" smooth="yes"/>
      <point x="496" y="627"/>
      <point x="504" y="630"/>
      <point x="504" y="641" type="curve" smooth="yes"/>
      <point x="504" y="650"/>
      <point x="500" y="673"/>
      <point x="483" y="671" type="curve" smooth="yes"/>
      <point x="254" y="640" type="line" smooth="yes"/>
      <point x="246" y="639"/>
      <point x="237" y="636"/>
      <point x="237" y="624" type="curve" smooth="yes"/>
      <point x="237" y="611"/>
      <point x="247" y="593"/>
    </contour>
  </outline>
</glyph>
<glyph name="divide" format="2">
  <advance width="560"/>
  <unicode hex="00F7"/>
  <outline>
    <contour>
      <point x="66" y="194" type="curve" smooth="yes"/>
      <point x="479" y="194" type="line" smooth="yes"/>
      <point x="491" y="194"/>
      <point x="505" y="200"/>
      <point x="506" y="224" type="curve" smooth="yes"/>
      <point x="507" y="240" type="line" smooth="yes"/>
      <point x="508" y="262"/>
      <point x="500" y="266"/>
      <point x="488" y="266" type="curve" smooth="yes"/>
      <point x="73" y="266" type="line" smooth="yes"/>
      <point x="57" y="266"/>
      <point x="49" y="260"/>
      <point x="47" y="236" type="curve" smooth="yes"/>
      <point x="46" y="222" type="line" smooth="yes"/>
      <point x="44" y="200"/>
      <point x="54" y="194"/>
    </contour>
    <contour>
      <point x="253" y="-2" type="curve" smooth="yes"/>
      <point x="257" y="-2" type="line" smooth="yes"/>
      <point x="285" y="-2"/>
      <point x="297" y="6"/>
      <point x="299" y="20" type="curve" smooth="yes"/>
      <point x="305" y="69" type="line" smooth="yes"/>
      <point x="307" y="85"/>
      <point x="296" y="93"/>
      <point x="267" y="93" type="curve" smooth="yes"/>
      <point x="263" y="93" type="line" smooth="yes"/>
      <point x="235" y="93"/>
      <point x="222" y="85"/>
      <point x="221" y="71" type="curve" smooth="yes"/>
      <point x="215" y="22" type="line" smooth="yes"/>
      <point x="213" y="6"/>
      <point x="224" y="-2"/>
    </contour>
    <contour>
      <point x="292" y="368" type="curve" smooth="yes"/>
      <point x="296" y="368" type="line" smooth="yes"/>
      <point x="324" y="368"/>
      <point x="336" y="376"/>
      <point x="338" y="390" type="curve" smooth="yes"/>
      <point x="344" y="439" type="line" smooth="yes"/>
      <point x="346" y="455"/>
      <point x="335" y="463"/>
      <point x="306" y="463" type="curve" smooth="yes"/>
      <point x="302" y="463" type="line" smooth="yes"/>
      <point x="274" y="463"/>
      <point x="261" y="455"/>
      <point x="260" y="441" type="curve" smooth="yes"/>
      <point x="254" y="392" type="line" smooth="yes"/>
      <point x="252" y="376"/>
      <point x="263" y="368"/>
    </contour>
  </outline>
</glyph>
<glyph name="oslash" format="2">
  <advance width="569"/>
  <unicode hex="00F8"/>
  <anchor x="312" y="523" name="top"/>
  <outline>
    <contour>
      <point x="58" y="0" type="curve" smooth="yes"/>
      <point x="63" y="0"/>
      <point x="68" y="3"/>
      <point x="72" y="7" type="curve" smooth="yes"/>
      <point x="535" y="487" type="line" smooth="yes"/>
      <point x="540" y="492"/>
      <point x="542" y="496"/>
      <point x="542" y="501" type="curve" smooth="yes"/>
      <point x="542" y="509"/>
      <point x="529" y="523"/>
      <point x="521" y="523" type="curve" smooth="yes"/>
      <point x="516" y="523"/>
      <point x="512" y="520"/>
      <point x="507" y="515" type="curve" smooth="yes"/>
      <point x="44" y="36" type="line" smooth="yes"/>
      <point x="39" y="31"/>
      <point x="36" y="27"/>
      <point x="36" y="22" type="curve" smooth="yes"/>
      <point x="36" y="14"/>
      <point x="49" y="0"/>
    </contour>
    <component base="o"/>
  </outline>
</glyph>
<glyph name="thorn" format="2">
  <advance width="573"/>
  <unicode hex="00FE"/>
  <outline>
    <contour>
      <point x="76" y="-208" type="curve" smooth="yes"/>
      <point x="80" y="-208" type="line" smooth="yes"/>
      <point x="103" y="-208"/>
      <point x="121" y="-200"/>
      <point x="122" y="-186" type="curve" smooth="yes"/>
      <point x="146" y="45" type="line"/>
      <point x="169" y="25"/>
      <point x="215" y="-6"/>
      <point x="279" y="-6" type="curve" smooth="yes"/>
      <point x="423" y="-6"/>
      <point x="515" y="127"/>
      <point x="515" y="313" type="curve" smooth="yes"/>
      <point x="515" y="487"/>
      <point x="410" y="529"/>
      <point x="343" y="529" type="curve" smooth="yes"/>
      <point x="285" y="529"/>
      <point x="229" y="502"/>
      <point x="188" y="436" type="curve"/>
      <point x="219" y="731" type="line"/>
      <point x="219" y="743"/>
      <point x="208" y="752"/>
      <point x="181" y="752" type="curve" smooth="yes"/>
      <point x="177" y="752" type="line" smooth="yes"/>
      <point x="152" y="752"/>
      <point x="136" y="744"/>
      <point x="135" y="730" type="curve" smooth="yes"/>
      <point x="38" y="-187" type="line"/>
      <point x="38" y="-199"/>
      <point x="49" y="-208"/>
    </contour>
    <contour>
      <point x="267" y="66" type="curve" smooth="yes"/>
      <point x="210" y="66"/>
      <point x="171" y="94"/>
      <point x="153" y="110" type="curve"/>
      <point x="174" y="305" type="line"/>
      <point x="216" y="423"/>
      <point x="280" y="456"/>
      <point x="324" y="456" type="curve" smooth="yes"/>
      <point x="381" y="456"/>
      <point x="428" y="421"/>
      <point x="428" y="307" type="curve" smooth="yes"/>
      <point x="428" y="187"/>
      <point x="396" y="66"/>
    </contour>
  </outline>
</glyph>
<glyph name="dcroat" format="2">
  <advance width="565"/>
  <unicode hex="0111"/>
  <outline>
    <contour>
      <point x="255" y="595" type="curve"/>
      <point x="578" y="595" type="line" smooth="yes"/>
      <point x="591" y="595"/>
      <point x="599" y="604"/>
      <point x="601" y="625" type="curve" smooth="yes"/>
      <point x="602" y="635" type="line" smooth="yes"/>
      <point x="604" y="656"/>
      <point x="599" y="665"/>
      <point x="585" y="665" type="curve" smooth="yes"/>
      <point x="262" y="665" type="line" smooth="yes"/>
      <point x="250" y="665"/>
      <point x="241" y="656"/>
      <point x="239" y="635" type="curve" smooth="yes"/>
      <point x="238" y="625" type="line" smooth="yes"/>
      <point x="236" y="604"/>
      <point x="240" y="595"/>
    </contour>
    <component base="d"/>
  </outline>
</glyph>
<glyph name="hbar" format="2">
  <advance width="565"/>
  <unicode hex="0127"/>
  <outline>
    <contour>
      <point x="54" y="595" type="curve" smooth="yes"/>
      <point x="359" y="595" type="line" smooth="yes"/>
      <point x="372" y="595"/>
      <point x="380" y="604"/>
      <point x="382" y="625" type="curve" smooth="yes"/>
      <point x="383" y="635" type="line" smooth="yes"/>
      <point x="385" y="656"/>
      <point x="380" y="665"/>
      <point x="366" y="665" type="curve" smooth="yes"/>
      <point x="61" y="665" type="line" smooth="yes"/>
      <point x="49" y="665"/>
      <point x="40" y="656"/>
      <point x="38" y="635" type="curve" smooth="yes"/>
      <point x="37" y="625" type="line" smooth="yes"/>
      <point x="35" y="604"/>
      <point x="39" y="595"/>
    </contour>
    <component base="h"/>
  </outline>
</glyph>
<glyph name="itilde" format="2">
  <advance width="265"/>
  <unicode hex="0129"/>
  <outline>
    <contour>
      <point x="29.4" y="589" type="curve" smooth="yes"/>
      <point x="44.7" y="589"/>
      <point x="51.0" y="630"/>
      <point x="96.9" y="630" type="curve" smooth="yes"/>
      <point x="122.1" y="630"/>
      <point x="175.20000000000002" y="593"/>
      <point x="213.9" y="593" type="curve" smooth="yes"/>
      <point x="256.2" y="593"/>
      <point x="286.8" y="616"/>
      <point x="304.8" y="661" type="curve" smooth="yes"/>
      <point x="308.40000000000003" y="670"/>
      <point x="309.3" y="674"/>
      <point x="309.3" y="676" type="curve" smooth="yes"/>
      <point x="309.3" y="684"/>
      <point x="288.6" y="696"/>
      <point x="283.2" y="696" type="curve" smooth="yes"/>
      <point x="270.6" y="696"/>
      <point x="261.6" y="655"/>
      <point x="213.0" y="655" type="curve" smooth="yes"/>
      <point x="179.70000000000002" y="655"/>
      <point x="142.8" y="692"/>
      <point x="98.70000000000002" y="692" type="curve" smooth="yes"/>
      <point x="59.10000000000001" y="692"/>
      <point x="28.5" y="669"/>
      <point x="7.800000000000004" y="624" type="curve" smooth="yes"/>
      <point x="6.0" y="620"/>
      <point x="3.3000000000000043" y="614"/>
      <point x="3.3000000000000043" y="609" type="curve" smooth="yes"/>
      <point x="3.3000000000000043" y="599"/>
      <point x="23.1" y="589"/>
    </contour>
    <component base="idotless"/>
  </outline>
</glyph>
<glyph name="idotless" format="2">
  <advance width="265"/>
  <unicode hex="0131"/>
  <anchor x="119" y="0" name="bottom"/>
  <anchor x="199" y="0" name="ogonek"/>
  <anchor x="146" y="523" name="top"/>
  <outline>
    <contour>
      <point x="144" y="-6" type="curve" smooth="yes"/>
      <point x="170" y="-6"/>
      <point x="207" y="2"/>
      <point x="212" y="27" type="curve" smooth="yes"/>
      <point x="216" y="49"/>
      <point x="216" y="62"/>
      <point x="216" y="63" type="curve" smooth="yes"/>
      <point x="216" y="69"/>
      <point x="213" y="71"/>
      <point x="210" y="71" type="curve" smooth="yes"/>
      <point x="204" y="71"/>
      <point x="192" y="64"/>
      <point x="173" y="64" type="curve" smooth="yes"/>
      <point x="153" y="64"/>
      <point x="146" y="76"/>
      <point x="149" y="107" type="curve" smooth="yes"/>
      <point x="188" y="503" type="line" smooth="yes"/>
      <point x="189" y="518"/>
      <point x="178" y="525"/>
      <point x="150" y="525" type="curve" smooth="yes"/>
      <point x="146" y="525" type="line" smooth="yes"/>
      <point x="120" y="525"/>
      <point x="106" y="519"/>
      <point x="104" y="503" type="curve" smooth="yes"/>
      <point x="65" y="109" type="line" smooth="yes"/>
      <point x="56" y="23"/>
      <point x="96" y="-6"/>
    </contour>
  </outline>
</glyph>
<glyph name="ldot" format="2">
  <advance width="297"/>
  <unicode hex="0140"/>
  <outline>
    <contour>
      <point x="296" y="314" type="curve" smooth="yes"/>
      <point x="327" y="314"/>
      <point x="351" y="334"/>
      <point x="351" y="369" type="curve" smooth="yes"/>
      <point x="351" y="395"/>
      <point x="330" y="417"/>
      <point x="303" y="417" type="curve" smooth="yes"/>
      <point x="270" y="417"/>
      <point x="248" y="394"/>
      <point x="248" y="361" type="curve" smooth="yes"/>
      <point x="248" y="335"/>
      <point x="269" y="314"/>
    </contour>
    <component base="l"/>
  </outline>
</glyph>
<glyph name="Lslash" format="2">
  <advance width="486"/>
  <unicode hex="0141"/>
  <outline>
    <contour>
      <point x="-6" y="232" type="curve" smooth="yes"/>
      <point x="-4" y="232"/>
      <point x="1" y="234"/>
      <point x="5" y="236" type="curve" smooth="yes"/>
      <point x="300" y="402" type="line" smooth="yes"/>
      <point x="306" y="406"/>
      <point x="307" y="410"/>
      <point x="308" y="420" type="curve" smooth="yes"/>
      <point x="309" y="430" type="line" smooth="yes"/>
      <point x="310" y="439"/>
      <point x="309" y="445"/>
      <point x="304" y="445" type="curve" smooth="yes"/>
      <point x="301" y="445"/>
      <point x="295" y="442"/>
      <point x="291" y="440" type="curve" smooth="yes"/>
      <point x="10" y="282" type="line" smooth="yes"/>
      <point x="-4" y="274"/>
      <point x="-10" y="270"/>
      <point x="-11" y="258" type="curve" smooth="yes"/>
      <point x="-12" y="246" type="line" smooth="yes"/>
      <point x="-13" y="237"/>
      <point x="-11" y="232"/>
    </contour>
    <component base="L"/>
  </outline>
</glyph>
<glyph name="lslash" format="2">
  <advance width="293"/>
  <unicode hex="0142"/>
  <outline>
    <contour>
      <point x="55" y="323" type="curve" smooth="yes"/>
      <point x="57" y="323"/>
      <point x="62" y="325"/>
      <point x="66" y="327" type="curve"/>
      <point x="244" y="426" type="line" smooth="yes"/>
      <point x="260" y="434"/>
      <point x="265" y="439"/>
      <point x="266" y="449" type="curve" smooth="yes"/>
      <point x="267" y="462" type="line" smooth="yes"/>
      <point x="268" y="472"/>
      <point x="266" y="476"/>
      <point x="260" y="476" type="curve" smooth="yes"/>
      <point x="257" y="476"/>
      <point x="253" y="474"/>
      <point x="249" y="472" type="curve"/>
      <point x="71" y="373" type="line" smooth="yes"/>
      <point x="55" y="365"/>
      <point x="50" y="360"/>
      <point x="49" y="349" type="curve" smooth="yes"/>
      <point x="48" y="337" type="line" smooth="yes"/>
      <point x="47" y="328"/>
      <point x="50" y="323"/>
    </contour>
    <component base="l"/>
  </outline>
</glyph>
<glyph name="Eng" format="2">
  <advance width="719"/>
  <unicode hex="014A"/>
  <outline>
    <contour>
      <point x="465" y="-212" type="curve" smooth="yes"/>
      <point x="516" y="-212"/>
      <point x="585" y="-191"/>
      <point x="597" y="-74" type="curve" smooth="yes"/>
      <point x="675" y="677" type="line" smooth="yes"/>
      <point x="677" y="694"/>
      <point x="667" y="702"/>
      <point x="638" y="702" type="curve" smooth="yes"/>
      <point x="631" y="702" type="line" smooth="yes"/>
      <point x="603" y="702"/>
      <point x="590" y="694"/>
      <point x="589" y="680" type="curve" smooth="yes"/>
      <point x="542" y="232" type="line" smooth="yes"/>
      <point x="538" y="190"/>
      <point x="537" y="169"/>
      <point x="537" y="146" type="curve"/>
      <point x="533" y="145" type="line"/>
      <point x="525" y="164"/>
      <point x="519" y="183"/>
      <point x="481" y="250" type="curve" smooth="yes"/>
      <point x="234" y="683" type="line" smooth="yes"/>
      <point x="226" y="697"/>
      <point x="216" y="702"/>
      <point x="194" y="702" type="curve" smooth="yes"/>
      <point x="173" y="702" type="line" smooth="yes"/>
      <point x="145" y="702"/>
      <point x="132" y="694"/>
      <point x="131" y="680" type="curve" smooth="yes"/>
      <point x="63" y="25" type="line" smooth="yes"/>
      <point x="61" y="6"/>
      <point x="70" y="-2"/>
      <point x="100" y="-2" type="curve" smooth="yes"/>
      <point x="107" y="-2" type="line" smooth="yes"/>
      <point x="133" y="-2"/>
      <point x="148" y="6"/>
      <point x="149" y="20" type="curve" smooth="yes"/>
      <point x="198" y="484" type="line" smooth="yes"/>
      <point x="201" y="509"/>
      <point x="203" y="542"/>
      <point x="202" y="564" type="curve"/>
      <point x="206" y="565" type="line"/>
      <point x="211" y="545"/>
      <point x="220" y="523"/>
      <point x="249" y="472" type="curve" smooth="yes"/>
      <point x="521" y="-4" type="line"/>
      <point x="514" y="-66" type="line" smooth="yes"/>
      <point x="507" y="-127"/>
      <point x="485" y="-140"/>
      <point x="454" y="-140" type="curve" smooth="yes"/>
      <point x="419" y="-140"/>
      <point x="406" y="-123"/>
      <point x="398" y="-123" type="curve" smooth="yes"/>
      <point x="393" y="-123"/>
      <point x="387" y="-129"/>
      <point x="387" y="-171" type="curve" smooth="yes"/>
      <point x="387" y="-195"/>
      <point x="419" y="-212"/>
    </contour>
  </outline>
</glyph>
<glyph name="eng" format="2">
  <advance width="557"/>
  <unicode hex="014B"/>
  <outline>
    <contour>
      <point x="305" y="-212" type="curve" smooth="yes"/>
      <point x="356" y="-212"/>
      <point x="425" y="-190"/>
      <point x="437" y="-74" type="curve" smooth="yes"/>
      <point x="484" y="379" type="line" smooth="yes"/>
      <point x="494" y="473"/>
      <point x="451" y="529"/>
      <point x="354" y="529" type="curve" smooth="yes"/>
      <point x="293" y="529"/>
      <point x="231" y="502"/>
      <point x="177" y="428" type="curve"/>
      <point x="177" y="485"/>
      <point x="172" y="514"/>
      <point x="151" y="514" type="curve" smooth="yes"/>
      <point x="144" y="514"/>
      <point x="95" y="513"/>
      <point x="95" y="491" type="curve" smooth="yes"/>
      <point x="95" y="485"/>
      <point x="96" y="481"/>
      <point x="96" y="457" type="curve" smooth="yes"/>
      <point x="96" y="436"/>
      <point x="91" y="377"/>
      <point x="85" y="321" type="curve" smooth="yes"/>
      <point x="53" y="21" type="line"/>
      <point x="51" y="7"/>
      <point x="63" y="-2"/>
      <point x="90" y="-2" type="curve" smooth="yes"/>
      <point x="94" y="-2" type="line" smooth="yes"/>
      <point x="120" y="-2"/>
      <point x="135" y="6"/>
      <point x="136" y="20" type="curve" smooth="yes"/>
      <point x="165" y="295" type="line"/>
      <point x="208" y="424"/>
      <point x="280" y="456"/>
      <point x="324" y="456" type="curve" smooth="yes"/>
      <point x="375" y="456"/>
      <point x="405" y="430"/>
      <point x="399" y="369" type="curve" smooth="yes"/>
      <point x="354" y="-66" type="line" smooth="yes"/>
      <point x="348" y="-126"/>
      <point x="325" y="-140"/>
      <point x="294" y="-140" type="curve" smooth="yes"/>
      <point x="259" y="-140"/>
      <point x="246" y="-123"/>
      <point x="238" y="-123" type="curve" smooth="yes"/>
      <point x="233" y="-123"/>
      <point x="227" y="-129"/>
      <point x="227" y="-171" type="curve" smooth="yes"/>
      <point x="227" y="-195"/>
      <point x="259" y="-212"/>
    </contour>
  </outline>
</glyph>
<glyph name="OE" format="2">
  <advance width="1015"/>
  <unicode hex="0152"/>
  <anchor x="520" y="0" name="bottom"/>
  <anchor x="511" y="700" name="top"/>
  <outline>
    <contour>
      <point x="345" y="-6" type="curve" smooth="yes"/>
      <point x="449" y="-6"/>
      <point x="518" y="33"/>
      <point x="574" y="104" type="curve"/>
      <point x="561" y="125" type="line"/>
      <point x="551" y="27" type="line" smooth="yes"/>
      <point x="549" y="7"/>
      <point x="559" y="0"/>
      <point x="578" y="0" type="curve" smooth="yes"/>
      <point x="931" y="0" type="line" smooth="yes"/>
      <point x="945" y="0"/>
      <point x="955" y="9"/>
      <point x="957" y="33" type="curve" smooth="yes"/>
      <point x="958" y="48" type="line" smooth="yes"/>
      <point x="959" y="67"/>
      <point x="953" y="76"/>
      <point x="939" y="76" type="curve" smooth="yes"/>
      <point x="644" y="76" type="line"/>
      <point x="669" y="320" type="line"/>
      <point x="931" y="320" type="line" smooth="yes"/>
      <point x="945" y="320"/>
      <point x="955" y="329"/>
      <point x="957" y="353" type="curve" smooth="yes"/>
      <point x="958" y="368" type="line" smooth="yes"/>
      <point x="959" y="387"/>
      <point x="953" y="396"/>
      <point x="939" y="396" type="curve" smooth="yes"/>
      <point x="677" y="396" type="line"/>
      <point x="701" y="624" type="line"/>
      <point x="995" y="624" type="line" smooth="yes"/>
      <point x="1009" y="624"/>
      <point x="1019" y="633"/>
      <point x="1021" y="657" type="curve" smooth="yes"/>
      <point x="1022" y="672" type="line" smooth="yes"/>
      <point x="1023" y="691"/>
      <point x="1017" y="700"/>
      <point x="1003" y="700" type="curve" smooth="yes"/>
      <point x="651" y="700" type="line" smooth="yes"/>
      <point x="630" y="700"/>
      <point x="621" y="691"/>
      <point x="618" y="670" type="curve" smooth="yes"/>
      <point x="606" y="573" type="line"/>
      <point x="621" y="591" type="line"/>
      <point x="591" y="662"/>
      <point x="505" y="706"/>
      <point x="402" y="706" type="curve" smooth="yes"/>
      <point x="138" y="706"/>
      <point x="62" y="496"/>
      <point x="62" y="312" type="curve" smooth="yes"/>
      <point x="62" y="95"/>
      <point x="167" y="-6"/>
    </contour>
    <contour>
      <point x="352" y="70" type="curve" smooth="yes"/>
      <point x="229" y="70"/>
      <point x="153" y="147"/>
      <point x="153" y="324" type="curve" smooth="yes"/>
      <point x="153" y="515"/>
      <point x="241" y="630"/>
      <point x="394" y="630" type="curve" smooth="yes"/>
      <point x="512" y="630"/>
      <point x="585" y="555"/>
      <point x="585" y="379" type="curve" smooth="yes"/>
      <point x="585" y="187"/>
      <point x="498" y="70"/>
    </contour>
  </outline>
</glyph>
<glyph name="oe" format="2">
  <advance width="875"/>
  <unicode hex="0153"/>
  <anchor x="445" y="523" name="top"/>
  <outline>
    <contour>
      <point x="279" y="-6" type="curve" smooth="yes"/>
      <point x="343" y="-6"/>
      <point x="392" y="9"/>
      <point x="435" y="45" type="curve"/>
      <point x="483" y="458" type="line"/>
      <point x="440" y="507"/>
      <point x="389" y="529"/>
      <point x="316" y="529" type="curve" smooth="yes"/>
      <point x="132" y="529"/>
      <point x="62" y="382"/>
      <point x="62" y="219" type="curve" smooth="yes"/>
      <point x="62" y="76"/>
      <point x="140" y="-6"/>
    </contour>
    <contour>
      <point x="284" y="66" type="curve" smooth="yes"/>
      <point x="196" y="66"/>
      <point x="148" y="120"/>
      <point x="148" y="222" type="curve" smooth="yes"/>
      <point x="148" y="369"/>
      <point x="198" y="457"/>
      <point x="305" y="457" type="curve" smooth="yes"/>
      <point x="393" y="457"/>
      <point x="440" y="403"/>
      <point x="440" y="300" type="curve" smooth="yes"/>
      <point x="440" y="144"/>
      <point x="391" y="66"/>
    </contour>
    <component base="e" xOffset="337"/>
  </outline>
</glyph>
<glyph name="tbar" format="2">
  <advance width="342"/>
  <unicode hex="0167"/>
  <outline>
    <contour>
      <point x="47" y="235" type="curve"/>
      <point x="258" y="235" type="line" smooth="yes"/>
      <point x="271" y="235"/>
      <point x="279" y="244"/>
      <point x="281" y="265" type="curve" smooth="yes"/>
      <point x="282" y="275" type="line" smooth="yes"/>
      <point x="284" y="296"/>
      <point x="279" y="305"/>
      <point x="265" y="305" type="curve" smooth="yes"/>
      <point x="54" y="305" type="line" smooth="yes"/>
      <point x="42" y="305"/>
      <point x="33" y="296"/>
      <point x="31" y="275" type="curve" smooth="yes"/>
      <point x="30" y="265" type="line" smooth="yes"/>
      <point x="28" y="244"/>
      <point x="32" y="235"/>
    </contour>
    <component base="t"/>
  </outline>
</glyph>
<glyph name="longs" format="2">
  <advance width="325"/>
  <unicode hex="017F"/>
  <outline>
    <contour>
      <point x="110" y="-2" type="curve" smooth="yes"/>
      <point x="114" y="-2" type="line" smooth="yes"/>
      <point x="140" y="-2"/>
      <point x="154" y="5"/>
      <point x="156" y="20" type="curve" smooth="yes"/>
      <point x="218" y="614" type="line" smooth="yes"/>
      <point x="224" y="674"/>
      <point x="247" y="684"/>
      <point x="278" y="684" type="curve" smooth="yes"/>
      <point x="308" y="684"/>
      <point x="319" y="677"/>
      <point x="323" y="677" type="curve" smooth="yes"/>
      <point x="335" y="677"/>
      <point x="349" y="714"/>
      <point x="349" y="725" type="curve" smooth="yes"/>
      <point x="349" y="755"/>
      <point x="295" y="756"/>
      <point x="278" y="756" type="curve" smooth="yes"/>
      <point x="225" y="756"/>
      <point x="146" y="740"/>
      <point x="135" y="624" type="curve" smooth="yes"/>
      <point x="124" y="523" type="line"/>
      <point x="85" y="523" type="line" smooth="yes"/>
      <point x="70" y="523"/>
      <point x="62" y="514"/>
      <point x="61" y="493" type="curve" smooth="yes"/>
      <point x="60" y="478" type="line" smooth="yes"/>
      <point x="59" y="460"/>
      <point x="63" y="451"/>
      <point x="77" y="451" type="curve" smooth="yes"/>
      <point x="117" y="451" type="line"/>
      <point x="72" y="20" type="line"/>
      <point x="72" y="5"/>
      <point x="82" y="-2"/>
    </contour>
  </outline>
</glyph>
<glyph name="Schwa" format="2">
  <advance width="672"/>
  <unicode hex="018F"/>
  <outline>
    <contour>
      <point x="288" y="-4" type="curve" smooth="yes"/>
      <point x="516" y="-4"/>
      <point x="610" y="205"/>
      <point x="610" y="403" type="curve" smooth="yes"/>
      <point x="610" y="664"/>
      <point x="447" y="706"/>
      <point x="333" y="706" type="curve" smooth="yes"/>
      <point x="213" y="706"/>
      <point x="120" y="659"/>
      <point x="120" y="628" type="curve" smooth="yes"/>
      <point x="120" y="617"/>
      <point x="131" y="579"/>
      <point x="146" y="579" type="curve" smooth="yes"/>
      <point x="163" y="579"/>
      <point x="211" y="632"/>
      <point x="325" y="632" type="curve" smooth="yes"/>
      <point x="432" y="632"/>
      <point x="523" y="585"/>
      <point x="523" y="397" type="curve" smooth="yes"/>
      <point x="523" y="234"/>
      <point x="455" y="68"/>
      <point x="299" y="68" type="curve" smooth="yes"/>
      <point x="207" y="68"/>
      <point x="154" y="126"/>
      <point x="154" y="204" type="curve" smooth="yes"/>
      <point x="154" y="303"/>
      <point x="238" y="365"/>
      <point x="393" y="365" type="curve" smooth="yes"/>
      <point x="445" y="365"/>
      <point x="507" y="358"/>
      <point x="532" y="350" type="curve"/>
      <point x="543" y="423" type="line"/>
      <point x="511" y="428"/>
      <point x="454" y="437"/>
      <point x="389" y="437" type="curve" smooth="yes"/>
      <point x="178" y="437"/>
      <point x="67" y="344"/>
      <point x="67" y="205" type="curve" smooth="yes"/>
      <point x="67" y="106"/>
      <point x="123" y="-4"/>
    </contour>
  </outline>
</glyph>
<glyph name="florin" format="2">
  <advance width="370"/>
  <unicode hex="0192"/>
  <outline>
    <contour>
      <point x="112" y="-208" type="curve" smooth="yes"/>
      <point x="116" y="-208" type="line" smooth="yes"/>
      <point x="142" y="-208"/>
      <point x="157" y="-201"/>
      <point x="159" y="-186" type="curve" smooth="yes"/>
      <point x="243" y="451" type="line"/>
      <point x="328" y="451" type="line" smooth="yes"/>
      <point x="342" y="451"/>
      <point x="350" y="457"/>
      <point x="352" y="481" type="curve" smooth="yes"/>
      <point x="353" y="495" type="line" smooth="yes"/>
      <point x="355" y="517"/>
      <point x="347" y="523"/>
      <point x="333" y="523" type="curve" smooth="yes"/>
      <point x="254" y="523" type="line"/>
      <point x="266" y="614" type="line" smooth="yes"/>
      <point x="274" y="674"/>
      <point x="297" y="684"/>
      <point x="328" y="684" type="curve" smooth="yes"/>
      <point x="358" y="684"/>
      <point x="369" y="677"/>
      <point x="373" y="677" type="curve" smooth="yes"/>
      <point x="385" y="677"/>
      <point x="401" y="716"/>
      <point x="401" y="726" type="curve" smooth="yes"/>
      <point x="401" y="755"/>
      <point x="348" y="756"/>
      <point x="331" y="756" type="curve" smooth="yes"/>
      <point x="278" y="756"/>
      <point x="198" y="740"/>
      <point x="183" y="624" type="curve" smooth="yes"/>
      <point x="170" y="523" type="line"/>
      <point x="129" y="523" type="line" smooth="yes"/>
      <point x="115" y="523"/>
      <point x="106" y="517"/>
      <point x="104" y="492" type="curve" smooth="yes"/>
      <point x="103" y="479" type="line" smooth="yes"/>
      <point x="101" y="458"/>
      <point x="110" y="451"/>
      <point x="124" y="451" type="curve" smooth="yes"/>
      <point x="159" y="451" type="line"/>
      <point x="75" y="-184" type="line" smooth="yes"/>
      <point x="73" y="-201"/>
      <point x="84" y="-208"/>
    </contour>
  </outline>
</glyph>
<glyph name="Ohorn" format="2">
  <advance width="731"/>
  <unicode hex="01A0"/>
  <anchor x="347" y="0" name="bottom"/>
  <anchor x="403" y="0" name="ogonek"/>
  <anchor x="393" y="700" name="top"/>
  <outline>
    <contour>
      <point x="345" y="-6" type="curve" smooth="yes"/>
      <point x="560" y="-6"/>
      <point x="687" y="142"/>
      <point x="687" y="386" type="curve" smooth="yes"/>
      <point x="687" y="527"/>
      <point x="643" y="606"/>
      <point x="590" y="650" type="curve"/>
      <point x="651" y="650"/>
      <point x="690" y="687"/>
      <point x="690" y="746" type="curve" smooth="yes"/>
      <point x="690" y="774"/>
      <point x="678" y="813"/>
      <point x="655" y="813" type="curve" smooth="yes"/>
      <point x="647" y="813"/>
      <point x="640" y="808"/>
      <point x="635" y="805" type="curve" smooth="yes"/>
      <point x="624" y="798" type="line" smooth="yes"/>
      <point x="616" y="793"/>
      <point x="606" y="786"/>
      <point x="606" y="777" type="curve" smooth="yes"/>
      <point x="606" y="764"/>
      <point x="627" y="746"/>
      <point x="627" y="721" type="curve" smooth="yes"/>
      <point x="627" y="695"/>
      <point x="605" y="682"/>
      <point x="573" y="682" type="curve" smooth="yes"/>
      <point x="556" y="682"/>
      <point x="535" y="686"/>
      <point x="513" y="691" type="curve" smooth="yes"/>
      <point x="473" y="700"/>
      <point x="443" y="706"/>
      <point x="402" y="706" type="curve" smooth="yes"/>
      <point x="138" y="706"/>
      <point x="62" y="496"/>
      <point x="62" y="312" type="curve" smooth="yes"/>
      <point x="62" y="95"/>
      <point x="167" y="-6"/>
    </contour>
    <contour>
      <point x="352" y="70" type="curve" smooth="yes"/>
      <point x="229" y="70"/>
      <point x="153" y="147"/>
      <point x="153" y="324" type="curve" smooth="yes"/>
      <point x="153" y="515"/>
      <point x="241" y="630"/>
      <point x="394" y="630" type="curve" smooth="yes"/>
      <point x="521" y="630"/>
      <point x="595" y="555"/>
      <point x="595" y="379" type="curve" smooth="yes"/>
      <point x="595" y="187"/>
      <point x="503" y="70"/>
    </contour>
  </outline>
</glyph>
<glyph name="ohorn" format="2">
  <advance width="569"/>
  <unicode hex="01A1"/>
  <anchor x="258" y="0" name="bottom"/>
  <anchor x="310" y="0" name="ogonek"/>
  <anchor x="319" y="523" name="top"/>
  <anchor x="374" y="523" name="topright"/>
  <outline>
    <contour>
      <point x="269" y="-6" type="curve" smooth="yes"/>
      <point x="426" y="-6"/>
      <point x="517" y="98"/>
      <point x="517" y="302" type="curve" smooth="yes"/>
      <point x="517" y="368"/>
      <point x="499" y="433"/>
      <point x="458" y="473" type="curve"/>
      <point x="516" y="473"/>
      <point x="559" y="516"/>
      <point x="559" y="570" type="curve" smooth="yes"/>
      <point x="559" y="599"/>
      <point x="544" y="636"/>
      <point x="523" y="636" type="curve" smooth="yes"/>
      <point x="519" y="636"/>
      <point x="515" y="635"/>
      <point x="511" y="632" type="curve"/>
      <point x="485" y="616" type="line" smooth="yes"/>
      <point x="479" y="612"/>
      <point x="475" y="605"/>
      <point x="475" y="599" type="curve" smooth="yes"/>
      <point x="475" y="588"/>
      <point x="495" y="570"/>
      <point x="495" y="543" type="curve" smooth="yes"/>
      <point x="495" y="520"/>
      <point x="477" y="505"/>
      <point x="449" y="505" type="curve" smooth="yes"/>
      <point x="426" y="505"/>
      <point x="416" y="510"/>
      <point x="394" y="515" type="curve" smooth="yes"/>
      <point x="371" y="524"/>
      <point x="335" y="529"/>
      <point x="306" y="529" type="curve" smooth="yes"/>
      <point x="122" y="529"/>
      <point x="52" y="382"/>
      <point x="52" y="219" type="curve" smooth="yes"/>
      <point x="52" y="76"/>
      <point x="130" y="-6"/>
    </contour>
    <contour>
      <point x="274" y="66" type="curve" smooth="yes"/>
      <point x="186" y="66"/>
      <point x="138" y="120"/>
      <point x="138" y="222" type="curve" smooth="yes"/>
      <point x="138" y="370"/>
      <point x="187" y="457"/>
      <point x="295" y="457" type="curve" smooth="yes"/>
      <point x="383" y="457"/>
      <point x="430" y="403"/>
      <point x="430" y="300" type="curve" smooth="yes"/>
      <point x="430" y="144"/>
      <point x="378" y="66"/>
    </contour>
  </outline>
</glyph>
